<svg width="141" height="37" viewBox="0 0 141 37" fill="none" xmlns="http://www.w3.org/2000/svg">
<path d="M104.421 35.9464C104.38 35.8785 101.146 35.5392 97.2282 35.2678C93.3105 34.9963 89.4732 34.7248 88.6897 34.657C87.9263 34.5891 82.1804 34.3176 75.9323 33.9783C65.7062 33.5033 62.3712 33.4354 55.1386 33.5033C53.9332 33.5711 51.7031 33.5711 50.2164 33.5711C48.7298 33.5033 46.0577 33.5033 44.2898 33.5033C42.5218 33.5033 40.8945 33.5033 40.6735 33.5033C40.4525 33.5033 33.2601 33.5033 24.7015 33.5711C11.9843 33.639 8.80997 33.4354 7.32328 32.6889C6.33884 32.1459 4.89233 31.603 4.1088 31.5352C2.6422 31.3994 1.59749 30.6529 1.41668 29.7028C1.35641 29.3635 1.09523 28.6848 0.834053 28.2776C0.371972 27.4632 0.371972 27.3954 0.71351 26.1059C0.934505 25.2915 0.974686 24.8165 0.813962 24.8165C0.673329 24.8165 0.633148 24.545 0.69342 24.1378C0.753691 23.7306 1.05505 23.4591 1.35641 23.4591C1.87876 23.4591 1.87876 23.4591 1.13541 21.7625C0.69342 20.7445 0.351881 19.2515 0.27152 18.1656C0.211248 17.1476 0.110796 15.7903 0.0505243 15.1795C0.0103433 14.5009 0.0706147 13.958 0.211248 13.958C0.371972 13.958 0.371972 13.6865 0.191158 12.94C0.0505243 12.3292 -0.0298376 11.7863 0.0103433 11.7184C0.0505243 11.5827 0.472424 10.7004 0.934505 9.68244C1.41668 8.66445 1.7984 7.44287 1.7984 6.89995C1.7984 6.35702 2.11984 5.8141 2.66229 5.6105C3.12437 5.33904 3.9079 4.86398 4.41016 4.45679C6.39912 2.89588 8.40816 2.42082 15.1586 2.01363C21.3263 1.6743 22.4313 1.74217 24.0988 2.76015C25.9271 3.91386 35.912 -0.132386 65.8468 0.00334522C66.8915 0.00334522 67.2733 0.206942 67.2532 0.885598C67.213 1.42852 67.4943 1.76785 68.097 1.83572C68.5992 1.97145 69.4631 2.37864 70.0257 2.78583C70.9096 3.46449 71.1306 3.39662 71.5324 2.44651C71.7936 1.83572 71.8941 1.36066 71.7534 1.36066C71.6329 1.36066 71.5124 1.08919 71.5124 0.682001C71.5124 0.342673 71.7334 0.00334522 72.0146 0.00334522C72.2959 0.00334522 72.5169 0.410539 72.5169 0.885598C72.5169 1.97145 73.4009 2.10718 80.7741 2.24291C84.9931 2.37864 86.1784 2.58224 86.4597 3.32876C86.6807 3.93955 87.0624 4.14314 87.6852 3.87168C88.1874 3.60022 88.6294 3.73595 88.6897 4.07528C88.8504 4.95753 89.7344 4.95753 89.8349 4.07528C89.875 3.66809 90.4778 3.26089 91.201 3.26089C92.0046 3.19303 92.6073 2.78583 92.7882 2.17504C92.9891 1.49639 93.2904 1.36066 93.7927 1.76785C94.1945 2.03931 94.9178 2.31077 95.42 2.37864C95.9223 2.44651 96.5049 2.78583 96.7058 3.0573C96.967 3.46449 97.1277 3.32876 97.188 2.8537C97.2683 1.90358 99.2372 1.69998 99.2372 2.58224C99.2372 2.92157 99.5988 3.12516 100.041 3.12516C100.483 3.0573 100.865 3.32876 100.905 3.66809C100.945 4.00741 101.507 4.21101 102.17 4.14315C103.798 3.87168 104.119 3.73595 104.421 3.12516C104.782 2.37864 111.111 2.37864 111.271 3.19303C111.432 4.00741 114.104 4.14315 114.104 3.32876C114.104 2.98943 114.486 2.71797 114.968 2.71797C115.591 2.71797 115.731 2.92157 115.51 3.39662C115.289 3.87168 115.39 4.07528 115.952 4.07528C116.455 4.07528 116.756 4.48247 116.897 5.29686C117.057 6.17911 117.138 6.24698 117.339 5.63619C117.54 4.95753 117.66 4.95753 117.881 5.56832C118.062 6.11125 118.203 6.11125 118.283 5.63619C118.484 4.6182 119.508 4.14315 120.151 4.75394C120.453 5.09326 120.754 5.16113 120.814 4.95753C120.975 4.34674 122.763 4.34674 122.864 4.88967C122.924 5.16113 123.868 5.43259 124.973 5.43259C126.058 5.43259 126.962 4.327 126.962 4.66633C126.962 5.00566 126.801 5.48072 126.621 5.61645C126.279 5.88791 126.279 5.95577 126.621 6.02364C126.801 6.02364 127.637 6.58471 127.637 6.58471C127.637 6.58471 128.69 6.56657 128.77 7.10949C128.77 5.95578 129.293 5.68431 129.413 6.83803C129.473 7.38095 129.694 7.38095 130.197 6.90589C130.639 6.4987 131.04 6.4987 131.241 6.83803C131.422 7.17736 133.09 8.758 134.938 8.62227C136.786 8.55441 138.594 8.62227 138.916 8.82587C139.499 9.23306 139.478 13.6865 138.635 14.1616C137.771 14.7045 137.751 14.7045 138.193 15.7225C138.474 16.4011 138.956 16.7405 139.559 16.5369C140.121 16.4011 140.523 16.6047 140.563 17.0798C140.644 17.8942 140.021 18.7086 139.217 18.7086C138.815 18.7086 138.775 18.8443 139.016 19.3872C139.257 19.9301 139.237 20.0659 138.876 20.0659C138.193 20.0659 137.831 20.7445 137.952 21.8304C138.012 22.4412 137.911 22.7805 137.63 22.7805C137.349 22.7805 137.248 22.4412 137.329 21.7625C137.409 21.1517 137.329 20.7445 137.128 20.7445C136.947 20.7445 136.806 21.016 136.806 21.3553C136.806 21.6946 136.525 21.8304 136.184 21.6268C135.802 21.4232 135.601 21.5589 135.681 21.9661C135.922 23.3234 137.128 26.4452 135.28 26.8524C131.824 27.5989 135.199 26.3457 134.998 27.0922C134.858 27.5673 132.788 27.056 135.28 26.8524C135.501 26.581 137.208 26.6488 135.28 26.8524C135.059 27.1918 135.882 29.3635 134.998 29.4992C133.27 29.7028 132.989 30.3136 132.989 30.3136C132.989 30.3136 134.094 28.8205 134.998 29.4992C135.621 29.9742 135.963 29.9742 136.143 29.4313C136.344 28.8884 136.485 29.0241 136.706 29.9742C136.867 30.6529 137.007 31.4673 137.007 31.7387C137.007 32.0102 137.208 32.3495 137.469 32.4853C137.791 32.6889 137.751 32.8246 137.268 32.8925C136.927 32.8925 136.585 32.6889 136.525 32.3495C136.385 31.6709 135.641 32.1459 135.239 33.1639C135.119 33.5033 134.737 33.639 134.396 33.4354C134.074 33.1639 133.753 33.2997 133.692 33.5711C133.552 34.3855 129.855 34.7248 128.027 34.1819C127.565 34.0462 127.223 34.1819 127.284 34.4534C127.344 34.7248 127.183 34.9963 126.922 34.9963C124.893 35.132 119.87 35.7428 119.187 36.0143C118.705 36.2179 118.323 36.0821 118.323 35.8107C118.323 35.5392 117.62 35.4714 116.776 35.7428C115.912 36.0143 115.129 36.0143 115.008 35.7428C114.908 35.4714 114.365 35.4035 113.803 35.4714C112.396 35.8107 104.481 36.15 104.421 35.9464ZM106.47 30.2457C106.47 29.9064 106.349 29.567 106.189 29.567C106.028 29.567 105.827 29.9064 105.767 30.2457C105.706 30.6529 105.827 30.9244 106.048 30.9244C106.289 30.9244 106.47 30.6529 106.47 30.2457ZM107.474 30.2457C107.474 29.9064 107.334 29.567 107.173 29.567C107.012 29.567 106.872 29.9064 106.872 30.2457C106.872 30.6529 107.012 30.9244 107.173 30.9244C107.334 30.9244 107.474 30.6529 107.474 30.2457ZM108.278 30.2457C108.278 29.9064 108.177 29.567 108.057 29.567C107.956 29.567 107.916 29.9064 107.977 30.2457C108.037 30.6529 108.137 30.9244 108.198 30.9244C108.238 30.9244 108.278 30.6529 108.278 30.2457ZM109.785 30.2457C109.724 29.9064 109.584 29.567 109.463 29.567C109.363 29.567 109.282 29.9064 109.282 30.2457C109.282 30.6529 109.423 30.9244 109.604 30.9244C109.765 30.9244 109.845 30.6529 109.785 30.2457ZM123.848 30.2457C123.728 30.4493 122.296 30.6782 122.236 30.3389L120.855 30.5172C122.281 30.3136 123.627 30.1778 123.848 30.2457ZM98.6345 29.567C98.6345 29.2277 98.3331 28.8884 97.9916 28.8884C97.4893 28.8884 97.409 29.092 97.63 29.567C98.0318 30.4493 98.6345 30.4493 98.6345 29.567ZM129.252 29.4992C129.453 30.11 130.297 29.9064 130.297 29.9064C130.699 29.7028 130.98 29.3635 130.94 29.2277C130.779 28.6169 132.989 30.3136 132.989 30.3136C132.989 30.3136 128.65 30.2457 128.79 29.4313C128.911 28.8205 129.252 29.4992 129.252 29.4992ZM87.2834 28.8884C87.6651 28.3455 87.6651 28.2776 87.2432 28.2776C86.982 28.2097 86.7208 28.2097 86.6405 28.1419C86.5601 28.1419 86.4597 28.4133 86.4195 28.8205C86.3391 29.7028 86.7208 29.7028 87.2834 28.8884ZM84.973 28.2776C84.973 27.9383 84.7319 27.7347 84.4506 27.7347C84.089 27.7347 84.0086 27.8704 84.1894 28.2776C84.5511 29.0241 84.973 29.0241 84.973 28.2776ZM85.6761 28.2097C85.6159 27.8704 85.4752 27.5311 85.3547 27.5311C85.2542 27.5311 85.1739 27.8704 85.1739 28.2097C85.1739 28.6169 85.3145 28.8884 85.4953 28.8884C85.656 28.8884 85.7364 28.6169 85.6761 28.2097ZM98.4336 27.5989C98.4336 26.8524 97.63 26.1059 97.3487 26.6488C97.2483 26.9203 97.3286 27.3275 97.5496 27.5989C98.092 28.3455 98.4336 28.3455 98.4336 27.5989ZM125.937 27.1239L127.484 26.038C127.484 26.038 126.982 26.8524 125.937 27.1239C124.973 27.3275 120.069 27.5064 118.725 27.2596L125.937 27.1239ZM96.2236 26.8524C96.0629 26.5131 95.6611 26.1738 95.3196 26.1738C94.8575 26.1738 94.7771 26.3774 95.0182 26.8524C95.1789 27.1918 95.6008 27.5311 95.9223 27.5311C96.3844 27.5311 96.4647 27.3275 96.2236 26.8524ZM101.588 27.1239C101.528 26.9203 101.347 26.8524 101.206 27.056C101.045 27.2596 101.106 27.4632 101.327 27.4632C101.548 27.5311 101.668 27.3275 101.588 27.1239ZM85.1739 25.7666C85.1739 25.6308 84.8323 25.4951 84.4305 25.563C83.7675 25.6308 83.7274 25.6987 84.1694 26.1059C84.6314 26.581 85.1739 26.3774 85.1739 25.7666ZM79.649 25.4951C79.7294 25.0879 79.5084 24.8165 79.1066 24.8165C78.6043 24.8165 78.5239 25.0201 78.7449 25.4951C79.1266 26.3774 79.4883 26.3774 79.649 25.4951ZM66.6304 25.0879C66.5701 24.8843 66.3893 24.8165 66.2487 25.0201C66.0879 25.2237 66.1482 25.4272 66.3692 25.4272C66.5902 25.4951 66.7107 25.2915 66.6304 25.0879ZM68.8001 24.8165C68.7399 24.4771 68.5591 24.1378 68.3983 24.1378C68.2376 24.1378 68.0568 24.4771 67.9965 24.8165C67.9162 25.2237 68.097 25.4951 68.3983 25.4951C68.6997 25.4951 68.8805 25.2237 68.8001 24.8165ZM71.9142 25.2237C71.9142 24.6129 71.3114 24.2735 71.211 24.8165C71.1306 25.2237 71.2713 25.4951 71.4923 25.4951C71.7334 25.4951 71.9142 25.3594 71.9142 25.2237ZM135.259 21.6268C135.119 21.491 134.878 21.491 134.757 21.6268C134.617 21.8304 134.717 21.9661 134.998 21.9661C135.28 21.9661 135.38 21.8304 135.259 21.6268ZM74.9277 3.80382C74.9277 3.60022 74.8474 3.26089 74.7268 3.0573C74.6264 2.8537 74.5259 2.98943 74.5259 3.32876C74.5259 3.73595 74.6264 4.07528 74.7268 4.07528C74.8474 4.07528 74.9277 3.93955 74.9277 3.80382ZM114.848 3.66809C114.787 3.46449 114.606 3.39662 114.466 3.60022C114.305 3.80382 114.365 4.00741 114.586 4.00741C114.807 4.07528 114.928 3.87168 114.848 3.66809ZM61.7886 1.49639C61.5877 0.885598 58.0517 0.817732 58.0517 1.42852C58.0517 1.69998 58.9156 1.97145 60.0005 1.97145C61.0653 2.03931 61.8689 1.83572 61.7886 1.49639ZM63.4762 1.49639C63.4762 0.682001 62.3109 0.54627 62.1703 1.36066C62.0899 1.76785 62.331 2.03931 62.7529 2.03931C63.1547 2.03931 63.4762 1.76785 63.4762 1.49639ZM64.3802 1.36066C64.4405 1.02133 64.32 0.682001 64.099 0.682001C63.8579 0.682001 63.6771 1.02133 63.6771 1.36066C63.6771 1.76785 63.7976 2.03931 63.9583 2.03931C64.1191 2.03931 64.32 1.76785 64.3802 1.36066ZM65.4852 1.36066C65.4852 1.02133 65.3446 0.682001 65.1839 0.682001C65.0231 0.682001 64.8825 1.02133 64.8825 1.36066C64.8825 1.76785 65.0231 2.03931 65.1839 2.03931C65.3446 2.03931 65.4852 1.76785 65.4852 1.36066ZM66.8915 1.36066C66.8915 1.02133 66.6906 0.682001 66.4496 0.682001C66.0678 0.682001 66.0477 0.817732 66.2888 1.36066C66.6705 2.24291 66.8915 2.24291 66.8915 1.36066Z" fill="#F6060A"/>
</svg>
