<svg width="306" height="315" viewBox="0 0 306 315" fill="none" xmlns="http://www.w3.org/2000/svg">
<path opacity="0.3" fill-rule="evenodd" clip-rule="evenodd" d="M85.3892 298.402C81.5896 299.187 80.1837 298.459 80.3512 294.795C80.3521 294.794 80.3563 294.792 80.3572 294.793C80.3585 294.794 80.3555 294.794 80.3572 294.793C80.3572 294.793 80.3631 294.793 80.364 294.791C80.4958 291.873 80.47 288.943 80.4399 285.637V285.622C80.4263 284.102 80.4119 282.504 80.4119 280.79L72.4095 284.395L72.0601 284.552L70.9901 285.034C49.6446 294.651 28.909 303.992 8.164 313.342L8.30945 314.318C8.93671 314.349 9.56311 314.389 10.1882 314.429L10.2175 314.431C11.4538 314.51 12.6888 314.588 13.9284 314.588C34.237 314.588 54.5446 314.59 74.8519 314.591C115.464 314.593 156.076 314.596 196.692 314.588C228.723 314.577 256.394 295.674 265.367 267.275C265.377 267.244 265.388 267.207 265.4 267.166C265.412 267.121 265.426 267.072 265.44 267.017C265.681 266.134 266.267 263.987 268.225 262.673C269.981 261.483 272.125 261.438 273.554 261.55C276.115 261.562 278.688 261.573 281.261 261.573C281.273 261.573 281.284 261.574 281.297 261.575C281.664 261.629 284.598 261.941 286.596 259.957C288.352 258.216 288.643 255.432 287.214 253.153L275.988 214.428C275.939 214.304 275.37 212.801 276.424 211.465C277.448 210.156 279.123 210.171 279.328 210.173H279.342C281.751 210.185 284.156 210.199 286.562 210.213H286.602C289.021 210.227 291.44 210.241 293.862 210.252C295.279 210.376 296.599 209.68 297.144 208.558C297.834 207.121 296.89 205.762 296.829 205.684C289.36 196.682 281.896 187.677 274.431 178.669C270.203 173.568 265.976 168.467 261.746 163.366C261.311 162.86 260.681 161.962 260.451 160.717C259.93 157.933 261.819 155.8 262.134 155.453C266.682 149.883 271.23 144.325 275.777 138.766C275.889 138.63 275.784 138.435 275.599 138.435H198.094C197.923 138.435 197.815 138.263 197.904 138.128C199.766 135.252 201.974 133.656 204.076 132.136L204.14 132.09C204.409 131.896 204.675 131.703 204.939 131.509C221.384 119.375 239.997 111.832 260.863 109.216L261.023 109.196C263.821 108.848 266.099 108.563 265.113 104.94C257.096 75.3502 276.448 48.2647 302.775 36.8266C302.814 36.8084 302.904 36.7914 303.028 36.7673C303.517 36.6732 304.538 36.4778 305.088 35.7266C305.397 35.3157 305.487 34.9336 305.492 34.559C305.493 34.4491 305.395 34.3628 305.275 34.3628H137.946C137.76 34.3628 137.654 34.561 137.767 34.6978C139.588 36.8982 141.63 39.9363 143.323 43.629C146.302 50.1617 146.787 56.0777 146.751 59.7815C146.799 81.373 146.85 97.2542 146.901 113.134C146.953 128.896 147.004 144.658 147.051 166.004C147.052 166.185 146.819 166.282 146.679 166.155C144.712 164.386 141.756 161.254 139.654 156.619C137.438 151.736 137.183 147.393 137.231 144.923C137.268 144.631 137.595 141.903 135.331 139.894C133.308 138.087 130.753 138.244 130.365 138.278C126.644 138.282 122.924 138.286 119.205 138.292H119.068H119.028C111.513 138.301 104 138.311 96.4816 138.311C93.4543 138.289 86.5274 137.84 79.5035 133.653C72.4074 129.433 69.2461 123.787 67.9263 121.362C62.0775 110.642 63.1675 100.091 70.1431 89.9767C71.172 88.484 72.5283 86.7666 74.1025 86.8563C75.5271 86.9327 76.4818 88.4405 77.1684 89.525L77.2273 89.6176C77.2273 89.6176 77.9296 90.718 84.4324 99.1587C84.9167 99.7876 88.4889 104.322 94.4229 107.264C96.7602 108.419 101.786 110.474 109.1 110.182C113.735 110.171 118.37 110.171 123.005 110.171H123.015L123.022 110.172C123.196 110.204 124.987 110.543 126.333 109.318C127.668 108.101 127.378 106.462 127.331 106.24C127.327 106.225 127.326 106.212 127.326 106.197C127.296 100.407 127.262 94.6191 127.229 88.832L127.229 88.7336C127.195 82.9714 127.163 77.2092 127.132 71.4443C127.129 70.8637 127.128 70.4195 127.126 70.0659C127.123 69.1553 127.122 68.8452 127.096 68.3686C127.011 66.3712 125.74 45.7056 109.149 31.0906C104.473 26.9707 100.951 25.4182 97.4154 23.8606C93.5158 22.142 89.6001 20.417 84.1054 15.2296C78.2659 9.72135 74.6598 4.09051 72.5096 0.114581C72.4125 -0.064992 72.1241 -0.0246498 72.0919 0.173909C71.5041 3.76379 71.1096 9.2566 72.6614 15.6564C74.7489 24.3083 79.3342 30.2872 82.107 33.3681C82.2207 33.4946 82.1384 33.6877 81.962 33.7055C76.4991 34.2675 72.1347 33.5955 68.9921 32.7633C48.7582 27.4105 41.5591 5.3309 40.3207 0.981592C40.2655 0.789757 39.9801 0.776309 39.8991 0.959442C38.5539 3.9754 37.0632 8.44891 36.9491 13.9615C36.7366 24.5547 41.7503 32.31 44.0999 35.4695C44.1864 35.5858 44.1236 35.7452 43.9764 35.784C40.7367 36.6411 36.7718 37.4444 32.2021 37.8257C28.5472 38.1315 25.2248 38.1078 22.3689 37.9405C22.2433 37.9333 22.1356 38.0235 22.1322 38.1402C22.1148 38.7671 22.117 39.4031 22.139 40.0483C22.4846 48.7315 26.9114 55.8017 31.1664 60.7209C31.2598 60.8301 31.2144 60.9903 31.0744 61.0417C27.316 62.4202 22.5941 63.7745 17.0527 64.541C14.157 64.9449 11.4673 65.1256 9.02789 65.1766C8.91 65.1794 8.81415 65.2652 8.80948 65.3748C8.69031 68.3433 8.82516 72.1333 9.73785 76.4285C10.8367 81.5866 12.6892 85.7188 14.308 88.6636C14.3495 88.7383 14.3377 88.8285 14.2774 88.8918C13.1031 90.1342 11.5725 91.53 9.6293 92.8732C6.11774 95.2923 2.66299 96.5691 0.160797 97.2593C0.0276184 97.2965 -0.0385437 97.4349 0.0242004 97.5504C1.509 100.29 3.41025 103.354 5.85095 106.556C8.87946 110.539 12.0017 113.754 14.7872 116.278C14.847 116.333 14.869 116.414 14.8428 116.488C14.3037 118.022 13.3775 120.037 11.7969 122.147C9.64075 125.01 7.18137 126.813 5.46674 127.865C5.36026 127.93 5.33356 128.065 5.40988 128.161C7.12073 130.294 9.29254 132.676 12.0149 135.09C15.4764 138.164 18.8777 140.455 21.782 142.135C21.8248 142.159 21.8578 142.198 21.8744 142.242C34.6127 175.903 52.7151 191.388 68.0841 199.162C84.594 207.52 103.243 209.663 118.01 211.36C132.435 213.017 143.158 214.249 144.57 220.433C145.263 223.47 142.997 226.744 140.001 231.07C138.39 233.396 136.568 236.028 134.883 239.089C129.917 248.114 120.944 251.269 112.14 248.664C111.05 248.341 109.982 247.566 108.946 246.814C107.207 245.552 105.556 244.354 104.038 245.465C102.335 246.716 101.318 249.192 100.302 251.669C99.8595 252.747 99.4155 253.827 98.9159 254.804C98.5957 255.431 98.2921 256.072 97.9897 256.712C97.376 258.009 96.7636 259.304 96.0091 260.483C92.861 265.411 94.9802 266.018 99.0372 265.996C112.418 265.904 125.801 265.917 139.182 265.93H139.231C143.937 265.935 148.644 265.939 153.35 265.939H160.948C161.039 265.939 161.123 265.887 161.155 265.807C161.257 265.559 161.356 265.312 161.456 265.063L161.457 265.058L161.529 264.879C161.608 264.683 161.687 264.488 161.767 264.294C161.797 264.221 161.781 264.141 161.726 264.083C160.954 263.27 160.185 262.449 159.418 261.628L159.315 261.518L159.3 261.502C157.381 259.45 155.462 257.398 153.472 255.444C151.57 253.581 151.546 252.043 152.564 249.304C157.964 234.779 166.38 226.315 181.081 229.256C181.365 229.313 181.661 229.292 181.958 229.27L181.964 229.27C182.241 229.25 182.52 229.23 182.789 229.274C182.805 229.277 182.821 229.278 182.838 229.278C183.046 229.271 184.601 229.213 185.987 228.942C186.627 228.815 186.675 227.923 186.759 226.368C186.884 224.07 187.087 220.321 189.39 215.449C189.963 214.247 190.611 213.656 191.197 213.123C191.315 213.016 191.433 212.908 191.545 212.8C198.726 205.796 221.323 206.391 229.497 217.941C234.705 225.293 232.125 234.262 229.631 242.536C225.744 255.455 217.327 263.111 215.402 264.817C208.402 271.024 199.441 275.222 188.627 277.456C170.055 281.301 151.458 285.043 132.862 288.785L132.518 288.854L132.51 288.856L132.492 288.86C116.785 292.02 101.08 295.181 85.3892 298.402ZM127.503 229.952C129.576 226.936 131.271 224.468 130.767 222.639C130.766 222.635 130.765 222.631 130.765 222.628C130.765 222.624 130.765 222.62 130.764 222.617C129.53 218.254 115.178 215.552 109.222 220.792C108.342 221.562 108.094 222.109 107.71 222.957C107.359 223.731 106.896 224.756 105.734 226.427L105.706 226.468C103.656 229.426 100.195 234.416 94.0718 236.171C90.5721 237.181 86.7696 237.114 83.0036 236.003C81.9132 235.679 80.8461 234.905 79.8096 234.152C78.07 232.89 76.4194 231.692 74.9015 232.803C73.1988 234.054 72.1817 236.529 71.1656 239.005C70.7233 240.084 70.2793 241.165 69.7792 242.142C69.4595 242.769 69.1562 243.41 68.853 244.051L68.8449 244.068C68.2342 245.358 67.6235 246.648 66.8733 247.823C65.3711 250.168 65.0687 251.538 65.6018 252.323C66.4246 253.547 69.0044 253.39 69.9005 253.333C74.7497 253.032 82.9629 253.042 94.4212 253.253C94.504 253.254 94.582 253.213 94.6219 253.146C95.7258 251.307 96.5155 249.743 97.0146 248.686C97.5549 247.548 97.9633 246.575 98.3162 245.734C99.2356 243.541 99.7789 242.248 101.301 241.267C102.658 240.391 104.05 240.234 104.79 240.156C107.592 239.869 109.554 240.994 111.721 242.238C113.451 243.23 115.311 244.297 117.832 244.78C119.468 245.094 121.996 245.272 125.383 244.326C125.548 244.28 125.594 244.085 125.471 243.975C125.133 243.672 124.735 243.279 124.323 242.793C124.297 242.762 124.267 242.728 124.233 242.689L124.184 242.633L124.18 242.629C123.805 242.199 123.103 241.396 122.882 240.593C122.409 238.898 123.076 237.349 123.415 236.653C124.586 234.198 126.127 231.956 127.501 229.956L127.503 229.952ZM100.968 81.3853C97.0872 81.3853 93.9416 78.4765 93.9416 74.8882C93.9416 71.2999 97.0872 68.3916 100.968 68.3916C104.849 68.3916 107.995 71.2999 107.995 74.8882C107.995 78.4765 104.849 81.3853 100.968 81.3853Z" fill="white"/>
</svg>
