<svg viewBox="0 0 400 400" xmlns="http://www.w3.org/2000/svg" xmlns:xlink="http://www.w3.org/1999/xlink" width="30px" height="30px" fill="none" customFrame="#ffffff">
	<path id="Форма 1" d="M200 0C204.388 0 208.7 1.15516 212.5 3.34935C216.3 5.54357 219.456 8.69951 221.651 12.5C223.845 16.3005 225 20.6116 225 25L225 175L375 175C380.279 175 385.423 176.671 389.695 179.775C393.966 182.878 397.145 187.253 398.776 192.275C400.408 197.296 400.408 202.704 398.776 207.725C397.145 212.747 393.966 217.122 389.695 220.225C385.423 223.329 380.279 225 375 225L225 225L225 375C225 380.279 223.329 385.423 220.225 389.695C217.122 393.966 212.747 397.145 207.725 398.776C202.704 400.408 197.296 400.408 192.275 398.776C187.253 397.145 182.878 393.966 179.775 389.695C176.671 385.423 175 380.279 175 375L175 225L25 225C19.7205 225 14.5766 223.329 10.3054 220.225C6.03418 217.122 2.85504 212.747 1.22359 207.725C-0.407863 202.704 -0.407863 197.296 1.22359 192.275C2.85504 187.253 6.03418 182.878 10.3054 179.775C14.5766 176.671 19.7205 175 25 175L175 175L175 25C175 20.6116 176.155 16.3005 178.349 12.5C180.544 8.69951 183.7 5.54357 187.5 3.34935C191.3 1.15516 195.612 0 200 0Z" fill="rgb(0,0,0)" fill-rule="nonzero" />
</svg>
