<svg width="323" height="70" viewBox="0 0 323 70" fill="none" xmlns="http://www.w3.org/2000/svg">
<path d="M161.621 0.0908678C161.695 0.140217 161.974 0.156667 162.279 0.131992C162.575 0.107318 163.035 0.123768 163.307 0.173117C163.578 0.222467 164.689 0.296491 165.774 0.32939C166.86 0.370515 168.028 0.452764 168.365 0.502114C168.826 0.584363 169.788 0.592588 172.149 0.551463C178.704 0.436314 181.87 0.403415 186.624 0.39519C191.107 0.386965 191.683 0.39519 193.451 0.567913C194.512 0.666612 196.42 0.806436 197.687 0.872235C200.122 1.00383 200.204 1.01206 202.334 1.20123C203.798 1.34106 206.553 1.71118 208.124 1.99082C208.692 2.08952 209.227 2.1471 209.416 2.1142C209.597 2.0813 210.723 2.19645 212.179 2.39384C215.601 2.84621 215.93 2.87911 218.068 2.96959C219.179 3.01071 220.635 3.13409 221.539 3.24924C222.395 3.36438 224.229 3.57001 225.611 3.70983C226.992 3.84965 230.578 4.23623 233.589 4.57345C239.428 5.22322 240.86 5.36304 244.034 5.56044C246.839 5.73316 247.851 5.82363 250.491 6.09506C253.106 6.36648 254.916 6.4734 257.935 6.54743C259.999 6.59678 260.838 6.65435 262.047 6.82707C262.639 6.90932 264.383 7.00802 269.861 7.28767C273.258 7.46039 274.442 7.55909 275.988 7.79761C276.712 7.90454 277.691 8.02791 278.168 8.06904C278.645 8.11016 279.492 8.20886 280.06 8.28288C280.833 8.38158 281.376 8.40626 282.239 8.36513C283.16 8.31578 283.473 8.33223 283.802 8.43093C284.024 8.50496 284.304 8.56253 284.411 8.56253C284.517 8.56253 284.74 8.66946 284.904 8.80105C285.529 9.29455 286.064 9.49195 287.404 9.71402C288.885 9.96899 288.975 10.0266 289.28 10.8655C289.362 11.0711 289.485 11.4001 289.559 11.6058C289.847 12.346 289.79 14.6572 289.485 14.9697C289.419 15.0273 289.206 15.1013 289 15.1178C288.671 15.1589 288.597 15.1342 288.416 14.9451C288.309 14.8217 288.128 14.4927 288.013 14.213C287.898 13.9334 287.766 13.7031 287.709 13.7031C287.659 13.7031 287.52 13.9252 287.404 14.1884C287.018 15.1096 286.771 15.307 285.998 15.307C285.406 15.307 285.151 15.5948 284.912 16.516C284.863 16.7134 284.789 16.8697 284.748 16.8697C284.707 16.8697 284.575 17.0589 284.46 17.2892C284.312 17.5688 284.164 17.7415 283.991 17.8073C283.744 17.9143 283.744 17.9143 284.262 17.9718C284.55 18.0047 285.973 18.2104 287.421 18.4407C288.868 18.6627 290.752 18.9424 291.616 19.0493C293.581 19.296 293.59 19.296 295.967 20.0692C297.06 20.4229 298.187 20.7519 298.483 20.8012C298.779 20.8506 299.158 20.9164 299.331 20.941C299.758 21.0068 300.243 21.4592 300.416 21.9527C300.49 22.1665 300.572 22.66 300.597 23.0466C300.663 24.0254 300.482 24.7738 299.923 25.8924C299.429 26.863 299.372 27.1755 299.643 27.3236C299.742 27.3729 300.342 27.4716 300.975 27.5374C301.708 27.6114 302.374 27.7348 302.76 27.8664C303.155 27.998 303.871 28.1296 304.751 28.2283C306.437 28.4257 307.235 28.6478 308.723 29.3387C309.932 29.9062 310.245 30.1283 310.492 30.6135C310.714 31.0412 311.084 31.1317 312.334 31.0577C313.124 31.0166 313.617 31.0412 314.686 31.1811C316.257 31.3785 318.141 31.6745 319.375 31.9213C319.852 32.0118 320.329 32.0858 320.444 32.0858C321.061 32.0858 321.801 32.5382 322.467 33.3195C322.739 33.6321 322.829 33.813 322.829 34.0186C322.829 34.2654 322.78 34.3147 322.237 34.6355C321.908 34.8329 321.382 35.2606 321.069 35.5814C320.748 35.9104 320.403 36.2065 320.304 36.2312C320.205 36.2641 319.992 36.2312 319.811 36.1489C319.638 36.0749 319.391 36.0173 319.259 36.0255C318.881 36.042 318.741 35.968 318.421 35.532C317.795 34.6766 317.072 34.6437 317.072 35.4745V35.7459L316.907 35.4827C316.792 35.2853 316.652 35.1948 316.373 35.1208C316.052 35.0385 315.961 34.9645 315.69 34.5697C315.114 33.6979 314.785 33.6979 313.938 34.5615C313.625 34.874 313.354 35.129 313.338 35.129C313.313 35.129 313.173 35.0714 313.025 35.0056C312.877 34.9398 312.54 34.8494 312.277 34.8C311.75 34.6931 311.643 34.5779 311.643 34.0762C311.643 33.7472 311.396 33.3195 311.207 33.3195C311.158 33.3195 310.977 33.4182 310.804 33.5416C310.525 33.7308 310.442 33.7472 310.179 33.6814C309.875 33.6074 309.875 33.6074 309.266 34.2489C308.6 34.9481 308.09 35.2688 307.473 35.3511C307.152 35.3922 306.971 35.5074 306.264 36.0996C305.804 36.4779 305.269 36.8891 305.063 37.0043C304.858 37.1194 304.553 37.3415 304.372 37.4978C304.076 37.761 304.027 37.7774 303.583 37.7445C303.163 37.7116 303.007 37.6458 302.333 37.2017C301.124 36.4039 300.671 36.297 300.046 36.6506C299.322 37.0619 298.812 37.2593 298.146 37.3991C297.365 37.5554 296.633 37.5307 293.77 37.2675C292.808 37.177 291.64 37.0701 291.163 37.0207C290.686 36.9796 289.428 36.9056 288.367 36.8562C285.924 36.7493 284.97 36.6588 283.226 36.3545C281.77 36.1078 280.635 36.0173 276.728 35.8693C275.503 35.8199 274.302 35.7459 274.055 35.7048C273.809 35.6636 273.027 35.639 272.328 35.639C271.629 35.6472 271.185 35.6636 271.341 35.6801C271.497 35.6965 273.537 35.9515 275.865 36.2476C278.192 36.5355 281.417 36.922 283.021 37.103C284.624 37.2839 286.878 37.5554 288.013 37.7199C289.156 37.8761 291.361 38.1393 292.907 38.2956C294.461 38.4519 296.008 38.6246 296.345 38.6657C296.682 38.7069 297.143 38.7644 297.373 38.7891C297.801 38.8385 298.911 38.9783 299.347 39.0358C299.479 39.0605 300.589 39.2086 301.814 39.3648C306.593 40.0064 311.265 40.7302 311.635 40.8947C311.841 40.9852 312.203 41.2566 312.449 41.5033C312.688 41.7501 313.033 42.0297 313.206 42.1202C313.584 42.3094 314.168 42.334 314.39 42.1613C314.917 41.7583 315.221 42.2518 315.205 43.4855C315.196 44.1929 315.155 44.3985 314.941 44.966C314.802 45.3197 314.53 45.8543 314.341 46.1504C313.609 47.2854 311.495 49.1278 310.59 49.4157C310.171 49.5473 310.08 49.5473 307.671 49.2841C304.8 48.9798 302.514 48.6672 301.823 48.4863C301.559 48.4205 301.23 48.3711 301.082 48.3876C300.943 48.404 302.374 48.7166 304.257 49.0949C306.149 49.4733 307.868 49.8269 308.09 49.8927C308.32 49.9668 308.592 50.123 308.756 50.2958C309.011 50.559 309.036 50.633 309.061 51.1429C309.077 51.4801 309.036 51.8749 308.962 52.1381C308.814 52.6563 308.871 52.7715 309.34 52.8948C309.686 52.9853 310.335 53.4706 310.418 53.6926C310.451 53.7749 310.409 53.9476 310.335 54.0874C310.253 54.2437 310.187 54.655 310.163 55.2225C310.122 55.9545 310.08 56.1437 309.932 56.3493C309.834 56.4809 309.751 56.6701 309.751 56.7688C309.751 57.0484 309.044 57.6982 308.518 57.8956C307.761 58.167 306.634 58.2657 304.71 58.2164C302.867 58.1752 302.267 58.093 299.594 57.5501C297.25 57.0731 296.402 57.0155 295.843 57.3034C295.341 57.5584 294.799 58.3644 294.494 59.3103C294.157 60.3631 293.688 60.9553 293.08 61.1033C292.52 61.2349 290.152 61.531 289.642 61.531C288.737 61.531 287.849 61.2102 287.149 60.6427C286.853 60.396 286.705 60.3384 286.319 60.3137C285.998 60.289 285.768 60.3219 285.603 60.4042C285.323 60.544 283.827 60.9553 283.58 60.9553C283.292 60.9553 282.963 60.6921 282.807 60.3466C282.65 60.0258 282.634 60.0094 281.885 59.812C280.923 59.557 280.759 59.6064 280.463 60.1739C280.232 60.6263 280.043 60.7085 279.64 60.544C279.097 60.3137 278.859 59.7462 279.073 59.1787C279.204 58.8332 279.048 58.7345 278.225 58.6769L277.51 58.6276V58.3233C277.51 58.0272 277.493 58.0107 277.115 57.9038C276.901 57.838 276.49 57.7887 276.194 57.7887C275.454 57.7969 275.083 58.0107 274.138 58.9895C273.71 59.4336 273.249 59.8367 273.126 59.8778C272.78 60.0094 272.377 59.9847 271.851 59.812C270.971 59.5159 270.272 59.8038 270.025 60.5687C269.91 60.947 269.581 61.1197 269.005 61.1197C268.808 61.1197 268.586 61.1444 268.512 61.1691C268.298 61.2513 268.355 61.6955 268.668 62.518C268.981 63.3158 269.112 64.1465 268.972 64.492C268.865 64.7716 267.763 65.3556 266.949 65.5612C266.612 65.6435 265.855 65.7586 265.279 65.808C264.523 65.8738 264.177 65.9396 264.046 66.0382C263.231 66.6798 262.606 67.1404 262.285 67.3213C261.677 67.6668 260.624 68.0205 259.802 68.1521C258.017 68.4317 253.937 68.6867 251.165 68.6867C249.874 68.6867 249.734 68.7196 249.175 69.1473C249.035 69.246 248.558 69.468 248.106 69.6243C247.3 69.9122 247.259 69.9204 246.008 69.9204C242.603 69.9204 235.357 69.5092 230.628 69.0568C221.737 68.2014 217.188 67.9382 206.118 67.6586C203.428 67.5845 198.929 67.4612 196.124 67.3707C193.32 67.2802 190.137 67.2062 189.051 67.2062C187.965 67.2062 186.427 67.1486 185.637 67.0828C183.088 66.869 181.245 66.7949 176.549 66.7127C174.016 66.6716 169.722 66.5893 167 66.54C164.162 66.4906 158.915 66.4742 154.662 66.5071C150.024 66.5317 146.306 66.5235 144.677 66.4659C143.254 66.4166 138.122 66.3426 133.286 66.3014C123.646 66.2274 123.835 66.2356 122.857 65.7257C122.33 65.4543 122.075 65.4214 121.746 65.5941C120.62 66.1781 118.95 66.2932 116.458 65.9725C115.833 65.8902 115.602 65.8984 114.985 66.0053C114.582 66.0794 114.138 66.1369 113.982 66.1369C113.834 66.1369 113.398 66.1698 113.011 66.2192C112.181 66.3179 100.978 66.6058 93.6007 66.7127C90.7302 66.7538 87.0619 66.8361 85.458 66.8936C81.5265 67.0335 79.6101 67.0252 78.6725 66.8525C77.7513 66.6798 76.6985 66.6798 75.2591 66.8361C73.8198 67.0006 72.7423 67.017 71.928 66.8854C71.3934 66.7949 70.9822 66.7949 69.7073 66.8772C68.8437 66.9348 67.7744 66.9759 67.3221 66.9677C66.8697 66.9594 65.0191 66.9512 63.2096 66.9512C60.6681 66.9594 59.7716 66.9841 59.2616 67.0746C58.8669 67.1486 57.8716 67.2144 56.7942 67.2391C55.799 67.2555 54.08 67.3542 52.9696 67.4447C50.9709 67.6174 49.1943 67.7408 47.0476 67.8642C46.439 67.8971 45.8057 67.9711 45.6494 68.0205C45.4849 68.078 44.6295 68.1274 43.5932 68.1438C42.6226 68.1603 41.6768 68.2096 41.4876 68.2672C41.0106 68.3988 39.234 68.6044 37.8604 68.6784C37.2189 68.7196 36.6596 68.7771 36.602 68.81C36.5033 68.8676 33.4436 69.0403 32.5471 69.0321C32.1194 69.0321 31.9385 68.991 31.8151 68.8758C31.6424 68.7196 31.6424 68.7771 31.7987 67.4118C31.8562 66.9019 31.6917 66.6058 31.4614 66.7949C31.3874 66.8525 31.2476 67.0499 31.1571 67.2309C31.0173 67.5105 31.0008 67.6503 31.0502 68.2014C31.116 68.9581 31.0666 69.0157 30.2935 69.0157C30.0303 69.0157 29.4052 69.0732 28.9117 69.139C28.3853 69.2131 27.349 69.2624 26.4442 69.2624C25.5806 69.2624 23.8616 69.32 22.6196 69.394C21.1227 69.4763 18.7293 69.5256 15.5462 69.5338C10.9403 69.5503 10.6771 69.5421 9.3364 69.3611C8.56326 69.2542 7.7161 69.1226 7.44467 69.0568C6.80313 68.9087 5.50359 68.4564 5.34732 68.3166C5.28152 68.259 5.18282 68.2343 5.12525 68.2508C4.93607 68.3166 4.21228 67.8642 3.80103 67.42C3.33221 66.9019 3.02789 66.3261 2.83872 65.6023C2.65777 64.8868 2.68245 64.492 3.00322 63.1842C3.80926 59.8942 5.1088 57.9778 7.19793 57.0073C7.97107 56.6454 8.84291 56.4151 9.18013 56.4809C9.31173 56.5056 9.73942 56.448 10.126 56.3575C10.5126 56.267 11.2857 56.1354 11.8532 56.0532C12.577 55.9627 12.9225 55.8723 13.0376 55.7736C13.2679 55.5679 13.9999 55.387 15.2583 55.2472C16.9774 55.0415 17.1418 55.0169 17.3721 54.8935C17.6929 54.7372 17.7916 54.4987 17.7998 53.8407C17.8081 53.1745 17.6847 52.9031 17.2488 52.6728C17.0103 52.5412 16.5743 52.5165 12.4619 52.4754C7.69965 52.4178 7.06633 52.3767 5.55294 51.9819C4.60708 51.7433 3.93263 51.3897 3.34044 50.8304C2.68245 50.2135 2.19718 49.3581 2.23008 48.8399C2.2383 48.6508 2.16428 48.2231 2.05735 47.8941C1.88463 47.3266 1.88463 47.2772 2.008 46.9071C2.08203 46.6932 2.15605 46.1915 2.1725 45.7967C2.2054 45.2128 2.25475 44.9742 2.46037 44.5301C2.83872 43.7323 2.82227 43.6912 2.01623 43.0085C0.938764 42.1037 0.412369 41.3635 0.124497 40.3518C-0.0975757 39.6116 -0.0153266 38.3614 0.31367 37.3497C0.453494 36.922 0.626217 36.3134 0.700241 35.9926C0.905864 35.1208 1.26776 34.323 1.90108 33.3689C2.5673 32.349 2.83872 32.1187 3.85861 31.6252C4.7469 31.2057 5.48714 30.9837 6.53993 30.8521C7.86414 30.6793 7.94639 30.6218 7.42822 30.1776C6.58928 29.4538 6.06289 28.8945 5.75034 28.3681L5.41312 27.7924L5.49537 26.9781C5.59407 26.0816 5.51182 25.2509 5.29797 24.8314C5.19927 24.634 5.18282 24.5353 5.24862 24.4284C5.29797 24.3544 5.36377 24.157 5.38844 23.9925C5.42134 23.828 5.52004 23.6553 5.60229 23.6141C5.79146 23.5072 5.92306 23.0466 5.92306 22.4791C5.92306 21.9445 6.28496 20.9575 6.74555 20.2501C7.21438 19.5263 7.19793 19.2467 6.66331 18.5805C5.98886 17.7498 5.89839 17.4043 5.85726 15.7182C5.82436 14.2377 5.88194 13.7442 6.17804 12.7655C6.26028 12.4776 6.33431 12.0334 6.33431 11.762C6.33431 10.6846 7.04165 9.08893 7.89704 8.23354C8.41521 7.71537 9.28705 7.1643 9.58315 7.1643C9.6654 7.1643 9.93682 7.04092 10.1918 6.88465C10.4468 6.72838 10.9074 6.51453 11.2117 6.41583C11.5242 6.31713 11.7628 6.18553 11.7628 6.12796C11.7628 5.72494 14.2138 5.08339 17.0678 4.74617C19.0583 4.50765 21.9946 4.26913 22.414 4.30203C22.6525 4.3267 23.1789 4.49942 23.6889 4.7215C25.5559 5.53576 27.4477 5.75784 30.4333 5.51109C35.7631 5.06694 37.9591 4.93534 40.55 4.89422C43.3629 4.84487 44.2429 4.81197 45.4027 4.70505C45.9208 4.66392 46.9572 4.58167 47.7056 4.53232C48.4541 4.48297 49.3753 4.40072 49.7619 4.34315C50.1484 4.2938 50.716 4.25268 51.0367 4.25268C52.2376 4.2609 63.4646 3.54533 64.0239 3.42196C64.7559 3.25746 65.3399 3.26569 65.6935 3.43018C65.9567 3.56178 65.9979 3.56178 66.2775 3.42196C66.4667 3.33149 66.919 3.24924 67.4454 3.20811C67.9225 3.17521 68.4407 3.10119 68.5969 3.06006C69.0082 2.94491 70.8999 2.67349 72.2981 2.52544C74.0089 2.3445 75.4236 2.25402 79.3716 2.06485C81.2962 1.97437 83.591 1.86745 84.471 1.8181C85.3511 1.77698 87.2593 1.70295 88.7068 1.6536C90.1544 1.60425 92.9509 1.48088 94.9167 1.36573C100.83 1.03673 102.747 0.970934 105.732 1.02851C110.857 1.11898 112.633 1.10253 113.669 0.946259C114.278 0.855785 115.059 0.806436 115.849 0.806436C119.698 0.83111 121.722 0.814661 122.676 0.740636C123.26 0.699512 125.406 0.633712 127.43 0.592588C129.453 0.551463 131.287 0.493889 131.493 0.460989C131.83 0.41164 138.171 0.247141 140.746 0.222467C141.396 0.214242 141.741 0.181342 141.807 0.107318C141.947 -0.024281 161.423 -0.0407308 161.621 0.0908678ZM270.453 35.5978C270.535 35.6143 270.683 35.6143 270.782 35.5978C270.889 35.5814 270.823 35.5649 270.642 35.5649C270.461 35.5567 270.379 35.5732 270.453 35.5978Z" fill="#F6060A"/>
</svg>
