<svg width="371" height="97" viewBox="0 0 371 97" fill="none" xmlns="http://www.w3.org/2000/svg">
<path d="M275.527 96.0997C275.421 95.9025 266.886 94.9169 256.549 94.1283C246.211 93.3398 236.086 92.5513 234.019 92.3541C232.004 92.157 216.843 91.3685 200.357 90.3828C173.374 89.0029 164.574 91.8057 145.49 92.0029C142.309 92.2 136.425 92.2 132.502 92.2C128.579 92.0029 121.529 92.0029 116.864 92.0029C112.199 92.0029 107.905 92.0029 107.322 92.0029C106.739 92.0029 87.7608 92.0029 65.1781 92.2C31.622 92.3971 23.2462 91.8057 19.3234 89.6373C16.7258 88.0602 12.909 86.4832 10.8416 86.286C6.97176 85.8918 4.21518 83.7233 3.73808 80.9634C3.57904 79.9778 2.8899 78.0064 2.20075 76.8236C0.981494 74.4581 0.981494 74.2609 1.88268 70.5154C2.46581 68.1498 2.57183 66.7699 2.14774 66.7699C1.77666 66.7699 1.67064 65.9813 1.82967 64.7985C1.98871 63.6157 2.78387 62.8272 3.57904 62.8272C4.95733 62.8272 4.95733 62.8272 2.99592 57.8989C1.82967 54.9419 0.928483 50.605 0.716438 47.4508C0.557404 44.4938 0.292348 40.5512 0.133315 38.777C0.0272921 36.8057 0.186326 35.2286 0.557404 35.2286C0.981494 35.2286 0.981494 34.4401 0.504393 32.2716C0.133315 30.4974 -0.0787303 28.9203 0.0272921 28.7232C0.133315 28.3289 1.24655 25.7662 2.46581 22.8092C3.73808 19.8522 4.74529 16.3038 4.74529 14.7268C4.74529 13.1497 5.59347 11.5726 7.02477 10.9812C8.24403 10.1927 10.3115 8.81278 11.6367 7.62998C16.8849 3.09593 22.186 1.716 39.9977 0.533199C56.2722 -0.452465 59.1878 -0.255333 63.5877 2.70166C68.4118 6.05292 138.015 9.60131 217.002 9.99558C219.759 9.99558 226.351 10.2746 226.298 12.2459C224.708 12.0488 226.192 13.823 226.298 12.2459C227.624 12.6402 231.103 12.7554 232.587 13.9382C234.92 15.9096 232.004 17.0924 232.004 17.0924C232.004 17.0924 232.959 13.9382 232.587 13.9382C232.269 13.9382 231.951 13.1497 231.951 11.9669C231.951 10.9812 232.534 9.99558 233.277 9.99558C234.019 9.99558 234.602 11.1784 234.602 12.5583C234.602 15.7124 251.937 19.2608 271.392 19.6551C270.65 17.4866 282.524 20.0494 271.392 19.6551C271.975 21.4293 272.982 22.0207 274.625 21.2322C275.951 20.4436 277.117 20.8379 277.276 21.8236C277.7 24.3863 280.033 24.3863 280.298 21.8236C280.404 20.6408 281.994 19.458 283.902 19.458C286.023 19.2608 287.613 18.078 288.09 16.3038C288.62 14.3325 289.415 13.9382 290.741 15.121C291.801 15.9096 293.709 16.6981 295.035 16.8952C296.36 17.0924 297.897 18.078 298.427 18.8666C299.117 20.0494 299.541 19.6551 299.7 18.2752C299.912 15.5153 305.107 14.9239 305.107 17.4866C305.107 18.4723 306.061 19.0637 307.227 19.0637C308.393 18.8666 309.401 19.6551 309.507 20.6408C309.613 21.6264 311.097 22.2178 312.846 22.0207C317.14 21.2322 317.988 20.8379 318.784 19.0637C319.738 16.8952 293.179 14.5296 293.603 16.8952C294.027 19.2608 301.078 19.6551 301.078 17.2895C301.078 16.3038 302.085 15.5153 303.357 15.5153C305.001 15.5153 305.372 16.1067 304.789 17.4866C304.206 18.8666 304.471 19.458 305.955 19.458C307.28 19.458 308.075 20.6408 308.447 23.0064C308.871 25.5691 309.083 25.7662 309.613 23.992C310.143 22.0207 310.461 22.0207 311.044 23.7949C311.521 25.3719 311.892 25.3719 312.104 23.992C312.634 21.035 315.338 19.6551 317.034 21.4293C317.829 22.415 318.625 22.6121 318.784 22.0207C319.208 20.2465 323.926 20.2465 324.191 21.8236C324.35 22.6121 326.841 23.4006 329.757 23.4006C332.62 23.4006 335.005 24.1892 335.005 25.1748C335.005 26.1605 334.581 27.5404 334.104 27.9347C333.203 28.7232 333.203 28.9203 334.104 29.1175C334.581 29.1175 335.005 30.6945 335.005 32.2716C335.005 35.6229 336.118 36.2143 336.967 33.0601C337.391 31.4831 337.656 31.4831 337.868 33.0601C338.398 36.2143 339.776 35.6229 339.776 32.2716C339.776 28.9203 341.154 28.1318 341.472 31.4831C341.632 33.0601 342.215 33.0601 343.54 31.6802C344.706 30.4974 345.766 30.4974 346.297 31.4831C346.774 32.4687 351.173 33.0601 356.051 32.6659C360.928 32.4687 365.699 32.6659 366.547 33.2573C368.084 34.4401 368.031 34.4401 365.805 35.82C363.525 37.3971 363.472 37.3971 364.638 40.3541C365.381 42.3254 366.653 43.311 368.243 42.7196C369.727 42.3254 370.788 42.9168 370.894 44.2967C371.106 46.6623 369.462 49.0279 367.342 49.0279C366.282 49.0279 366.176 49.4222 366.812 50.9992C367.448 52.5763 367.395 52.9706 366.441 52.9706C364.638 52.9706 363.684 54.9419 364.002 58.096C364.161 59.8702 363.896 60.8559 363.154 60.8559C362.412 60.8559 362.147 59.8702 362.359 57.8989C362.571 56.1247 362.359 54.9419 361.829 54.9419C361.352 54.9419 360.981 55.7304 360.981 56.7161C360.981 57.7017 360.238 58.096 359.337 57.5046C358.33 56.9132 357.8 57.3075 358.012 58.4903C358.648 62.4329 356.846 64.6014 351.969 65.7842C342.851 67.9527 340.571 68.9383 340.041 71.1068C339.67 72.4867 342.215 72.881 348.788 72.2896C353.877 71.6982 357.535 71.8953 356.952 72.6839C356.369 73.6695 353.983 74.4581 351.651 74.8523C347.092 75.4437 346.137 76.0351 346.137 78.795C346.137 79.7806 347.145 80.5692 348.417 80.5692C350.06 80.5692 350.431 81.1606 349.848 82.5405C349.159 84.1176 349.212 84.5118 350.007 84.5118C350.484 84.5118 350.908 83.7233 350.908 82.7376C350.908 79.5835 353.824 78.4007 356.21 80.372C357.853 81.752 358.754 81.752 359.231 80.1749C359.761 78.5978 360.132 78.9921 360.716 81.752C361.14 83.7233 361.511 86.0889 361.511 86.8774C361.511 87.666 362.041 88.6516 362.73 89.0459C363.578 89.6373 363.472 90.0315 362.2 90.2287C361.299 90.2287 360.397 89.6373 360.238 88.6516C359.867 86.6803 357.906 88.0602 356.846 91.0172C356.528 92.0029 355.52 92.3971 354.619 91.8057C353.771 91.0172 352.923 91.4115 352.764 92.2C352.393 94.5656 342.639 95.5513 337.815 93.9742C336.595 93.5799 335.694 93.9742 335.853 94.7627C336.012 95.5513 335.588 96.3398 334.899 96.3398C329.545 96.7341 316.292 95.5083 314.49 96.2968C313.217 96.8882 312.21 96.4939 312.21 95.7054C312.21 94.9169 310.355 94.7197 308.128 95.5083C305.849 96.2968 303.781 96.2968 303.463 95.5083C303.198 94.7197 301.767 94.5226 300.283 94.7197C296.572 95.7054 275.686 96.6911 275.527 96.0997ZM280.934 79.5405C280.934 78.5548 280.616 77.5692 280.191 77.5692C279.767 77.5692 279.237 78.5548 279.078 79.5405C278.919 80.7233 279.237 81.5118 279.82 81.5118C280.457 81.5118 280.934 80.7233 280.934 79.5405ZM283.584 79.5405C283.584 78.5548 283.213 77.5692 282.789 77.5692C282.365 77.5692 281.994 78.5548 281.994 79.5405C281.994 80.7233 282.365 81.5118 282.789 81.5118C283.213 81.5118 283.584 80.7233 283.584 79.5405ZM285.705 79.5405C285.705 78.5548 285.44 77.5692 285.122 77.5692C284.857 77.5692 284.75 78.5548 284.91 79.5405C285.069 80.7233 285.334 81.5118 285.493 81.5118C285.599 81.5118 285.705 80.7233 285.705 79.5405ZM289.681 79.5405C289.521 78.5548 289.15 77.5692 288.832 77.5692C288.567 77.5692 288.355 78.5548 288.355 79.5405C288.355 80.7233 288.726 81.5118 289.203 81.5118C289.628 81.5118 289.84 80.7233 289.681 79.5405ZM326.788 82.5405C326.47 83.1319 322.693 80.7969 322.534 79.8113L318.89 80.329C322.654 79.7376 326.205 82.3434 326.788 82.5405ZM260.259 77.5692C260.259 76.5835 259.464 75.5978 258.563 75.5978C257.238 75.5978 257.026 76.1892 257.609 77.5692C258.669 80.1319 260.259 80.1319 260.259 77.5692ZM341.048 80.372C341.578 82.1462 342.533 82.5405 343.805 81.5548C344.865 80.9634 345.607 79.9778 345.501 79.5835C345.077 77.8093 338.716 76.6265 338.716 78.2036C338.716 81.3577 339.458 82.5405 339.829 80.1749C340.147 78.4007 340.412 78.4007 341.048 80.372ZM230.308 75.5978C231.315 74.0208 231.315 73.8236 230.202 73.8236C229.513 73.6265 228.824 73.6265 228.612 73.4294C228.4 73.4294 228.135 74.2179 228.028 75.4007C227.816 77.9634 228.824 77.9634 230.308 75.5978ZM224.212 73.8236C224.212 72.838 223.576 72.2466 222.833 72.2466C221.879 72.2466 221.667 72.6408 222.144 73.8236C223.098 75.9921 224.212 75.9921 224.212 73.8236ZM226.067 73.6265C225.908 72.6408 225.537 71.6552 225.219 71.6552C224.954 71.6552 224.742 72.6408 224.742 73.6265C224.742 74.8093 225.113 75.5978 225.59 75.5978C226.014 75.5978 226.226 74.8093 226.067 73.6265ZM259.729 71.8523C259.729 69.6839 257.609 67.5154 256.867 69.0925C256.602 69.881 256.814 71.0638 257.397 71.8523C258.828 74.0208 259.729 74.0208 259.729 71.8523ZM332.302 73.4724L336.383 70.3183C336.383 70.3183 335.058 72.6839 332.302 73.4724C329.757 74.0638 316.817 71.5835 313.271 70.8667L332.302 73.4724ZM253.898 69.6839C253.474 68.6982 252.414 67.7125 251.512 67.7125C250.293 67.7125 250.081 68.3039 250.717 69.6839C251.141 70.6695 252.255 71.6552 253.103 71.6552C254.322 71.6552 254.534 71.0638 253.898 69.6839ZM268.052 70.4724C267.893 69.881 267.416 69.6839 267.045 70.2753C266.621 70.8667 266.78 71.458 267.363 71.458C267.946 71.6552 268.264 71.0638 268.052 70.4724ZM224.742 66.5297C224.742 66.1355 223.841 65.7412 222.78 65.9383C221.031 66.1355 220.925 66.3326 222.091 67.5154C223.31 68.8953 224.742 68.3039 224.742 66.5297ZM210.164 65.7412C210.376 64.5584 209.793 63.7699 208.732 63.7699C207.407 63.7699 207.195 64.3613 207.778 65.7412C208.785 68.3039 209.74 68.3039 210.164 65.7412ZM175.812 67.5584C175.653 66.967 175.176 66.7699 174.805 67.3613C174.381 67.9527 174.54 68.5441 175.123 68.5441C175.706 68.7412 176.025 68.1498 175.812 67.5584ZM181.538 63.7699C181.379 62.7842 180.902 61.7985 180.477 61.7985C180.053 61.7985 179.576 65.7842 179.417 66.7699C179.205 67.9527 179.682 65.7412 180.477 65.7412C181.273 65.7412 181.75 64.9527 181.538 63.7699ZM189.754 64.9527C189.754 63.1785 188.164 62.1928 187.899 63.7699C187.687 64.9527 188.058 65.7412 188.641 65.7412C189.277 65.7412 189.754 65.3469 189.754 64.9527ZM356.899 57.5046C356.528 57.1104 355.892 57.1104 355.573 57.5046C355.202 58.096 355.467 58.4903 356.21 58.4903C356.952 58.4903 357.217 58.096 356.899 57.5046ZM240.963 21.035C240.963 20.4436 240.751 19.458 240.433 18.8666C240.168 18.2752 240.963 20.0494 240.963 21.035C240.963 22.2178 240.168 21.8236 240.433 21.8236C240.751 21.8236 240.963 21.4293 240.963 21.035ZM303.039 18.2752C302.88 17.6838 302.403 17.4866 302.032 18.078C301.608 18.6694 301.767 19.2608 302.35 19.2608C302.933 19.458 303.251 18.8666 303.039 18.2752ZM201.576 15.7124C201.046 13.9382 201.576 13.9382 201.576 15.7124C201.788 16.6981 204.385 15.9096 201.576 15.7124ZM208.838 15.7124C208.838 13.3468 209.21 13.3468 208.838 15.7124C208.626 16.8952 207.725 15.9096 208.838 15.9096C209.899 15.9096 208.838 16.501 208.838 15.7124ZM213.132 13.9382C213.291 12.9526 212.602 15.9096 212.019 15.9096C211.383 15.9096 213.132 12.9526 213.132 13.9382C213.132 15.121 211.595 15.9096 212.019 15.9096C212.443 15.9096 212.973 15.121 213.132 13.9382Z" fill="#F6060A"/>
</svg>
