<svg width="120" height="33" viewBox="0 0 120 33" fill="none" xmlns="http://www.w3.org/2000/svg">
<path d="M59.9305 0.0416412C59.9579 0.0643463 60.0616 0.0719185 60.1745 0.0605659C60.2843 0.0492134 60.4551 0.056778 60.5557 0.0794868C60.6564 0.102196 61.0681 0.136257 61.4707 0.151394C61.8733 0.170319 62.3064 0.208162 62.4314 0.230871C62.6022 0.268717 62.9591 0.272499 63.8344 0.253576C66.2652 0.200592 67.4394 0.185453 69.2023 0.181669C70.8645 0.177885 71.078 0.181669 71.7337 0.261145C72.1271 0.306561 72.8347 0.370901 73.3044 0.401178C74.2072 0.461733 74.2377 0.465515 75.0276 0.552561C75.5705 0.616899 76.5922 0.787205 77.1748 0.915882C77.3852 0.961296 77.5834 0.987789 77.6536 0.972651C77.7207 0.957512 78.1385 1.0105 78.6784 1.10133C79.9471 1.30948 80.0691 1.32462 80.8621 1.36625C81.2738 1.38517 81.8137 1.44194 82.1492 1.49493C82.4664 1.54791 83.1465 1.64252 83.6589 1.70686C84.1713 1.7712 85.501 1.94908 86.6173 2.10425C88.7828 2.40323 89.3134 2.46757 90.4907 2.5584C91.5307 2.63787 91.9059 2.6795 92.8849 2.8044C93.8548 2.92929 94.5258 2.97849 95.6451 3.01255C96.4106 3.03526 96.7217 3.06175 97.17 3.14122C97.3896 3.17907 98.0362 3.22449 100.067 3.35316C101.327 3.43264 101.766 3.47805 102.34 3.58781C102.608 3.63701 102.971 3.69378 103.148 3.7127C103.325 3.73162 103.639 3.77704 103.849 3.8111C104.136 3.85651 104.337 3.86787 104.658 3.84894C104.999 3.82624 105.115 3.83381 105.237 3.87922C105.319 3.91328 105.423 3.93977 105.463 3.93977C105.502 3.93977 105.585 3.98897 105.646 4.04953C105.878 4.2766 106.076 4.36743 106.573 4.46962C107.122 4.58694 107.156 4.61343 107.268 4.99946C107.299 5.09407 107.345 5.24546 107.372 5.34007C107.479 5.68069 107.457 6.74416 107.345 6.88797C107.32 6.91446 107.241 6.94853 107.165 6.95609C107.043 6.97502 107.015 6.96367 106.948 6.87662C106.908 6.81985 106.841 6.66847 106.799 6.53979C106.756 6.41111 106.707 6.30515 106.686 6.30515C106.668 6.30515 106.616 6.40733 106.573 6.52844C106.43 6.95231 106.338 7.04314 106.051 7.04314C105.832 7.04314 105.737 7.1756 105.649 7.59948C105.631 7.69031 105.603 7.76221 105.588 7.76221C105.573 7.76221 105.524 7.84926 105.481 7.95523C105.426 8.08391 105.371 8.16338 105.307 8.19366C105.216 8.24286 105.216 8.24286 105.408 8.26935C105.515 8.28449 106.042 8.3791 106.579 8.48507C107.116 8.58726 107.814 8.71593 108.135 8.76513C108.863 8.87867 108.867 8.87867 109.748 9.23442C110.154 9.39716 110.571 9.54854 110.681 9.57125C110.791 9.59396 110.931 9.62424 110.995 9.63559C111.154 9.66587 111.334 9.87402 111.398 10.1011C111.425 10.1995 111.456 10.4266 111.465 10.6044C111.489 11.0548 111.422 11.3992 111.215 11.9139C111.032 12.3605 111.011 12.5043 111.111 12.5724C111.148 12.5951 111.37 12.6406 111.605 12.6708C111.877 12.7049 112.124 12.7617 112.267 12.8222C112.414 12.8828 112.679 12.9433 113.005 12.9887C113.63 13.0796 113.926 13.1818 114.478 13.4997C114.927 13.7608 115.043 13.863 115.134 14.0863C115.216 14.2831 115.354 14.3247 115.817 14.2906C116.11 14.2717 116.293 14.2831 116.69 14.3474C117.272 14.4382 117.971 14.5745 118.428 14.688C118.605 14.7297 118.782 14.7637 118.825 14.7637C119.053 14.7637 119.328 14.9719 119.575 15.3314C119.675 15.4752 119.709 15.5585 119.709 15.6531C119.709 15.7666 119.691 15.7893 119.489 15.9369C119.367 16.0278 119.172 16.2246 119.056 16.3722C118.937 16.5236 118.809 16.6598 118.773 16.6712C118.736 16.6863 118.657 16.6712 118.59 16.6333C118.526 16.5992 118.434 16.5728 118.385 16.5765C118.245 16.5841 118.193 16.55 118.074 16.3495C117.842 15.9559 117.574 15.9407 117.574 16.323V16.4479L117.513 16.3268C117.47 16.2359 117.418 16.1943 117.315 16.1602C117.196 16.1224 117.162 16.0883 117.062 15.9067C116.848 15.5055 116.726 15.5055 116.412 15.9029C116.296 16.0467 116.195 16.164 116.189 16.164C116.18 16.164 116.128 16.1375 116.073 16.1072C116.019 16.077 115.894 16.0353 115.796 16.0126C115.601 15.9634 115.561 15.9104 115.561 15.6796C115.561 15.5282 115.47 15.3314 115.399 15.3314C115.381 15.3314 115.314 15.3768 115.25 15.4336C115.146 15.5206 115.116 15.5282 115.018 15.4979C114.905 15.4639 114.905 15.4639 114.68 15.7591C114.433 16.0808 114.244 16.2284 114.015 16.2662C113.896 16.2851 113.829 16.3381 113.566 16.6106C113.396 16.7847 113.197 16.9739 113.121 17.0269C113.045 17.0799 112.932 17.1821 112.865 17.254C112.755 17.3751 112.737 17.3827 112.572 17.3675C112.417 17.3524 112.359 17.3221 112.109 17.1177C111.66 16.7506 111.492 16.7014 111.261 16.8642C110.992 17.0534 110.803 17.1442 110.556 17.2086C110.266 17.2805 109.995 17.2691 108.934 17.148C108.577 17.1064 108.144 17.0572 107.967 17.0345C107.79 17.0155 107.323 16.9815 106.93 16.9588C106.024 16.9096 105.594 17.2123 104.947 17.0723C104.408 16.9588 102.927 16.9974 102.294 16.6787C101.839 16.656 101.484 16.5561 101.393 16.5372C101.301 16.5183 101.242 16.3987 100.982 16.3987C100.723 16.4024 100.559 16.41 100.616 16.4176C100.674 16.4252 101.431 16.5425 102.294 16.6787C103.157 16.8112 104.353 16.9891 104.947 17.0723C105.542 17.1556 106.378 17.2805 106.799 17.3562C107.223 17.4281 108.04 17.5492 108.613 17.6211C109.19 17.693 109.763 17.7725 109.888 17.7914C110.013 17.8103 110.184 17.8368 110.269 17.8482C110.428 17.8709 110.84 17.9352 111.001 17.9617C111.05 17.9731 111.462 18.0412 111.916 18.1131C113.688 18.4083 115.421 18.7413 115.558 18.817C115.634 18.8586 115.768 18.9835 115.86 19.0971C115.948 19.2106 116.077 19.3393 116.141 19.3809C116.281 19.468 116.497 19.4793 116.58 19.3998C116.775 19.2144 116.888 19.4415 116.882 20.0092C116.879 20.3346 116.863 20.4293 116.784 20.6904C116.732 20.8531 116.632 21.0991 116.561 21.2354C116.29 21.7576 115.506 22.6054 115.171 22.7379C115.015 22.7984 114.982 22.7984 114.088 22.6773C113.024 22.5373 112.176 22.3935 111.919 22.3102C111.822 22.2799 111.7 22.2572 111.645 22.2648C111.593 22.2724 112.124 22.4162 112.822 22.5903C113.524 22.7643 114.161 22.9271 114.244 22.9574C114.329 22.9914 114.43 23.0633 114.491 23.1428C114.585 23.2639 114.594 23.298 114.603 23.5326C114.61 23.6878 114.594 23.8694 114.567 23.9906C114.512 24.229 114.533 24.282 114.707 24.3387C114.835 24.3804 115.076 24.6037 115.107 24.7058C115.119 24.7437 115.104 24.8232 115.076 24.8875C115.046 24.9594 115.021 25.1486 115.012 25.4098C114.997 25.7466 114.982 25.8337 114.927 25.9283C114.89 25.9888 114.86 26.0759 114.86 26.1213C114.86 26.25 114.597 26.5489 114.402 26.6398C114.122 26.7647 113.704 26.8101 112.99 26.7874C112.307 26.7684 112.084 26.7306 111.093 26.4808C110.224 26.2613 109.91 26.2348 109.702 26.3673C109.516 26.4846 109.315 26.8555 109.202 27.2907C109.077 27.7752 108.903 28.0476 108.677 28.1158C108.47 28.1763 107.592 28.3126 107.403 28.3126C107.067 28.3126 106.738 28.165 106.478 27.9038C106.369 27.7903 106.314 27.7638 106.17 27.7524C106.051 27.7411 105.966 27.7562 105.905 27.7941C105.801 27.8584 105.246 28.0476 105.155 28.0476C105.048 28.0476 104.926 27.9265 104.868 27.7676C104.81 27.62 104.804 27.6124 104.526 27.5216C104.17 27.4043 104.109 27.427 103.999 27.6881C103.913 27.8963 103.843 27.9341 103.694 27.8584C103.493 27.7524 103.404 27.4913 103.483 27.2302C103.532 27.0712 103.474 27.0258 103.169 26.9993L102.904 26.9766V26.8366C102.904 26.7003 102.898 26.6928 102.758 26.6436C102.678 26.6133 102.526 26.5906 102.416 26.5906C102.141 26.5944 102.004 26.6928 101.653 27.1431C101.495 27.3475 101.324 27.5329 101.278 27.5519C101.15 27.6124 101.001 27.6011 100.806 27.5216C100.479 27.3853 100.22 27.5178 100.128 27.8698C100.086 28.0439 99.9638 28.1233 99.7503 28.1233C99.6771 28.1233 99.5947 28.1347 99.5673 28.146C99.488 28.1839 99.5093 28.3883 99.6252 28.7667C99.7411 29.1338 99.7899 29.5161 99.7381 29.675C99.6984 29.8037 99.2897 30.0724 98.9878 30.167C98.8628 30.2049 98.5822 30.2578 98.3687 30.2806C98.0881 30.3108 97.96 30.3411 97.9112 30.3865C97.6092 30.6817 97.3774 30.8937 97.2585 30.9769C97.0328 31.1359 96.6424 31.2986 96.3374 31.3592C95.6756 31.4878 94.1628 31.6052 93.135 31.6052C92.6562 31.6052 92.6043 31.6203 92.3969 31.8171C92.3451 31.8625 92.1682 31.9647 92.0004 32.0366C91.7015 32.1691 91.6863 32.1729 91.2227 32.1729C89.96 32.1729 87.273 31.9836 85.5193 31.7755C82.2224 31.3819 80.5358 31.2608 76.4306 31.1321C75.4332 31.098 73.7649 31.0413 72.7249 30.9996C71.6849 30.958 70.5046 30.9239 70.102 30.9239C69.6994 30.9239 69.1291 30.8974 68.8363 30.8672C67.8908 30.7688 67.2076 30.7347 65.4661 30.6969C64.5267 30.6779 62.9347 30.6401 61.9251 30.6174C60.8729 30.5947 58.9271 30.5871 57.3502 30.6022C55.6301 30.6136 54.2515 30.6098 53.6476 30.5833C53.12 30.5606 51.2169 30.5266 49.4235 30.5076C45.849 30.4736 45.9191 30.4774 45.5562 30.2427C45.361 30.1178 45.2664 30.1027 45.1445 30.1822C44.7266 30.4509 44.1075 30.5038 43.1834 30.3562C42.9516 30.3184 42.8662 30.3222 42.6374 30.3714C42.488 30.4054 42.3233 30.4319 42.2653 30.4319C42.2104 30.4319 42.0488 30.4471 41.9054 30.4698C41.5974 30.5152 37.4434 30.6477 34.7076 30.6969C33.6432 30.7158 32.2829 30.7536 31.6882 30.7801C30.2303 30.8445 29.5197 30.8407 29.172 30.7612C28.8304 30.6817 28.44 30.6817 27.9063 30.7536C27.3726 30.8293 26.973 30.8369 26.6711 30.7763C26.4728 30.7347 26.3203 30.7347 25.8476 30.7726C25.5274 30.799 25.1309 30.818 24.9631 30.8142C24.7954 30.8104 24.1091 30.8066 23.4382 30.8066C22.4957 30.8104 22.1633 30.8218 21.9742 30.8634C21.8278 30.8974 21.4588 30.9277 21.0592 30.9391C20.6902 30.9466 20.0527 30.9921 19.641 31.0337C18.8999 31.1132 18.2411 31.1699 17.4451 31.2267C17.2194 31.2418 16.9845 31.2759 16.9266 31.2986C16.8656 31.3251 16.5484 31.3478 16.1641 31.3554C15.8042 31.3629 15.4535 31.3857 15.3833 31.4121C15.2064 31.4727 14.5476 31.5673 14.0383 31.6014C13.8004 31.6203 13.593 31.6468 13.5716 31.6619C13.535 31.6884 12.4005 31.7679 12.068 31.7641C11.9094 31.7641 11.8423 31.7452 11.7966 31.6922C11.7325 31.6203 11.7326 31.6468 11.7905 31.0186C11.8119 30.7839 11.7509 30.6477 11.6655 30.7347C11.638 30.7612 11.5862 30.852 11.5526 30.9353C11.5008 31.064 11.4947 31.1283 11.513 31.3819C11.5374 31.7301 11.5191 31.7565 11.2324 31.7565C11.1348 31.7565 10.903 31.783 10.72 31.8133C10.5248 31.8474 10.1405 31.8701 9.80499 31.8701C9.48475 31.8701 8.84731 31.8966 8.38677 31.9306C7.83169 31.9685 6.94416 31.9912 5.76385 31.995C4.05589 32.0025 3.95829 31.9988 3.46115 31.9155C3.17446 31.8663 2.86031 31.8057 2.75967 31.7755C2.52177 31.7073 2.03989 31.4992 1.98193 31.4349C1.95753 31.4084 1.92094 31.397 1.89959 31.4046C1.82944 31.4349 1.56105 31.2267 1.40855 31.0223C1.23471 30.7839 1.12186 30.519 1.0517 30.1859C0.984612 29.8567 0.993759 29.675 1.11271 29.0733C1.4116 27.5594 1.89349 26.6776 2.66817 26.231C2.95486 26.0645 3.27816 25.9585 3.40321 25.9888C3.452 26.0002 3.6106 25.9737 3.75394 25.9321C3.89729 25.8904 4.18398 25.8299 4.39442 25.792C4.66282 25.7504 4.79092 25.7088 4.83362 25.6633C4.91901 25.5687 5.19045 25.4855 5.6571 25.4211C6.29453 25.3265 6.35553 25.3152 6.44093 25.2584C6.55988 25.1865 6.59647 25.0767 6.59953 24.774C6.60258 24.4674 6.55682 24.3425 6.39518 24.2366C6.30673 24.176 6.14508 24.1646 4.62012 24.1457C2.85422 24.1192 2.61937 24.1003 2.05819 23.9186C1.70744 23.8089 1.45735 23.6462 1.23775 23.3888C0.993759 23.105 0.81382 22.7114 0.826019 22.4729C0.829071 22.3859 0.80162 22.1891 0.761971 22.0377C0.697922 21.7766 0.697914 21.7539 0.743668 21.5836C0.771118 21.4852 0.798569 21.2543 0.804665 21.0726C0.816864 20.8039 0.835167 20.6942 0.911415 20.4898C1.05171 20.1227 1.04562 20.1038 0.746719 19.7897C0.347183 19.3734 0.151985 19.0327 0.0452347 18.5672C-0.0371094 18.2266 -0.00660706 17.6514 0.115387 17.1859C0.167236 16.9891 0.231285 16.709 0.258736 16.5614C0.334984 16.1602 0.46917 15.7931 0.704018 15.3541C0.951057 14.8848 1.05171 14.7789 1.4299 14.5518C1.75929 14.3588 2.03378 14.2566 2.42417 14.196C2.91521 14.1165 2.94571 14.0901 2.75357 13.8857C2.44247 13.5526 2.24728 13.2953 2.13138 13.0531L2.00633 12.7882L2.03683 12.4135C2.07343 12.001 2.04294 11.6187 1.96364 11.4257C1.92704 11.3349 1.92094 11.2895 1.94534 11.2403C1.96364 11.2062 1.98804 11.1154 1.99718 11.0397C2.00938 10.964 2.04598 10.8845 2.07648 10.8656C2.14663 10.8164 2.19543 10.6044 2.19543 10.3433C2.19543 10.0973 2.32963 9.64316 2.50043 9.31768C2.67427 8.98464 2.66817 8.85596 2.46992 8.54941C2.21983 8.16717 2.18628 8.00821 2.17103 7.23237C2.15883 6.55114 2.18018 6.32407 2.28998 5.8737C2.32047 5.74124 2.34793 5.53687 2.34793 5.41198C2.34793 4.9162 2.61022 4.18199 2.92741 3.78839C3.11956 3.54996 3.44285 3.29639 3.55264 3.29639C3.58315 3.29639 3.68379 3.23962 3.77834 3.16772C3.87289 3.09581 4.04369 2.99741 4.15653 2.95199C4.27243 2.90658 4.36088 2.84603 4.36088 2.81953C4.36088 2.63409 5.26975 2.33889 6.32808 2.18372C7.06615 2.07397 8.15498 1.96421 8.31053 1.97935C8.39898 1.99071 8.59417 2.07018 8.78326 2.17237C9.47559 2.54704 10.1771 2.64923 11.2842 2.53569C13.2606 2.33132 14.0749 2.27077 15.0356 2.25184C16.0787 2.22914 16.405 2.214 16.8351 2.1648C17.0272 2.14588 17.4115 2.10803 17.689 2.08532C17.9666 2.06262 18.3082 2.02477 18.4515 1.99828C18.5949 1.97557 18.8053 1.95665 18.9243 1.95665C19.3696 1.96043 23.5327 1.63117 23.7401 1.5744C24.0115 1.49871 24.2281 1.50249 24.3592 1.57819C24.4568 1.63874 24.4721 1.63874 24.5758 1.5744C24.6459 1.53277 24.8137 1.49493 25.0089 1.476C25.1858 1.46087 25.3779 1.4268 25.4359 1.40788C25.5883 1.3549 26.2898 1.23 26.8083 1.16188C27.4427 1.07862 27.9673 1.03699 29.4313 0.949944C30.1449 0.908314 30.9959 0.859114 31.3222 0.836405C31.6485 0.817482 32.3561 0.783422 32.8929 0.760714C33.4297 0.738007 34.4667 0.681238 35.1956 0.628254C37.3885 0.47687 38.0991 0.446594 39.2063 0.473085C41.1064 0.514717 41.7651 0.507145 42.1494 0.435238C42.3751 0.393608 42.6649 0.370899 42.9577 0.370899C44.385 0.382254 45.1353 0.374685 45.4891 0.340624C45.7056 0.321701 46.5017 0.291426 47.252 0.272503C48.0022 0.25358 48.6824 0.227087 48.7586 0.211948C48.8837 0.189241 51.2352 0.113548 52.1898 0.102192C52.4307 0.0984077 52.5588 0.083271 52.5832 0.0492096C52.6351 -0.0113449 59.8573 -0.0189133 59.9305 0.0416412ZM108.135 17.5577C108.165 17.5652 100.372 16.3873 100.409 16.3797C109.202 16.6106 100.424 16.3646 100.357 16.3646C109.491 17.2086 108.107 17.5463 108.135 17.5577Z" fill="#F6060A"/>
</svg>
