<svg width="271" height="51" viewBox="0 0 271 51" fill="none" xmlns="http://www.w3.org/2000/svg">
<path d="M69.783 19.9019L71.03 19.9019L71.03 22.3913L69.783 22.3913L69.783 50.2724L64.8438 50.2724L64.8438 0.23584L69.783 0.23584L69.783 19.9019Z" fill="#F6060A"/>
<path d="M72.2744 19.9019L71.0273 19.9019L71.0273 22.3913L72.2744 22.3913L72.2744 50.2724L77.2136 50.2724L77.2136 0.23584L72.2744 0.23584L72.2744 19.9019Z" fill="#F6060A"/>
<path fill-rule="evenodd" clip-rule="evenodd" d="M4.99864 19.6661L4.99864 9.83318L4.99864 0.000248966L2.49932 0.000248958L0 0.00024895L8.74866e-08 25.0183L1.74972e-07 50.0363L2.49932 50.0363L4.99864 50.0363L4.99864 36.0957L4.99864 22.1554L6.30775 22.1554C6.8918 22.1554 7.32162 22.0969 7.63783 22.2446C8.59325 22.691 8.5112 25.022 8.5112 36.5511L8.5112 50.0363L11.0105 50.0363L13.5098 50.0365L13.4355 36.288L13.3612 22.5396L12.5044 21.7253L11.6476 20.9108L12.5047 20.096L13.3621 19.281L13.4361 9.6405L13.5098 4.37432e-08L11.0105 0.000248986L8.5112 0.000248978L8.5112 9.4212C8.5112 17.1689 8.5676 19.0698 7.71309 19.5276C7.38324 19.7044 6.91766 19.6661 6.26074 19.6661L4.99864 19.6661Z" fill="#F6060A"/>
<path fill-rule="evenodd" clip-rule="evenodd" d="M29.9076 25.0187L29.9076 50.037L27.4098 50.037L24.9121 50.037L24.9121 37.5901L24.9121 25.1432L23.1571 25.1432L21.4019 25.1432L21.4019 37.5901L21.4019 50.037L18.8367 50.037C17.3065 50.037 16.2715 49.9364 16.2715 49.788C16.2715 49.6511 16.393 49.5391 16.5415 49.5391C16.9633 49.5391 16.9095 0.688303 16.4875 0.299213C16.2356 0.0669546 17.6907 0.00048829 23.0355 0.000488323L29.9076 0.000488366L29.9076 25.0187ZM21.4019 22.6538L21.4019 12.5718L21.4019 2.48987L23.1571 2.48987L24.9121 2.48987L24.9121 12.5718L24.9121 22.6538L23.1571 22.6538L21.4019 22.6538Z" fill="#F6060A"/>
<path fill-rule="evenodd" clip-rule="evenodd" d="M62.0821 25.0187L62.0821 50.037L59.6075 50.037L57.1328 50.037L57.1328 37.5901L57.1328 25.1432L55.394 25.1432L53.6551 25.1432L53.6551 37.5901L53.6551 50.037L51.1137 50.037C49.5978 50.037 48.5723 49.9364 48.5723 49.788C48.5723 49.6511 48.6926 49.5391 48.8398 49.5391C49.2576 49.5391 49.2043 0.688303 48.7862 0.299213C48.5366 0.0669546 49.9784 0.00048829 55.2736 0.000488323L62.0821 0.000488365L62.0821 25.0187ZM53.6551 22.6538L53.6551 12.5718L53.6551 2.48987L55.394 2.48987L57.1328 2.48987L57.1328 12.5718L57.1328 22.6538L55.394 22.6538L53.6551 22.6538Z" fill="#F6060A"/>
<path d="M45.7267 9.76671L45.6507 19.5327L44.9396 20.222L44.2287 20.9113L44.9421 21.603L45.6554 22.2949L45.7291 36.1657L45.8029 50.037L39.2373 50.0368L32.6719 50.0368L32.6719 37.092L32.6719 24.1474L35.1506 24.1474L37.6295 24.1474L37.6295 35.8475L37.6295 47.5473L39.2373 47.5473L40.8453 47.5473L40.8453 35.1504C40.8453 25.8403 40.7651 22.6791 40.5235 22.4546C40.3468 22.2903 39.563 22.1559 38.7818 22.1559L37.3615 22.1559L37.3615 20.9113L37.3615 19.6666L38.7818 19.6666C39.563 19.6666 40.3468 19.5322 40.5235 19.3679C40.7608 19.1476 40.8453 16.8952 40.8453 10.7796L40.8453 2.49009L39.2373 2.49009L37.6295 2.49009L37.6295 10.0826L37.6295 17.6751L35.1506 17.6751L32.6719 17.6751L32.6719 8.83793L32.6719 0.000737232L39.2373 0.000737272L45.8029 0.000488363L45.7267 9.76671Z" fill="#F6060A"/>
<path fill-rule="evenodd" clip-rule="evenodd" d="M93.4156 41.3239L93.4982 41.2718L93.4982 10.7798L85.039 10.7051L85.1207 5.35279L85.2023 0.000488314L82.5394 0.000737247C80.4685 0.000986181 79.9483 0.0674511 80.1979 0.299705C80.616 0.688538 80.6686 49.1742 80.2514 49.414C79.3635 49.9248 80.5297 50.0364 86.7411 50.0368L93.4982 50.037L93.4156 45.4902L93.4156 41.3239ZM85.0685 47.5471L85.0685 30.3707L85.0685 13.1944L86.8078 13.1944L88.5474 13.1944L88.5474 30.3707L88.5474 47.5471L86.8078 47.5471L85.0685 47.5471Z" fill="#F6060A"/>
<path d="M123.788 17.6795L123.788 8.84L123.788 0.000488415L113.041 0.000488348L102.295 0.000488281L102.295 8.84L102.295 17.6795L104.78 17.6795L107.265 17.6795L107.265 10.085L107.265 2.49049L109.011 2.49049L110.758 2.49049L110.758 25.882C110.758 41.2075 110.665 49.3262 110.489 49.4271C109.729 49.8629 110.474 50.0496 112.974 50.0496L115.728 50.0496L115.657 26.2701L115.585 2.49049L117.201 2.49049L118.817 2.49049L118.817 10.085L118.817 17.6795L121.302 17.6795L123.788 17.6795Z" fill="#F6060A"/>
<path fill-rule="evenodd" clip-rule="evenodd" d="M140.19 24.5906C140.142 40.9733 140.21 49.2651 140.393 49.4335C140.996 49.9891 140.557 50.0998 138.031 50.0316L135.394 49.9604L135.324 37.5638L135.254 25.1673L133.636 25.1673L132.019 25.1673L131.949 37.5638L131.879 49.9604L129.242 50.0316C127.553 50.0774 126.605 50.0102 126.605 49.8447C126.605 49.7028 126.728 49.5866 126.879 49.5866C127.061 49.5866 127.128 41.3558 127.081 24.7934L127.011 0.000488284L133.636 0.000488325L140.261 0.000488366L140.19 24.5906ZM132.014 22.6755L132.014 12.5839L132.014 2.49225L133.636 2.49225L135.259 2.49225L135.259 12.5839L135.259 22.6755L133.636 22.6755L132.014 22.6755Z" fill="#F6060A"/>
<path d="M165.074 17.6795L165.074 8.84L165.074 0.000488416L154.264 0.000488349L143.453 0.000488281L143.453 8.84L143.453 17.6795L145.953 17.6795L148.453 17.6795L148.453 10.085L148.453 2.49049L150.21 2.49049L151.966 2.49049L151.966 25.882C151.966 41.2075 151.873 49.3262 151.696 49.4271C150.931 49.8629 151.682 50.0496 154.196 50.0496L156.966 50.0496L156.895 26.2701L156.823 2.49049L158.449 2.49049L160.074 2.49049L160.074 10.085L160.074 17.6795L162.574 17.6795L165.074 17.6795Z" fill="#F6060A"/>
<path d="M173.288 27.6395L173.288 13.82L173.288 0.000488315L170.793 0.000488299L168.297 0.000488284L168.371 14.7353C168.42 24.5414 168.353 29.5556 168.169 29.7255C168.017 29.8653 167.893 30.0699 167.893 30.1794C167.893 30.2889 169.835 30.3785 172.209 30.3785L176.525 30.3785L176.525 38.8446L176.525 47.3106L174.907 47.3106L173.288 47.3106L173.288 39.7161L173.288 32.1216L170.793 32.1214L168.297 32.1214L168.375 40.8364C168.427 46.7335 168.362 49.5515 168.172 49.5515C168.019 49.5515 167.893 49.6636 167.893 49.8007C167.893 49.9602 170.41 50.0496 174.907 50.0496C178.764 50.0496 181.921 49.96 181.921 49.8505C181.921 49.7407 181.797 49.5374 181.647 49.3987C181.465 49.2304 181.397 40.9444 181.445 24.5731L181.516 0.000488366L179.021 0.000488351L176.525 0.000488335L176.525 13.82L176.525 27.6395L174.907 27.6395L173.288 27.6395Z" fill="#F6060A"/>
<path fill-rule="evenodd" clip-rule="evenodd" d="M212.545 39.3423L212.545 19.6713L212.545 0.000488417L201.67 0.000488349L190.795 0.000488281L190.795 19.6713L190.795 39.3423L195.039 39.3423L199.283 39.3423L199.201 44.6959L199.119 50.0496L201.67 50.0496L204.221 50.0496L204.139 44.6959L204.057 39.3423L208.301 39.3423L212.545 39.3423ZM204.087 19.6713L204.087 36.8522L205.832 36.8522L207.577 36.8522L207.577 19.6713L207.577 2.49047L205.832 2.49047L204.087 2.49047L204.087 19.6713ZM195.763 36.8522L195.763 19.6713L195.763 2.49047L197.508 2.49047L199.253 2.49047L199.253 19.6713L199.253 36.8522L197.508 36.8522L195.763 36.8522Z" fill="#F6060A"/>
<path d="M228.855 0.498491C229.005 0.498491 229.131 0.38644 229.131 0.249488C229.131 0.0898795 226.657 0.000488352 222.242 0.000488324C215.907 0.000488285 214.736 0.110547 215.619 0.62299C216.032 0.863026 215.979 49.3619 215.566 49.7507C215.319 49.9831 216.746 50.0496 221.99 50.0496L228.732 50.0496L228.732 39.5916L228.732 29.1336L226.283 29.1336L223.831 29.1336L223.831 38.3465L223.831 47.5596L222.242 47.5596L220.652 47.5596L220.652 34.8606L220.652 22.1615L222.242 22.1615L223.831 22.1615L223.831 24.6515L223.831 27.1416L226.283 27.1418L228.732 27.1423L228.647 23.6558C228.589 21.2841 228.651 20.1695 228.844 20.1695C229.001 20.1695 229.131 20.0575 229.131 19.9205C229.131 19.7649 227.54 19.6715 224.892 19.6715L220.652 19.6715L220.652 11.081L220.652 2.49049L222.242 2.49049L223.831 2.49049L223.831 10.2095L223.831 17.9285L226.283 17.9288L228.732 17.9288L228.656 9.21375C228.604 3.31668 228.669 0.498491 228.855 0.498491Z" fill="#F6060A"/>
<path d="M245.336 17.9285L245.336 8.9645L245.336 0.000488365L238.644 0.000488323L231.951 0.000488281L231.951 25.025L231.951 50.0496L238.644 50.0496L245.336 50.0496L245.336 37.1015L245.336 24.1534L242.86 24.1534L240.382 24.1534L240.382 35.8566L240.382 47.5596L238.644 47.5596L236.903 47.5596L236.903 25.025L236.903 2.49049L238.644 2.49049L240.382 2.49049L240.382 10.2095L240.382 17.9285L242.86 17.9285L245.336 17.9285Z" fill="#F6060A"/>
<path d="M270.14 0.498491C270.293 0.498491 270.418 0.38644 270.418 0.249488C270.418 0.0873897 266.529 0.000488396 259.287 0.000488351C252.044 0.000488306 248.154 0.0873896 248.154 0.249488C248.154 0.38644 248.28 0.49849 248.432 0.49849C248.62 0.49849 248.685 3.31668 248.634 9.21375L248.558 17.9288L251.038 17.9288L253.52 17.9285L253.52 10.2095L253.52 2.49049L255.131 2.49049L256.744 2.49049L256.675 26.2701L256.603 50.0496L259.153 50.0496L261.7 50.0496L261.629 26.2701L261.559 2.49049L263.307 2.49049L265.054 2.49049L265.054 10.2095L265.054 17.9285L267.535 17.9288L270.017 17.9288L269.939 9.21375C269.887 3.31668 269.952 0.498491 270.14 0.498491Z" fill="#F6060A"/>
</svg>
