<svg width="382" height="748" viewBox="0 0 382 748" fill="none" xmlns="http://www.w3.org/2000/svg">
<path d="M381.121 44.0502L381.121 593.347C381.122 595.939 380.265 598.467 378.668 600.58C377.072 602.693 374.815 604.286 372.212 605.139C366.893 606.881 362.283 610.137 359.02 614.454C355.758 618.771 354.005 623.935 354.005 629.231C354.005 634.527 355.758 639.692 359.02 644.009C362.283 648.326 366.893 651.581 372.212 653.324C374.814 654.178 377.069 655.772 378.665 657.884C380.262 659.997 381.12 662.524 381.121 665.115L381.121 748.128L-0.000915527 748.128L-0.000911899 665.115C-0.00381096 662.524 0.851719 659.996 2.44684 657.883C4.04197 655.77 6.29746 654.176 8.9 653.324C14.2227 651.585 18.8375 648.331 22.1033 644.013C25.3691 639.696 27.1239 634.529 27.1239 629.231C27.1239 623.933 25.3691 618.767 22.1033 614.449C18.8375 610.132 14.2227 606.878 8.9 605.139C6.29877 604.284 4.04462 602.69 2.44984 600.577C0.855018 598.465 -0.00139716 595.938 -0.000908762 593.347L-0.000884751 44.0502C6.15118 44.0502 12.243 42.9108 17.9267 40.6969C23.6104 38.4831 28.7746 35.2384 33.1244 31.1478C37.4742 27.0573 40.9244 22.2012 43.278 16.8569C45.6315 11.5125 46.8423 5.78447 46.8413 4.64233e-05L334.279 5.89876e-05C334.278 5.78448 335.489 11.5125 337.842 16.8569C340.196 22.2012 343.646 27.0573 347.996 31.1478C352.346 35.2384 357.51 38.4831 363.193 40.6969C368.877 42.9108 374.969 44.0502 381.121 44.0502ZM341.453 631.356C343.017 630.085 342.862 628.554 341.975 627.727C341.762 627.524 341.509 627.364 341.229 627.256C340.949 627.148 340.648 627.095 340.346 627.099L313.008 627.099C311.444 628.378 311.607 629.901 312.487 630.736C312.7 630.936 312.955 631.094 313.234 631.201C313.514 631.307 313.814 631.36 314.115 631.356L341.453 631.356ZM296.492 631.356C298.048 630.085 297.901 628.554 297.014 627.727C296.801 627.524 296.548 627.364 296.268 627.256C295.988 627.148 295.687 627.095 295.385 627.099L268.047 627.099C266.491 628.378 266.646 629.901 267.534 630.736C267.748 630.936 268.002 631.094 268.281 631.201C268.561 631.307 268.861 631.36 269.162 631.356L296.492 631.356ZM251.523 631.356C253.095 630.085 252.932 628.554 252.053 627.727C251.84 627.525 251.586 627.365 251.306 627.257C251.026 627.149 250.726 627.096 250.424 627.099L223.094 627.099C221.522 628.378 221.685 629.901 222.573 630.736C222.786 630.936 223.041 631.094 223.32 631.201C223.6 631.307 223.9 631.36 224.201 631.356L251.523 631.356ZM206.571 631.356C208.126 630.085 207.979 628.554 207.084 627.727C206.872 627.523 206.618 627.363 206.338 627.255C206.058 627.147 205.757 627.094 205.455 627.099L178.117 627.099C176.561 628.378 176.708 629.901 177.604 630.736C177.817 630.937 178.071 631.095 178.351 631.202C178.631 631.308 178.93 631.361 179.232 631.356L206.571 631.356ZM161.593 631.356C163.165 630.085 163.002 628.554 162.122 627.727C161.91 627.524 161.656 627.364 161.377 627.256C161.097 627.148 160.796 627.095 160.494 627.099L133.156 627.099C131.6 628.378 131.755 629.901 132.643 630.736C132.856 630.936 133.111 631.094 133.39 631.201C133.67 631.307 133.97 631.36 134.271 631.356L161.593 631.356ZM43.2581 627.099C41.7026 628.378 41.8492 629.901 42.745 630.736C42.9583 630.937 43.2124 631.095 43.4923 631.202C43.7721 631.308 44.0718 631.361 44.3737 631.356L71.7119 631.356C73.2673 630.085 73.1207 628.554 72.2249 627.727C72.0132 627.523 71.7596 627.363 71.4795 627.255C71.1995 627.147 70.8988 627.094 70.5962 627.099L43.2581 627.099ZM88.2272 627.099C86.6555 628.378 86.8183 629.901 87.6978 630.736L87.7712 630.789C88.1874 631.153 88.7342 631.355 89.3022 631.356L116.632 631.356C118.204 630.085 118.041 628.554 117.162 627.727C116.768 627.357 116.243 627.137 115.687 627.107C115.644 627.103 115.601 627.103 115.557 627.107L88.2272 627.099Z" fill="#161616"/>
</svg>
