<svg width="729" height="30" viewBox="0 0 729 30" fill="none" xmlns="http://www.w3.org/2000/svg">
<path d="M540.839 29.8548C540.631 29.7954 523.878 29.4985 503.587 29.2609C483.295 29.0234 463.42 28.7858 459.362 28.7264C455.408 28.6671 425.648 28.4295 393.286 28.1326C340.321 27.7168 323.047 27.6575 285.587 27.7168C279.343 27.7762 267.793 27.7762 260.093 27.7762C252.392 27.7168 238.553 27.7168 229.396 27.7168C220.239 27.7168 211.81 27.7168 210.665 27.7168C209.521 27.7168 172.268 27.7168 127.94 27.7762C62.0717 27.8356 45.6306 27.6575 37.9304 27.0042C32.8316 26.5291 25.3395 26.054 21.2812 25.9946C13.6851 25.8758 8.27409 25.2225 7.33758 24.3911C7.02541 24.0942 5.67266 23.5003 4.31992 23.1439C1.9266 22.4313 1.9266 22.3719 3.69558 21.2435C4.84021 20.5309 5.04832 20.1151 4.21586 20.1151C3.48746 20.1151 3.27935 19.8776 3.59152 19.5212C3.90369 19.1649 5.46455 18.9274 7.02541 18.9274C9.7309 18.9274 9.7309 18.9274 5.88078 17.4427C3.59152 16.5518 1.82255 15.2453 1.40632 14.2951C1.09414 13.4042 0.573859 12.2165 0.261687 11.682C0.0535725 11.0881 0.365744 10.613 1.09414 10.613C1.9266 10.613 1.9266 10.3754 0.990088 9.72216C0.261687 9.18767 -0.154542 8.71256 0.0535725 8.65317C0.261687 8.5344 2.44689 7.76235 4.84021 6.87152C7.33758 5.98069 9.31467 4.9117 9.31467 4.4366C9.31467 3.96149 10.9796 3.48638 13.7891 3.30822C16.1824 3.07066 20.2407 2.65494 22.8421 2.29861C33.1438 0.932681 43.5495 0.516962 78.5127 0.160632C110.458 -0.13631 116.181 -0.0769216 124.818 0.813904C134.287 1.82351 186.004 2.17984 341.049 2.29861C346.46 2.29861 348.437 2.47678 348.333 3.07066C348.125 3.54577 349.582 3.84271 352.704 3.9021C355.305 4.02088 359.779 4.37721 362.693 4.73354C367.272 5.32742 368.416 5.26803 370.497 4.4366C371.85 3.9021 372.37 3.48638 371.642 3.48638C371.018 3.48638 370.393 3.24883 370.393 2.8925C370.393 2.59556 371.538 2.29861 372.995 2.29861C374.452 2.29861 375.596 2.65494 375.596 3.07066C375.596 4.02088 380.175 4.13965 418.364 4.25843C440.216 4.37721 446.355 4.55537 447.812 5.20865C448.956 5.74314 450.934 5.92131 454.159 5.68375C456.761 5.4462 459.05 5.56498 459.362 5.86192C460.195 6.63397 464.773 6.63397 465.293 5.86192C465.502 5.50559 468.623 5.14926 472.369 5.14926C476.532 5.08987 479.653 4.73354 480.59 4.19904C481.63 3.60516 483.191 3.48638 485.793 3.84271C487.874 4.08027 491.62 4.31782 494.221 4.37721C496.823 4.4366 499.84 4.73354 500.881 4.97109C502.234 5.32742 503.066 5.20865 503.378 4.79293C503.795 3.96149 513.992 3.78332 513.992 4.55537C513.992 4.85232 515.865 5.03048 518.155 5.03048C520.444 4.97109 522.421 5.20865 522.629 5.50559C522.837 5.80253 525.751 5.98069 529.185 5.92131C537.613 5.68375 539.278 5.56498 540.839 5.03048C542.712 4.37721 575.49 4.37721 576.323 5.08987C577.155 5.80253 590.995 5.92131 590.995 5.20865C590.995 4.9117 592.972 4.67415 595.469 4.67415C598.695 4.67415 599.423 4.85232 598.279 5.26803C597.134 5.68375 597.654 5.86192 600.568 5.86192C603.169 5.86192 604.73 6.21825 605.459 6.93091C606.291 7.70296 606.707 7.76235 607.748 7.22785C608.788 6.63397 609.413 6.63397 610.557 7.16846C611.494 7.64357 612.222 7.64357 612.638 7.22785C613.679 6.33703 618.986 5.92131 622.316 6.4558C623.877 6.75274 625.438 6.81213 625.75 6.63397C626.582 6.09947 635.843 6.09947 636.364 6.57458C636.676 6.81213 641.566 7.04969 647.29 7.04969C652.909 7.04969 657.591 7.28724 657.591 7.58418C657.591 7.88112 656.759 8.29684 655.822 8.41562C654.053 8.65317 654.053 8.71256 655.822 8.77195C656.759 8.77195 657.591 9.24706 657.591 9.72216C657.591 10.7318 659.776 10.9099 661.441 9.95972C662.274 9.48461 662.794 9.48461 663.21 9.95972C664.251 10.9099 666.956 10.7318 666.956 9.72216C666.956 8.71256 669.662 8.47501 670.286 9.48461C670.598 9.95972 671.743 9.95972 674.344 9.544C676.634 9.18767 678.715 9.18767 679.755 9.48461C680.692 9.78155 689.329 9.95972 698.902 9.84094C708.475 9.78155 717.84 9.84094 719.505 10.0191C722.523 10.3754 722.419 10.3754 718.048 10.7912C713.574 11.2663 713.47 11.2663 715.759 12.1571C717.216 12.751 719.713 13.0479 722.835 12.8697C725.749 12.751 727.83 12.9291 728.038 13.3449C728.454 14.0575 725.228 14.7702 721.066 14.7702C718.985 14.7702 718.777 14.889 720.026 15.3641C721.274 15.8392 721.17 15.9579 719.297 15.9579C715.759 15.9579 713.886 16.5518 714.511 17.502C714.823 18.0365 714.302 18.3335 712.846 18.3335C711.389 18.3335 710.869 18.0365 711.285 17.4427C711.701 16.9082 711.285 16.5518 710.244 16.5518C709.308 16.5518 708.579 16.7894 708.579 17.0863C708.579 17.3833 707.122 17.502 705.354 17.3239C703.376 17.1457 702.336 17.2645 702.752 17.6208C704.001 18.8086 700.463 19.4619 690.89 19.8182C672.992 20.4715 668.517 20.7684 667.477 21.4217C666.748 21.8374 671.743 21.9562 684.646 21.778C694.636 21.5998 701.816 21.6592 700.671 21.8968C699.526 22.1937 694.844 22.4313 690.265 22.5501C681.316 22.7282 679.443 22.9064 679.443 23.7378C679.443 24.0348 681.42 24.2723 683.918 24.2723C687.143 24.2723 687.872 24.4505 686.727 24.8662C685.375 25.3413 685.479 25.4601 687.039 25.4601C687.976 25.4601 688.808 25.2225 688.808 24.9256C688.808 23.9754 694.532 23.619 699.214 24.2129C702.44 24.6287 704.209 24.6287 705.145 24.1535C706.186 23.6784 706.914 23.7972 708.059 24.6287C708.891 25.2225 709.62 25.9352 709.62 26.1727C709.62 26.4103 710.66 26.7072 712.013 26.826C713.678 27.0042 713.47 27.123 710.973 27.1824C709.204 27.1824 707.435 27.0042 707.122 26.7072C706.394 26.1134 702.544 26.5291 700.463 27.4199C699.839 27.7168 697.861 27.8356 696.092 27.6575C694.427 27.4199 692.763 27.5387 692.45 27.7762C691.722 28.4889 672.576 28.7858 663.106 28.3107C660.713 28.192 658.944 28.3107 659.256 28.5483C659.568 28.7858 658.736 29.0234 657.383 29.0234C646.873 29.1422 620.859 29.6767 617.321 29.9142C614.824 30.0924 612.847 29.9736 612.847 29.7361C612.847 29.4985 609.205 29.4391 604.834 29.6767C600.36 29.9142 596.302 29.9142 595.677 29.6767C595.157 29.4391 592.347 29.3797 589.434 29.4391C582.15 29.7361 541.151 30.033 540.839 29.8548ZM551.453 24.8662C551.453 24.5693 550.828 24.2723 549.996 24.2723C549.164 24.2723 548.123 24.5693 547.811 24.8662C547.499 25.2225 548.123 25.4601 549.268 25.4601C550.516 25.4601 551.453 25.2225 551.453 24.8662ZM556.656 24.8662C556.656 24.5693 555.927 24.2723 555.095 24.2723C554.262 24.2723 553.534 24.5693 553.534 24.8662C553.534 25.2225 554.262 25.4601 555.095 25.4601C555.927 25.4601 556.656 25.2225 556.656 24.8662ZM560.818 24.8662C560.818 24.5693 560.298 24.2723 559.673 24.2723C559.153 24.2723 558.945 24.5693 559.257 24.8662C559.569 25.2225 560.09 25.4601 560.402 25.4601C560.61 25.4601 560.818 25.2225 560.818 24.8662ZM568.622 24.8662C568.31 24.5693 567.582 24.2723 566.957 24.2723C566.437 24.2723 566.021 24.5693 566.021 24.8662C566.021 25.2225 566.749 25.4601 567.686 25.4601C568.518 25.4601 568.934 25.2225 568.622 24.8662ZM641.462 24.8662C647.498 25.2225 660.609 24.5693 661.858 23.8566C663.21 23.0846 636.051 23.7378 633.866 24.5099C633.242 24.688 632.513 24.6287 632.201 24.3317C631.369 23.5597 615.136 23.916 613.679 24.7474C612.847 25.2225 615.968 25.3413 625.958 25.1038C633.346 24.9256 640.318 24.8068 641.462 24.8662ZM510.871 24.2723C510.871 23.9754 509.31 23.6784 507.541 23.6784C504.939 23.6784 504.523 23.8566 505.668 24.2723C507.749 25.0444 510.871 25.0444 510.871 24.2723ZM669.454 24.2129C670.494 24.7474 672.367 24.8662 674.865 24.5693C676.946 24.3911 678.403 24.0942 678.195 23.9754C677.362 23.4409 664.875 23.0846 664.875 23.5597C664.875 24.5099 666.332 24.8662 667.06 24.1535C667.685 23.619 668.205 23.619 669.454 24.2129ZM452.078 23.6784C454.055 23.2033 454.055 23.1439 451.87 23.1439C450.517 23.0846 449.165 23.0846 448.748 23.0252C448.332 23.0252 447.812 23.2627 447.604 23.619C447.188 24.3911 449.165 24.3911 452.078 23.6784ZM440.112 23.1439C440.112 22.847 438.863 22.6688 437.406 22.6688C435.533 22.6688 435.117 22.7876 436.053 23.1439C437.926 23.7972 440.112 23.7972 440.112 23.1439ZM443.754 23.0846C443.441 22.7876 442.713 22.4907 442.089 22.4907C441.568 22.4907 441.152 22.7876 441.152 23.0846C441.152 23.4409 441.881 23.6784 442.817 23.6784C443.65 23.6784 444.066 23.4409 443.754 23.0846ZM509.83 22.5501C509.83 21.8968 505.668 21.2435 504.211 21.7186C503.691 21.9562 504.107 22.3125 505.251 22.5501C508.061 23.2033 509.83 23.2033 509.83 22.5501ZM652.284 22.1343C659.568 21.8374 661.649 21.5998 660.297 21.1841C659.152 20.8278 654.886 20.7684 649.475 21.006C644.48 21.1841 634.699 21.4217 627.727 21.4217C618.258 21.4811 614.928 21.7186 614.928 22.2531C614.928 23.0252 629.288 22.9658 652.284 22.1343ZM498.384 21.8968C497.551 21.5998 495.47 21.3029 493.701 21.3029C491.308 21.3029 490.892 21.4811 492.14 21.8968C492.973 22.1937 495.158 22.4907 496.823 22.4907C499.216 22.4907 499.632 22.3125 498.384 21.8968ZM526.167 22.1343C525.855 21.9562 524.918 21.8968 524.19 22.0749C523.357 22.2531 523.67 22.4313 524.814 22.4313C525.959 22.4907 526.583 22.3125 526.167 22.1343ZM441.152 20.9466C441.152 20.8278 439.383 20.709 437.302 20.7684C433.868 20.8278 433.66 20.8872 435.949 21.2435C438.343 21.6592 441.152 21.4811 441.152 20.9466ZM412.536 20.709C412.953 20.3527 411.808 20.1151 409.727 20.1151C407.125 20.1151 406.709 20.2933 407.854 20.709C409.831 21.4811 411.704 21.4811 412.536 20.709ZM345.107 20.3527C344.795 20.1745 343.859 20.1151 343.13 20.2933C342.298 20.4715 342.61 20.6496 343.755 20.6496C344.899 20.709 345.524 20.5309 345.107 20.3527ZM356.346 20.1151C356.033 19.8182 355.097 19.5212 354.264 19.5212C353.432 19.5212 352.495 19.8182 352.183 20.1151C351.767 20.4715 352.704 20.709 354.264 20.709C355.825 20.709 356.762 20.4715 356.346 20.1151ZM372.474 20.4715C372.474 19.937 369.353 19.64 368.832 20.1151C368.416 20.4715 369.145 20.709 370.289 20.709C371.538 20.709 372.474 20.5902 372.474 20.4715ZM700.567 17.3239C699.839 17.2051 698.59 17.2051 697.965 17.3239C697.237 17.502 697.757 17.6208 699.214 17.6208C700.671 17.6208 701.191 17.502 700.567 17.3239ZM388.083 5.62436C388.083 5.4462 387.667 5.14926 387.042 4.97109C386.522 4.79293 386.002 4.9117 386.002 5.20865C386.002 5.56498 386.522 5.86192 387.042 5.86192C387.667 5.86192 388.083 5.74314 388.083 5.62436ZM594.845 5.50559C594.533 5.32742 593.596 5.26803 592.868 5.4462C592.035 5.62436 592.347 5.80253 593.492 5.80253C594.637 5.86192 595.261 5.68375 594.845 5.50559ZM320.03 3.60516C318.989 3.07066 300.675 3.01127 300.675 3.54577C300.675 3.78332 305.149 4.02088 310.768 4.02088C316.284 4.08027 320.446 3.9021 320.03 3.60516ZM328.77 3.60516C328.77 2.8925 322.735 2.77372 322.007 3.48638C321.59 3.84271 322.839 4.08027 325.024 4.08027C327.105 4.08027 328.77 3.84271 328.77 3.60516ZM333.453 3.48638C333.765 3.18944 333.141 2.8925 331.996 2.8925C330.747 2.8925 329.811 3.18944 329.811 3.48638C329.811 3.84271 330.435 4.08027 331.268 4.08027C332.1 4.08027 333.141 3.84271 333.453 3.48638ZM339.176 3.48638C339.176 3.18944 338.448 2.8925 337.615 2.8925C336.783 2.8925 336.054 3.18944 336.054 3.48638C336.054 3.84271 336.783 4.08027 337.615 4.08027C338.448 4.08027 339.176 3.84271 339.176 3.48638ZM346.46 3.48638C346.46 3.18944 345.42 2.8925 344.171 2.8925C342.194 2.8925 342.09 3.01127 343.338 3.48638C345.315 4.25843 346.46 4.25843 346.46 3.48638Z" fill="#F6060A"/>
</svg>
