<svg width="26" height="28" viewBox="0 0 26 28" fill="none" xmlns="http://www.w3.org/2000/svg">
<path fill-rule="evenodd" clip-rule="evenodd" d="M25.5352 13.6197C25.5352 21.1416 19.8189 27.2393 12.7676 27.2393C5.71624 27.2393 0 21.1416 0 13.6197C0 6.09773 5.71624 0 12.7676 0C19.8189 0 25.5352 6.09773 25.5352 13.6197ZM13.2251 10.0546C11.9833 10.6056 9.50135 11.746 5.77934 13.4759C5.17495 13.7323 4.85834 13.9831 4.82951 14.2283C4.7808 14.6428 5.26738 14.806 5.92998 15.0283C6.02011 15.0585 6.11349 15.0898 6.20923 15.123C6.86112 15.3491 7.73803 15.6135 8.1939 15.624C8.60742 15.6336 9.06895 15.4517 9.57849 15.0785C13.0561 12.5743 14.8512 11.3086 14.9639 11.2813C15.0434 11.2621 15.1536 11.2379 15.2283 11.3087C15.3029 11.3795 15.2956 11.5135 15.2877 11.5495C15.2395 11.7687 13.3295 13.6629 12.3411 14.6431C12.0329 14.9487 11.8143 15.1655 11.7697 15.215C11.6696 15.3259 11.5676 15.4308 11.4695 15.5316C10.8639 16.1544 10.4097 16.6214 11.4947 17.3841C12.016 17.7506 12.4332 18.0537 12.8495 18.3561C13.304 18.6863 13.7574 19.0156 14.344 19.4258C14.4934 19.5303 14.6361 19.6388 14.7752 19.7446C15.3041 20.1468 15.7794 20.5083 16.3665 20.4506C16.7077 20.4171 17.0601 20.0749 17.2391 19.0543C17.662 16.6422 18.4934 11.4161 18.6856 9.26247C18.7024 9.07379 18.6812 8.83231 18.6642 8.72631C18.6472 8.62031 18.6117 8.46928 18.4825 8.35747C18.3296 8.22506 18.0934 8.19714 17.9878 8.19913C17.5076 8.20815 16.7708 8.48143 13.2251 10.0546Z" fill="#F6060A"/>
</svg>
