<svg width="37" height="34" viewBox="0 0 37 34" fill="none" xmlns="http://www.w3.org/2000/svg">
<path d="M12.9067 0.727951C14.7879 1.55712 16.3358 3.08455 17.3835 5.09202L18.2884 6.81582L18.7885 5.52842C21.146 -0.232147 28.7424 -1.84685 33.6717 2.38629C34.3146 2.9318 35.1243 3.87008 35.4576 4.48105C36.0292 5.5066 36.0768 5.83391 36.2435 9.82703C36.4578 15.3257 36.5054 30.0981 36.2911 31.8656L36.1482 33.2184L34.6242 33.0657C26.6944 32.2801 20.2411 26.956 18.5504 19.7989L18.2884 18.6861L17.7169 20.5408C16.5977 24.1412 15.1451 26.3232 12.2875 28.7671C9.40616 31.2328 5.76276 32.7165 1.69073 33.0875L0 33.2402L0.0714388 20.1699C0.142773 7.16235 0.166621 7.09964 0.711971 5.66571L0.714392 5.65934C1.69073 3.06272 3.81009 1.09889 6.42953 0.335182C8.19169 -0.188507 11.3112 0.00787735 12.9067 0.727951Z" fill="white"/>
</svg>
