<svg width="23" height="24" viewBox="0 0 23 24" fill="none" xmlns="http://www.w3.org/2000/svg">
<path d="M10.985 0.00736618C10.9241 0.0570831 10.8876 0.293238 10.8876 0.541821C10.8876 0.790401 10.778 1.7723 10.644 2.72935C9.90115 7.96202 8.81727 9.72695 5.66304 10.8207C4.57916 11.1936 1.20572 11.8648 0.414124 11.8648C-0.26787 11.8648 -0.0608358 12.0885 0.694229 12.1631C1.1083 12.2128 2.08257 12.3619 2.84982 12.4987C8.15963 13.4433 9.58451 14.9223 10.5101 20.4657C10.644 21.2736 10.8024 22.3798 10.8389 22.9267C10.8876 23.4736 10.9607 23.9583 11.0216 23.9832C11.0703 24.0205 11.1434 23.7222 11.1921 23.3369C11.4356 21.112 11.935 18.3155 12.2516 17.3957C12.6291 16.3144 13.1893 15.3449 13.7739 14.7483C15.0161 13.4681 17.4883 12.6354 21.3976 12.1631C21.7752 12.1258 22.0918 12.0388 22.0918 11.9891C22.0918 11.9393 21.7264 11.8648 21.2758 11.815C20.8131 11.7653 19.851 11.6162 19.1081 11.4795C13.7252 10.4603 12.3368 8.90663 11.5087 2.97793C11.3626 1.94631 11.2042 0.840118 11.1555 0.516962C11.1068 0.181376 11.0337 -0.0423508 10.985 0.00736618Z" fill="#F6060A"/>
</svg>
