<svg width="16" height="16" viewBox="0 0 16 16" fill="none" xmlns="http://www.w3.org/2000/svg">
<path d="M7.86385 0C5.7283 0 5.46029 0.0093378 4.62153 0.0475075C3.78441 0.085841 3.213 0.21837 2.71302 0.412822C2.19584 0.613664 1.75713 0.882326 1.32006 1.31956C0.882663 1.75662 0.613998 2.19533 0.412499 2.71234C0.217553 3.21248 0.0848588 3.78404 0.0471802 4.62082C0.00982923 5.45957 0 5.72775 0 7.86328C0 9.99882 0.00950171 10.266 0.047508 11.1048C0.0860057 11.9419 0.218536 12.5133 0.412827 13.0132C0.613834 13.5304 0.882499 13.9691 1.31973 14.4062C1.75664 14.8436 2.19535 15.1129 2.71221 15.3137C3.21251 15.5082 3.78408 15.6407 4.62104 15.6791C5.4598 15.7172 5.72764 15.7266 7.86304 15.7266C9.99876 15.7266 10.266 15.7172 11.1047 15.6791C11.9418 15.6407 12.5139 15.5082 13.0142 15.3137C13.5312 15.1129 13.9693 14.8436 14.4062 14.4062C14.8436 13.9691 15.1122 13.5304 15.3137 13.0134C15.507 12.5133 15.6397 11.9417 15.6791 11.1049C15.7167 10.2662 15.7266 9.99882 15.7266 7.86328C15.7266 5.72775 15.7167 5.45974 15.6791 4.62099C15.6397 3.78388 15.507 3.21248 15.3137 2.7125C15.1122 2.19533 14.8436 1.75662 14.4062 1.31956C13.9688 0.882162 13.5314 0.6135 13.0137 0.412822C12.5124 0.21837 11.9407 0.085841 11.1036 0.0475075C10.2648 0.0093378 9.99778 0 7.86156 0H7.86385ZM7.15845 1.41703C7.36781 1.4167 7.60142 1.41703 7.86385 1.41703C9.96337 1.41703 10.2122 1.42456 11.0413 1.46224C11.808 1.4973 12.2241 1.62541 12.5013 1.73303C12.8682 1.87556 13.1299 2.04593 13.4049 2.32114C13.6801 2.59636 13.8505 2.85847 13.9933 3.22542C14.101 3.50227 14.2292 3.91837 14.2641 4.68504C14.3018 5.51396 14.31 5.76297 14.31 7.86148C14.31 9.95999 14.3018 10.209 14.2641 11.0379C14.2291 11.8046 14.101 12.2207 13.9933 12.4975C13.8508 12.8645 13.6801 13.1258 13.4049 13.4008C13.1297 13.6761 12.8684 13.8464 12.5013 13.9889C12.2244 14.0971 11.808 14.2248 11.0413 14.2599C10.2124 14.2976 9.96337 14.3058 7.86385 14.3058C5.76417 14.3058 5.51533 14.2976 4.6864 14.2599C3.91972 14.2245 3.50362 14.0964 3.22627 13.9888C2.85932 13.8463 2.5972 13.6759 2.32199 13.4007C2.04677 13.1255 1.8764 12.864 1.73354 12.4969C1.62591 12.22 1.49764 11.8039 1.46275 11.0373C1.42507 10.2083 1.41754 9.95934 1.41754 7.85951C1.41754 5.75969 1.42507 5.512 1.46275 4.68308C1.49781 3.91641 1.62591 3.50031 1.73354 3.22313C1.87607 2.85617 2.04677 2.59406 2.32199 2.31885C2.5972 2.04363 2.85932 1.87326 3.22627 1.73041C3.50346 1.62229 3.91972 1.49452 4.6864 1.45929C5.4118 1.42653 5.69291 1.4167 7.15845 1.41506V1.41703Z" fill="#161616"/>
<path d="M12.0443 2.70335C11.8577 2.70335 11.6753 2.75869 11.5201 2.86239C11.3649 2.96609 11.2439 3.11348 11.1725 3.28592C11.1011 3.45836 11.0825 3.6481 11.1189 3.83115C11.1553 4.01419 11.2452 4.18233 11.3772 4.31428C11.5092 4.44623 11.6774 4.53607 11.8605 4.57244C12.0435 4.60881 12.2333 4.59008 12.4057 4.51861C12.5781 4.44714 12.7254 4.32615 12.8291 4.17093C12.9327 4.01572 12.988 3.83325 12.9879 3.64661C12.9879 3.12567 12.5653 2.70335 12.0443 2.70335Z" fill="#161616"/>
<path fill-rule="evenodd" clip-rule="evenodd" d="M7.84694 3.80584C5.61686 3.80584 3.80878 5.61391 3.80878 7.84397C3.80878 10.074 5.61686 11.8813 7.84694 11.8813C10.077 11.8813 11.8846 10.074 11.8846 7.84397C11.8846 5.61391 10.077 3.80584 7.84694 3.80584ZM7.86329 10.4434C9.28826 10.4434 10.4434 9.28827 10.4434 7.8633C10.4434 6.43832 9.28826 5.28316 7.86329 5.28316C6.43831 5.28316 5.28315 6.43832 5.28315 7.8633C5.28315 9.28827 6.43831 10.4434 7.86329 10.4434Z" fill="#161616"/>
</svg>
