<svg width="451" height="100" viewBox="0 0 451 100" fill="none" xmlns="http://www.w3.org/2000/svg">
<path d="M334.95 99.0997C334.822 98.9025 324.446 97.9169 311.879 97.1283C299.313 96.3398 287.004 95.5513 284.49 95.3541C282.042 95.157 263.611 94.3685 243.568 93.3828C210.766 92.0029 200.068 91.8057 176.868 92.0029C173.002 92.2 165.848 92.2 161.08 92.2C156.311 92.0029 147.74 92.0029 142.069 92.0029C136.397 92.0029 131.177 92.0029 130.469 92.0029C129.76 92.0029 106.689 92.0029 79.2353 92.2C38.442 92.3971 28.2598 91.8057 23.4909 89.6373C20.3331 88.0602 15.6932 86.4832 13.1798 86.286C8.47539 85.8918 5.12428 83.7233 4.54428 80.9634C4.35095 79.9778 3.51317 78.0064 2.6754 76.8236C1.19318 74.4581 1.19318 74.2609 2.28873 70.5154C2.99762 68.1498 3.12651 66.7699 2.61095 66.7699C2.15984 66.7699 2.03095 65.9813 2.22429 64.7985C2.41762 63.6157 3.38428 62.8272 4.35095 62.8272C6.0265 62.8272 6.0265 62.8272 3.64206 57.8989C2.22429 54.9419 1.12873 50.605 0.870955 47.4508C0.677622 44.4938 0.3554 40.5512 0.162067 38.777C0.0331784 36.8057 0.226511 35.2286 0.677622 35.2286C1.19318 35.2286 1.19318 34.4401 0.613177 32.2716C0.162067 30.4974 -0.0957103 28.9203 0.0331783 28.7232C0.162067 28.3289 1.5154 25.7662 2.99762 22.8092C4.54428 19.8522 5.76872 16.3038 5.76872 14.7268C5.76872 13.1497 6.79983 11.5726 8.53983 10.9812C10.0221 10.1927 12.5354 8.81278 14.1465 7.62998C20.5265 3.09593 26.9709 1.716 48.6242 0.533199C68.4086 -0.452465 71.9531 -0.255333 77.302 2.70166C83.1664 6.05292 115.195 7.23572 211.217 7.62998C214.568 7.62998 215.793 8.22138 215.728 10.1927C215.6 11.7698 216.502 12.7554 218.435 12.9526C220.046 13.3468 222.817 14.5296 224.622 15.7124C227.457 17.6838 228.166 17.4866 229.455 14.7268C230.293 12.9526 230.615 11.5726 230.164 11.5726C229.777 11.5726 229.391 10.7841 229.391 9.60131C229.391 8.61565 230.099 7.62998 231.002 7.62998C231.904 7.62998 232.613 8.81278 232.613 10.1927C232.613 13.3468 235.448 13.7411 259.099 14.1354C272.633 14.5296 276.435 15.121 277.337 17.2895C278.046 19.0637 279.271 19.6551 281.268 18.8666C282.879 18.078 284.297 18.4723 284.49 19.458C285.006 22.0207 287.842 22.0207 288.164 19.458C288.293 18.2752 290.226 17.0924 292.546 17.0924C295.124 16.8952 297.057 15.7124 297.637 13.9382C298.282 11.9669 299.248 11.5726 300.859 12.7554C302.148 13.544 304.468 14.3325 306.079 14.5296C307.69 14.7268 309.559 15.7124 310.204 16.501C311.042 17.6838 311.557 17.2895 311.75 15.9096C312.008 13.1497 318.324 12.5583 318.324 15.121C318.324 16.1067 319.484 16.6981 320.902 16.6981C322.319 16.501 323.544 17.2895 323.673 18.2752C323.802 19.2608 325.606 19.8522 327.733 19.6551C332.953 18.8666 333.984 18.4723 334.95 16.6981C336.11 14.5296 356.41 14.5296 356.926 16.8952C357.441 19.2608 366.013 19.6551 366.013 17.2895C366.013 16.3038 367.237 15.5153 368.784 15.5153C370.781 15.5153 371.233 16.1067 370.524 17.4866C369.815 18.8666 370.137 19.458 371.941 19.458C373.553 19.458 374.519 20.6408 374.97 23.0064C375.486 25.5691 375.744 25.7662 376.388 23.992C377.033 22.0207 377.419 22.0207 378.128 23.7949C378.708 25.3719 379.159 25.3719 379.417 23.992C380.061 21.035 383.348 19.6551 385.41 21.4293C386.377 22.415 387.344 22.6121 387.537 22.0207C388.053 20.2465 393.788 20.2465 394.11 21.8236C394.304 22.6121 397.333 23.4006 400.877 23.4006C404.357 23.4006 407.257 20.1892 407.257 21.1748C407.257 22.1605 406.741 23.5404 406.161 23.9347C405.066 24.7232 405.066 24.9203 406.161 25.1175C406.741 25.1175 409.421 26.7472 409.421 26.7472C409.421 26.7472 412.799 26.6945 413.057 28.2716C413.057 24.9203 414.733 24.1318 415.119 27.4831C415.313 29.0601 416.021 29.0601 417.633 27.6802C419.05 26.4974 420.339 26.4974 420.984 27.4831C421.564 28.4687 426.912 33.0601 432.841 32.6659C438.77 32.4687 444.57 32.6659 445.601 33.2573C447.47 34.4401 447.406 34.4401 444.699 35.82C441.928 37.3971 441.864 37.3971 443.281 40.3541C444.184 42.3254 445.73 43.311 447.664 42.7196C449.468 42.3254 450.757 42.9168 450.886 44.2967C451.144 46.6623 449.146 49.0279 446.568 49.0279C445.279 49.0279 445.15 49.4222 445.924 50.9992C446.697 52.5763 446.632 52.9706 445.472 52.9706C443.281 52.9706 442.121 54.9419 442.508 58.096C442.701 59.8702 442.379 60.8559 441.477 60.8559C440.575 60.8559 440.252 59.8702 440.51 57.8989C440.768 56.1247 440.51 54.9419 439.866 54.9419C439.286 54.9419 438.835 55.7304 438.835 56.7161C438.835 57.7017 437.932 58.096 436.837 57.5046C435.612 56.9132 434.968 57.3075 435.226 58.4903C435.999 62.4329 439.866 71.5011 433.937 72.6839C422.853 74.8523 433.679 71.2119 433.035 73.3804C432.584 74.7603 425.946 73.2753 433.937 72.6839C434.646 71.8953 440.124 72.0925 433.937 72.6839C433.228 73.6695 435.87 79.9778 433.035 80.372C427.492 80.9634 426.59 82.7376 426.59 82.7376C426.59 82.7376 430.135 78.4007 433.035 80.372C435.032 81.752 436.128 81.752 436.708 80.1749C437.353 78.5978 437.804 78.9921 438.512 81.752C439.028 83.7233 439.479 86.0889 439.479 86.8774C439.479 87.666 440.124 88.6516 440.961 89.0459C441.992 89.6373 441.864 90.0315 440.317 90.2287C439.221 90.2287 438.126 89.6373 437.932 88.6516C437.481 86.6803 435.097 88.0602 433.808 91.0172C433.421 92.0029 432.197 92.3971 431.101 91.8057C430.07 91.0172 429.039 91.4115 428.846 92.2C428.395 94.5656 416.537 95.5513 410.673 93.9742C409.19 93.5799 408.095 93.9742 408.288 94.7627C408.481 95.5513 407.966 96.3398 407.128 96.3398C400.619 96.7341 384.508 98.5083 382.317 99.2968C380.77 99.8882 379.546 99.4939 379.546 98.7054C379.546 97.9169 377.29 97.7197 374.584 98.5083C371.813 99.2968 369.299 99.2968 368.913 98.5083C368.59 97.7197 366.85 97.5226 365.046 97.7197C360.535 98.7054 335.144 99.6911 334.95 99.0997ZM341.524 82.5405C341.524 81.5548 341.137 80.5692 340.622 80.5692C340.106 80.5692 339.461 81.5548 339.268 82.5405C339.075 83.7233 339.462 84.5118 340.17 84.5118C340.944 84.5118 341.524 83.7233 341.524 82.5405ZM344.746 82.5405C344.746 81.5548 344.295 80.5692 343.779 80.5692C343.264 80.5692 342.813 81.5548 342.813 82.5405C342.813 83.7233 343.264 84.5118 343.779 84.5118C344.295 84.5118 344.746 83.7233 344.746 82.5405ZM347.324 82.5405C347.324 81.5548 347.002 80.5692 346.615 80.5692C346.293 80.5692 346.164 81.5548 346.357 82.5405C346.55 83.7233 346.873 84.5118 347.066 84.5118C347.195 84.5118 347.324 83.7233 347.324 82.5405ZM352.157 82.5405C351.964 81.5548 351.513 80.5692 351.126 80.5692C350.804 80.5692 350.546 81.5548 350.546 82.5405C350.546 83.7233 350.997 84.5118 351.577 84.5118C352.093 84.5118 352.35 83.7233 352.157 82.5405ZM397.268 82.5405C396.881 83.1319 392.29 83.7969 392.096 82.8113L387.666 83.329C392.241 82.7376 396.559 82.3434 397.268 82.5405ZM316.39 80.5692C316.39 79.5835 315.424 78.5978 314.328 78.5978C312.717 78.5978 312.459 79.1892 313.168 80.5692C314.457 83.1319 316.39 83.1319 316.39 80.5692ZM414.604 80.372C415.248 82.1462 417.955 81.5548 417.955 81.5548C419.244 80.9634 420.146 79.9778 420.017 79.5835C419.501 77.8093 426.59 82.7376 426.59 82.7376C426.59 82.7376 412.67 82.5405 413.121 80.1749C413.508 78.4007 414.604 80.372 414.604 80.372ZM279.979 78.5978C281.204 77.0208 281.204 76.8236 279.85 76.8236C279.013 76.6265 278.175 76.6265 277.917 76.4294C277.659 76.4294 277.337 77.2179 277.208 78.4007C276.951 80.9634 278.175 80.9634 279.979 78.5978ZM272.568 76.8236C272.568 75.838 271.795 75.2466 270.893 75.2466C269.733 75.2466 269.475 75.6408 270.055 76.8236C271.215 78.9921 272.568 78.9921 272.568 76.8236ZM274.824 76.6265C274.63 75.6408 274.179 74.6552 273.793 74.6552C273.471 74.6552 273.213 75.6408 273.213 76.6265C273.213 77.8093 273.664 78.5978 274.244 78.5978C274.759 78.5978 275.017 77.8093 274.824 76.6265ZM315.746 74.8523C315.746 72.6839 313.168 70.5154 312.266 72.0925C311.944 72.881 312.202 74.0638 312.91 74.8523C314.65 77.0208 315.746 77.0208 315.746 74.8523ZM403.97 73.4724L408.932 70.3183C408.932 70.3183 407.321 72.6839 403.97 73.4724C400.877 74.0638 385.146 74.5835 380.835 73.8667L403.97 73.4724ZM308.657 72.6839C308.142 71.6982 306.853 70.7125 305.757 70.7125C304.275 70.7125 304.017 71.3039 304.79 72.6839C305.306 73.6695 306.659 74.6552 307.69 74.6552C309.173 74.6552 309.43 74.0638 308.657 72.6839ZM325.864 73.4724C325.67 72.881 325.09 72.6839 324.639 73.2753C324.124 73.8667 324.317 74.458 325.026 74.458C325.735 74.6552 326.122 74.0638 325.864 73.4724ZM273.213 69.5297C273.213 69.1355 272.117 68.7412 270.828 68.9383C268.702 69.1355 268.573 69.3326 269.991 70.5154C271.473 71.8953 273.213 71.3039 273.213 69.5297ZM255.491 68.7412C255.748 67.5584 255.039 66.7699 253.751 66.7699C252.139 66.7699 251.882 67.3613 252.591 68.7412C253.815 71.3039 254.975 71.3039 255.491 68.7412ZM213.731 67.5584C213.537 66.967 212.957 66.7699 212.506 67.3613C211.991 67.9527 212.184 68.5441 212.893 68.5441C213.602 68.7412 213.988 68.1498 213.731 67.5584ZM220.691 66.7699C220.497 65.7842 219.917 64.7985 219.402 64.7985C218.886 64.7985 218.306 65.7842 218.113 66.7699C217.855 67.9527 218.435 68.7412 219.402 68.7412C220.368 68.7412 220.948 67.9527 220.691 66.7699ZM230.679 67.9527C230.679 66.1785 228.746 65.1928 228.424 66.7699C228.166 67.9527 228.617 68.7412 229.326 68.7412C230.099 68.7412 230.679 68.3469 230.679 67.9527ZM433.872 57.5046C433.421 57.1104 432.648 57.1104 432.261 57.5046C431.81 58.096 432.132 58.4903 433.035 58.4903C433.937 58.4903 434.259 58.096 433.872 57.5046ZM240.346 18.6694C240.346 18.078 240.088 17.0924 239.702 16.501C239.379 15.9096 239.057 16.3038 239.057 17.2895C239.057 18.4723 239.379 19.458 239.702 19.458C240.088 19.458 240.346 19.0637 240.346 18.6694ZM368.397 18.2752C368.204 17.6838 367.624 17.4866 367.173 18.078C366.657 18.6694 366.85 19.2608 367.559 19.2608C368.268 19.458 368.655 18.8666 368.397 18.2752ZM198.2 11.9669C197.555 10.1927 186.213 9.99558 186.213 11.7698C186.213 12.5583 188.984 13.3468 192.464 13.3468C195.88 13.544 198.457 12.9526 198.2 11.9669ZM203.613 11.9669C203.613 9.60131 199.875 9.20705 199.424 11.5726C199.166 12.7554 199.94 13.544 201.293 13.544C202.582 13.544 203.613 12.7554 203.613 11.9669ZM206.513 11.5726C206.706 10.587 206.32 9.60131 205.611 9.60131C204.837 9.60131 204.257 10.587 204.257 11.5726C204.257 12.7554 204.644 13.544 205.16 13.544C205.675 13.544 206.32 12.7554 206.513 11.5726ZM210.057 11.5726C210.057 10.587 209.606 9.60131 209.091 9.60131C208.575 9.60131 208.124 10.587 208.124 11.5726C208.124 12.7554 208.575 13.544 209.091 13.544C209.606 13.544 210.057 12.7554 210.057 11.5726ZM214.568 11.5726C214.568 10.587 213.924 9.60131 213.151 9.60131C211.926 9.60131 211.862 9.99558 212.635 11.5726C213.86 14.1354 214.568 14.1354 214.568 11.5726Z" fill="#F6060A"/>
</svg>
