<svg width="268" height="49" viewBox="0 0 268 49" fill="none" xmlns="http://www.w3.org/2000/svg">
<path d="M198.97 48.4296C198.893 48.3382 192.73 47.881 185.265 47.5153C177.8 47.1495 170.488 46.7838 168.995 46.6924C167.54 46.6009 156.592 46.2352 144.686 45.778C125.201 45.138 118.846 45.0466 105.065 45.138C102.768 45.2294 98.5184 45.2294 95.6856 45.2294C92.8528 45.138 87.7613 45.138 84.3925 45.138C81.0237 45.138 77.9229 45.138 77.5018 45.138C77.0807 45.138 63.3759 45.138 47.0679 45.2294C22.8356 45.3209 16.7871 45.0466 13.9542 44.0408C12.0784 43.3093 9.32215 42.5779 7.82917 42.4864C5.03461 42.3036 3.04396 41.2978 2.69943 40.0177C2.58458 39.5606 2.08692 38.6462 1.58926 38.0976C0.708779 37.0004 0.708779 36.909 1.35957 35.1718C1.78067 34.0746 1.85723 33.4345 1.55098 33.4345C1.283 33.4345 1.20644 33.0688 1.32129 32.5202C1.43613 31.9716 2.01036 31.6059 2.58458 31.6059C3.5799 31.6059 3.5799 31.6059 2.16348 29.32C1.32129 27.9485 0.670497 25.937 0.517371 24.4741C0.402526 23.1026 0.211117 21.2739 0.0962722 20.451C0.0197088 19.5366 0.134554 18.8052 0.402526 18.8052C0.708779 18.8052 0.708779 18.4394 0.364244 17.4337C0.0962722 16.6108 -0.0568545 15.8793 0.0197088 15.7879C0.0962722 15.605 0.900187 14.4164 1.78067 13.0449C2.69943 11.6734 3.42678 10.0276 3.42678 9.29611C3.42678 8.56464 4.03928 7.83317 5.07289 7.55887C5.95337 7.19314 7.44635 6.55311 8.40339 6.00451C12.1933 3.90154 16.0214 3.26151 28.8841 2.71291C40.6366 2.25574 42.7421 2.34717 45.9194 3.71867C49.4031 5.27304 68.4291 -0.17836 125.469 0.00450692C127.459 0.00450692 128.187 0.278807 128.148 1.19314C128.072 1.92461 128.608 2.38178 129.756 2.47321C130.713 2.65608 132.359 3.20468 133.431 3.75328C135.116 4.66761 135.537 4.57618 136.302 3.29611C136.8 2.47321 136.992 1.83317 136.724 1.83317C136.494 1.83317 136.264 1.46744 136.264 0.918841C136.264 0.461674 136.685 0.00450692 137.221 0.00450692C137.757 0.00450692 138.178 0.553107 138.178 1.19314C138.178 2.65608 139.863 2.83894 153.912 3.02181C161.951 3.20468 164.21 3.47898 164.746 4.48474C165.167 5.30764 165.894 5.58194 167.081 5.21621C168.038 4.85048 168.88 5.03334 168.995 5.49051C169.301 6.67914 170.986 6.67914 171.177 5.49051C171.254 4.94191 172.402 4.39331 173.78 4.39331C175.311 4.30188 176.46 3.75328 176.804 2.93038C177.187 2.01604 177.761 1.83318 178.719 2.38178C179.484 2.74751 180.862 3.11324 181.819 3.20468C182.776 3.29611 183.887 3.75328 184.269 4.11901C184.767 4.66761 185.073 4.48474 185.188 3.84471C185.341 2.56464 189.093 2.29034 189.093 3.47898C189.093 3.93614 189.782 4.21044 190.624 4.21044C191.466 4.11901 192.194 4.48474 192.27 4.94191C192.347 5.39908 193.419 5.67338 194.682 5.58194C197.783 5.21621 198.395 5.03334 198.97 4.21044C199.659 3.20468 211.717 3.20468 212.024 4.30188C212.33 5.39908 217.421 5.58194 217.421 4.48474C217.421 4.02758 218.149 3.66184 219.067 3.66184C220.254 3.66184 220.522 3.93614 220.101 4.57618C219.68 5.21621 219.871 5.49051 220.943 5.49051C221.9 5.49051 222.474 6.03911 222.742 7.13631C223.049 8.32494 223.202 8.41638 223.585 7.59348C223.967 6.67914 224.197 6.67914 224.618 7.50204C224.963 8.23351 225.231 8.23351 225.384 7.59348C225.767 6.22198 227.719 5.58194 228.944 6.40484C229.518 6.86201 230.093 6.95344 230.207 6.67914C230.514 5.85624 233.921 5.85624 234.112 6.58771C234.227 6.95344 236.026 7.31918 238.132 7.31918C240.199 7.31918 241.922 5.82965 241.922 6.28681C241.922 6.74398 241.615 7.38402 241.271 7.56688C240.62 7.93262 240.62 8.02405 241.271 8.11548C241.615 8.11548 243.207 8.87139 243.207 8.87139C243.207 8.87139 245.214 8.84695 245.367 9.57842C245.367 8.02405 246.362 7.65832 246.592 9.21268C246.707 9.94415 247.128 9.94415 248.085 9.30412C248.927 8.75552 249.693 8.75552 250.076 9.21268C250.42 9.66985 253.597 11.7994 257.119 11.6165C260.641 11.5251 264.087 11.6165 264.699 11.8908C265.809 12.4394 265.771 18.4394 264.163 19.0795C262.517 19.8109 262.479 19.8109 263.321 21.1824C263.857 22.0968 264.776 22.5539 265.924 22.2796C266.996 22.0968 267.762 22.3711 267.838 23.0111C267.991 24.1083 266.805 25.2055 265.273 25.2055C264.508 25.2055 264.431 25.3884 264.891 26.1199C265.35 26.8513 265.312 27.0342 264.623 27.0342C263.321 27.0342 262.632 27.9485 262.862 29.4115C262.976 30.2344 262.785 30.6915 262.249 30.6915C261.713 30.6915 261.522 30.2344 261.675 29.32C261.828 28.4971 261.675 27.9485 261.292 27.9485C260.948 27.9485 260.68 28.3143 260.68 28.7714C260.68 29.2286 260.144 29.4115 259.493 29.1372C258.766 28.8629 258.383 29.0457 258.536 29.5943C258.995 31.423 261.292 35.6289 257.77 36.1775C251.186 37.1833 257.617 35.4948 257.234 36.5006C256.966 37.1406 253.023 36.4518 257.77 36.1775C258.191 35.8118 261.445 35.9032 257.77 36.1775C257.349 36.6347 258.919 39.5606 257.234 39.7434C253.942 40.0177 253.406 40.8406 253.406 40.8406C253.406 40.8406 255.512 38.8291 257.234 39.7434C258.421 40.3835 259.072 40.3835 259.416 39.652C259.799 38.9205 260.067 39.1034 260.488 40.3835C260.794 41.2978 261.062 42.395 261.062 42.7607C261.062 43.1265 261.445 43.5836 261.943 43.7665C262.555 44.0408 262.479 44.2237 261.56 44.3151C260.909 44.3151 260.258 44.0408 260.144 43.5836C259.876 42.6693 258.459 43.3093 257.694 44.6808C257.464 45.138 256.737 45.3209 256.086 45.0466C255.473 44.6808 254.861 44.8637 254.746 45.2294C254.478 46.3266 247.434 46.7838 243.951 46.0523C243.07 45.8695 242.419 46.0523 242.534 46.4181C242.649 46.7838 242.343 47.1495 241.845 47.1495C237.979 47.3324 228.408 48.1553 227.107 48.521C226.188 48.7953 225.46 48.6125 225.46 48.2467C225.46 47.881 224.121 47.7896 222.513 48.1553C220.867 48.521 219.374 48.521 219.144 48.1553C218.953 47.7896 217.919 47.6981 216.847 47.7896C214.167 48.2467 199.084 48.7039 198.97 48.4296ZM202.874 40.7492C202.874 40.292 202.645 39.8349 202.338 39.8349C202.032 39.8349 201.649 40.292 201.534 40.7492C201.42 41.2978 201.649 41.6635 202.07 41.6635C202.53 41.6635 202.874 41.2978 202.874 40.7492ZM204.788 40.7492C204.788 40.292 204.52 39.8349 204.214 39.8349C203.908 39.8349 203.64 40.292 203.64 40.7492C203.64 41.2978 203.908 41.6635 204.214 41.6635C204.52 41.6635 204.788 41.2978 204.788 40.7492ZM206.32 40.7492C206.32 40.292 206.128 39.8349 205.899 39.8349C205.707 39.8349 205.631 40.292 205.745 40.7492C205.86 41.2978 206.052 41.6635 206.166 41.6635C206.243 41.6635 206.32 41.2978 206.32 40.7492ZM209.191 40.7492C209.076 40.292 208.808 39.8349 208.578 39.8349C208.387 39.8349 208.234 40.292 208.234 40.7492C208.234 41.2978 208.502 41.6635 208.846 41.6635C209.152 41.6635 209.306 41.2978 209.191 40.7492ZM235.988 40.7492C235.758 41.0235 233.031 41.3319 232.916 40.8748L230.284 41.1149C233.002 40.8406 235.567 40.6578 235.988 40.7492ZM187.944 39.8349C187.944 39.3777 187.37 38.9205 186.719 38.9205C185.762 38.9205 185.609 39.1948 186.03 39.8349C186.796 41.0235 187.944 41.0235 187.944 39.8349ZM246.286 39.7434C246.668 40.5663 248.276 40.292 248.276 40.292C249.042 40.0177 249.578 39.5606 249.501 39.3777C249.195 38.5548 253.406 40.8406 253.406 40.8406C253.406 40.8406 245.137 40.7492 245.405 39.652C245.635 38.8291 246.286 39.7434 246.286 39.7434ZM166.315 38.9205C167.043 38.1891 167.043 38.0976 166.239 38.0976C165.741 38.0062 165.243 38.0062 165.09 37.9148C164.937 37.9148 164.746 38.2805 164.669 38.8291C164.516 40.0177 165.243 40.0177 166.315 38.9205ZM161.913 38.0976C161.913 37.6405 161.454 37.3662 160.918 37.3662C160.228 37.3662 160.075 37.549 160.42 38.0976C161.109 39.1034 161.913 39.1034 161.913 38.0976ZM163.253 38.0062C163.138 37.549 162.87 37.0919 162.64 37.0919C162.449 37.0919 162.296 37.549 162.296 38.0062C162.296 38.5548 162.564 38.9205 162.908 38.9205C163.214 38.9205 163.368 38.5548 163.253 38.0062ZM187.562 37.1833C187.562 36.1775 186.03 35.1718 185.494 35.9032C185.303 36.269 185.456 36.8176 185.877 37.1833C186.911 38.1891 187.562 38.1891 187.562 37.1833ZM239.969 36.5433L242.917 35.0803C242.917 35.0803 241.96 36.1775 239.969 36.5433C238.132 36.8176 228.787 37.0586 226.226 36.7261L239.969 36.5433ZM183.351 36.1775C183.044 35.7204 182.279 35.2632 181.628 35.2632C180.747 35.2632 180.594 35.5375 181.054 36.1775C181.36 36.6347 182.164 37.0919 182.776 37.0919C183.657 37.0919 183.81 36.8176 183.351 36.1775ZM193.572 36.5433C193.457 36.269 193.112 36.1775 192.844 36.4518C192.538 36.7261 192.653 37.0004 193.074 37.0004C193.495 37.0919 193.725 36.8176 193.572 36.5433ZM162.296 34.7146C162.296 34.5317 161.645 34.3489 160.879 34.4403C159.616 34.5317 159.539 34.6232 160.382 35.1718C161.262 35.8118 162.296 35.5375 162.296 34.7146ZM151.768 34.3489C151.921 33.8003 151.5 33.4345 150.735 33.4345C149.778 33.4345 149.624 33.7088 150.046 34.3489C150.773 35.5375 151.462 35.5375 151.768 34.3489ZM126.962 33.8003C126.847 33.526 126.502 33.4345 126.234 33.7088C125.928 33.9831 126.043 34.2574 126.464 34.2574C126.885 34.3489 127.115 34.0746 126.962 33.8003ZM131.096 33.4345C130.981 32.9774 130.637 32.5202 130.331 32.5202C130.024 32.5202 129.68 32.9774 129.565 33.4345C129.412 33.9831 129.756 34.3489 130.331 34.3489C130.905 34.3489 131.249 33.9831 131.096 33.4345ZM137.03 33.9831C137.03 33.1602 135.881 32.7031 135.69 33.4345C135.537 33.9831 135.805 34.3489 136.226 34.3489C136.685 34.3489 137.03 34.166 137.03 33.9831ZM257.732 29.1372C257.464 28.9543 257.005 28.9543 256.775 29.1372C256.507 29.4115 256.698 29.5943 257.234 29.5943C257.77 29.5943 257.962 29.4115 257.732 29.1372ZM142.772 5.12478C142.772 4.85048 142.619 4.39331 142.389 4.11901C142.198 3.84471 142.006 4.02758 142.006 4.48474C142.006 5.03334 142.198 5.49051 142.389 5.49051C142.619 5.49051 142.772 5.30764 142.772 5.12478ZM218.838 4.94191C218.723 4.66761 218.378 4.57618 218.11 4.85048C217.804 5.12478 217.919 5.39908 218.34 5.39908C218.761 5.49051 218.991 5.21621 218.838 4.94191ZM117.736 2.01604C117.353 1.19314 110.615 1.10171 110.615 1.92461C110.615 2.29034 112.262 2.65608 114.329 2.65608C116.358 2.74751 117.889 2.47321 117.736 2.01604ZM120.952 2.01604C120.952 0.918841 118.731 0.735974 118.463 1.83317C118.31 2.38178 118.769 2.74751 119.573 2.74751C120.339 2.74751 120.952 2.38178 120.952 2.01604ZM122.674 1.83317C122.789 1.37601 122.559 0.918841 122.138 0.918841C121.679 0.918841 121.334 1.37601 121.334 1.83317C121.334 2.38178 121.564 2.74751 121.87 2.74751C122.177 2.74751 122.559 2.38178 122.674 1.83317ZM124.78 1.83317C124.78 1.37601 124.512 0.918841 124.205 0.918841C123.899 0.918841 123.631 1.37601 123.631 1.83317C123.631 2.38178 123.899 2.74751 124.205 2.74751C124.512 2.74751 124.78 2.38178 124.78 1.83317ZM127.459 1.83317C127.459 1.37601 127.077 0.918841 126.617 0.918841C125.89 0.918841 125.852 1.10171 126.311 1.83317C127.038 3.02181 127.459 3.02181 127.459 1.83317Z" fill="#F6060A"/>
</svg>
