<svg width="561" height="144" viewBox="0 0 561 144" fill="none" xmlns="http://www.w3.org/2000/svg">
<path d="M28.8 85.8L22 98.6V141.6H0V1.59999H22V62.6L51.2 1.59999H72.8L42.2 64L72.8 141.6H50.2L28.8 85.8Z" fill="#F6060A"/>
<path d="M102.812 109.4C102.812 114.467 103.812 118.067 105.812 120.2C107.946 122.2 110.746 123.2 114.213 123.2C117.679 123.2 120.412 122.2 122.412 120.2C124.546 118.067 125.613 114.467 125.613 109.4V33.8C125.613 28.7333 124.546 25.2 122.412 23.2C120.412 21.0667 117.679 20 114.213 20C110.746 20 107.946 21.0667 105.812 23.2C103.812 25.2 102.812 28.7333 102.812 33.8V109.4ZM80.8125 35.2C80.8125 23.8667 83.6792 15.2 89.4125 9.19999C95.1458 3.06666 103.412 0 114.213 0C125.013 0 133.279 3.06666 139.012 9.19999C144.746 15.2 147.613 23.8667 147.613 35.2V108C147.613 119.333 144.746 128.067 139.012 134.2C133.279 140.2 125.013 143.2 114.213 143.2C103.412 143.2 95.1458 140.2 89.4125 134.2C83.6792 128.067 80.8125 119.333 80.8125 108V35.2Z" fill="#F6060A"/>
<path d="M183.523 141.6H161.523V1.59999H183.523V61.6H208.523V1.59999H230.923V141.6H208.523V81.6H183.523V141.6Z" fill="#F6060A"/>
<path d="M275.675 85.8L268.875 98.6V141.6H246.875V1.59999H268.875V62.6L287.604 26.0921H305.534L289.075 64L319.675 141.6H297.075L275.675 85.8Z" fill="#F6060A"/>
<path d="M335.688 121.6C336.888 121.733 338.154 121.8 339.487 121.8C340.821 121.8 342.087 121.8 343.288 121.8C345.021 121.8 346.621 121.6 348.087 121.2C349.688 120.8 351.021 120.067 352.087 119C353.288 117.933 354.154 116.4 354.688 114.4C355.354 112.4 355.688 109.867 355.688 106.8L333.453 27.0811L350.734 21.2619L369.888 83.6L386.884 22.1436L406.105 18.6168L383.087 104.8C380.554 114.4 377.954 121.8 375.288 127C372.754 132.067 370.021 135.733 367.087 138C364.154 140.133 360.954 141.333 357.487 141.6C354.154 141.867 350.421 142 346.288 142C344.288 142 342.488 142 340.888 142C339.288 142 337.554 141.867 335.688 141.6V121.6Z" fill="#F6060A"/>
<path d="M454.275 1.59999C465.342 1.59999 473.542 4.53333 478.875 10.4C484.342 16.2667 487.075 24.8667 487.075 36.2V54.4C487.075 65.7333 484.342 74.3333 478.875 80.2C473.542 86.0667 465.342 89 454.275 89H443.875V141.6H421.875V1.59999H454.275ZM443.875 21.6V69H454.275C457.742 69 460.408 68.0667 462.275 66.2C464.142 64.3333 465.075 60.8667 465.075 55.8V34.8C465.075 29.7333 464.142 26.2667 462.275 24.4C460.408 22.5333 457.742 21.6 454.275 21.6H443.875Z" fill="#F6060A"/>
<path d="M560.67 89.4V108C560.67 119.333 557.87 128.067 552.27 134.2C546.804 140.2 538.67 143.2 527.87 143.2C517.07 143.2 508.87 140.2 503.27 134.2C497.804 128.067 495.07 119.333 495.07 108V35.2C495.07 23.8667 497.804 15.2 503.27 9.19999C508.87 3.06666 517.07 0 527.87 0C538.67 0 546.804 3.06666 552.27 9.19999C557.87 15.2 560.67 23.8667 560.67 35.2V48.8H539.87V33.8C539.87 28.7333 538.804 25.2 536.67 23.2C534.67 21.0667 531.937 20 528.47 20C525.004 20 522.204 21.0667 520.07 23.2C518.07 25.2 517.07 28.7333 517.07 33.8V109.4C517.07 114.467 518.07 118 520.07 120C522.204 122 525.004 123 528.47 123C531.937 123 534.67 122 536.67 120C538.804 118 539.87 114.467 539.87 109.4V89.4H560.67Z" fill="#F6060A"/>
</svg>
