<svg width="27" height="27" viewBox="0 0 27 27" fill="none" xmlns="http://www.w3.org/2000/svg">
<path fill-rule="evenodd" clip-rule="evenodd" d="M1.83143 1.83143C0 3.66286 0 6.61048 0 12.5058V13.5479C0 19.4432 0 22.3908 1.83143 24.2223C3.66286 26.0537 6.61048 26.0537 12.5058 26.0537H13.5479C19.4432 26.0537 22.3908 26.0537 24.2223 24.2223C26.0537 22.3908 26.0537 19.4432 26.0537 13.5479V12.5058C26.0537 6.61048 26.0537 3.66286 24.2223 1.83143C22.3908 0 19.4432 0 13.5479 0H12.5058C6.61048 0 3.66286 0 1.83143 1.83143ZM4.39663 7.92473C4.53775 14.6987 7.92473 18.7696 13.8628 18.7696H14.1994V14.8941C16.3814 15.1112 18.0313 16.707 18.6935 18.7696H21.7766C20.9299 15.6866 18.7043 13.9822 17.3148 13.3309C18.7043 12.5275 20.6584 10.5735 21.1252 7.92473H18.3243C17.7164 10.0742 15.9146 12.0282 14.1994 12.2127V7.92473H11.3985V15.4369C9.66158 15.0027 7.46879 12.8966 7.37108 7.92473H4.39663Z" fill="#F6060A"/>
</svg>
