<svg width="1252" height="468" viewBox="0 0 1252 468" fill="none" xmlns="http://www.w3.org/2000/svg">
<g clip-path="url(#clip0_6_3)">
<path d="M69.7144 1.28932e-06H939.04C943.142 -0.00134475 947.143 1.05128 950.487 3.01172C953.831 4.97216 956.352 7.7432 957.701 10.9401C960.459 17.4715 965.611 23.1329 972.443 27.139C979.276 31.1452 987.449 33.2975 995.83 33.2975C1004.21 33.2975 1012.39 31.1452 1019.22 27.139C1026.05 23.1329 1031.2 17.4715 1033.96 10.9401C1035.31 7.74483 1037.83 4.97541 1041.18 3.01538C1044.52 1.05535 1048.52 0.00160349 1052.62 1.28932e-06H1251.02V468H1052.62C1048.52 468.004 1044.52 466.953 1041.18 464.994C1037.83 463.036 1035.31 460.266 1033.96 457.07C1031.21 450.534 1026.06 444.867 1019.22 440.857C1012.39 436.847 1004.22 434.692 995.83 434.692C987.446 434.692 979.269 436.847 972.436 440.857C965.603 444.867 960.453 450.534 957.701 457.07C956.349 460.264 953.826 463.032 950.483 464.991C947.139 466.949 943.14 468.001 939.04 468H69.7144C69.7144 460.446 67.9111 452.965 64.4075 445.986C60.9038 439.006 55.7687 432.665 49.2949 427.324C42.8212 421.982 35.1359 417.746 26.6779 414.856C18.2198 411.966 9.15445 410.479 0 410.48V57.52C9.15445 57.5213 18.2198 56.0345 26.6779 53.1444C35.1359 50.2543 42.8212 46.0177 49.2949 40.6764C55.7687 35.335 60.9038 28.9936 64.4075 22.0143C67.9111 15.035 69.7144 7.55448 69.7144 1.28932e-06ZM999.193 48.71C997.181 46.79 994.758 46.9801 993.449 48.0701C993.128 48.3308 992.875 48.6423 992.704 48.9861C992.533 49.3298 992.449 49.6986 992.456 50.0701V83.64C994.479 85.56 996.891 85.36 998.212 84.28C998.529 84.0175 998.779 83.7053 998.947 83.3618C999.116 83.0184 999.199 82.6506 999.193 82.28V48.71ZM999.193 103.92C997.181 102.01 994.758 102.19 993.449 103.28C993.128 103.541 992.875 103.852 992.704 104.196C992.533 104.54 992.449 104.909 992.456 105.28V138.85C994.479 140.76 996.891 140.57 998.212 139.48C998.529 139.217 998.779 138.905 998.947 138.562C999.116 138.218 999.199 137.851 999.193 137.48V103.92ZM999.193 159.14C997.181 157.21 994.758 157.41 993.449 158.49C993.13 158.751 992.877 159.063 992.706 159.407C992.536 159.75 992.45 160.119 992.456 160.49V194.05C994.479 195.98 996.891 195.78 998.212 194.69C998.529 194.428 998.779 194.115 998.947 193.772C999.116 193.428 999.199 193.061 999.193 192.69V159.14ZM999.193 214.34C997.181 212.43 994.758 212.61 993.449 213.71C993.127 213.97 992.873 214.281 992.702 214.625C992.532 214.969 992.448 215.338 992.456 215.71V249.28C994.479 251.19 996.891 251.01 998.212 249.91C998.53 249.648 998.78 249.336 998.949 248.992C999.118 248.649 999.201 248.281 999.193 247.91V214.34ZM999.193 269.57C997.181 267.64 994.758 267.84 993.449 268.92C993.128 269.181 992.875 269.492 992.704 269.836C992.533 270.18 992.449 270.549 992.456 270.92V304.49C994.479 306.4 996.891 306.21 998.212 305.12C998.529 304.857 998.779 304.545 998.947 304.202C999.116 303.858 999.199 303.491 999.193 303.12V269.57ZM992.456 414.88C994.479 416.79 996.891 416.61 998.212 415.51C998.53 415.248 998.78 414.936 998.949 414.592C999.118 414.249 999.201 413.881 999.193 413.51V379.94C997.181 378.03 994.758 378.21 993.449 379.31C993.127 379.57 992.873 379.881 992.702 380.225C992.532 380.569 992.448 380.938 992.456 381.31V414.88ZM992.456 359.66C994.479 361.59 996.891 361.39 998.212 360.31L998.296 360.22C998.871 359.709 999.192 359.037 999.193 358.34V324.78C997.181 322.85 994.758 323.05 993.449 324.13C992.864 324.614 992.515 325.258 992.468 325.94C992.462 325.993 992.462 326.047 992.468 326.1L992.456 359.66Z" fill="#161616"/>
<path opacity="0.2" fill-rule="evenodd" clip-rule="evenodd" d="M539.113 778.605C530.234 780.44 526.948 778.738 527.34 770.177C527.342 770.174 527.351 770.169 527.353 770.171C527.349 770.173 527.356 770.173 527.353 770.171C527.353 770.171 527.367 770.17 527.369 770.167C527.677 763.347 527.617 756.501 527.547 748.773V748.738C527.515 745.188 527.481 741.453 527.481 737.447L508.78 745.872L507.963 746.239L505.463 747.366C455.579 769.839 407.121 791.669 358.641 813.521L358.98 815.801C360.446 815.873 361.91 815.966 363.371 816.06L363.439 816.065C366.328 816.249 369.215 816.433 372.112 816.433C419.572 816.433 467.03 816.435 514.488 816.438C609.397 816.444 704.307 816.449 799.223 816.433C874.079 816.406 938.745 772.231 959.716 705.862C959.739 705.789 959.764 705.703 959.792 705.607C959.82 705.504 959.852 705.387 959.887 705.26C960.45 703.196 961.817 698.179 966.395 695.107C970.498 692.327 975.508 692.222 978.848 692.484C984.832 692.511 990.845 692.537 996.858 692.537C996.888 692.537 996.914 692.54 996.943 692.542C997.8 692.669 1004.66 693.398 1009.33 688.76C1013.43 684.693 1014.11 678.187 1010.77 672.861L984.536 582.361C984.423 582.071 983.093 578.558 985.554 575.436C987.947 572.377 991.863 572.413 992.342 572.418H992.374C998.004 572.446 1003.62 572.477 1009.25 572.51H1009.34C1014.99 572.544 1020.65 572.576 1026.31 572.602C1029.62 572.891 1032.7 571.264 1033.98 568.642C1035.59 565.284 1033.38 562.109 1033.24 561.927C1015.79 540.89 998.344 519.844 980.897 498.792C971.018 486.873 961.138 474.951 951.254 463.03C950.235 461.849 948.763 459.75 948.226 456.84C947.009 450.334 951.424 445.349 952.16 444.537C962.788 431.521 973.416 418.532 984.044 405.543C984.304 405.224 984.059 404.767 983.628 404.767H802.5C802.101 404.767 801.849 404.367 802.056 404.05C806.408 397.329 811.568 393.6 816.48 390.048L816.63 389.94C817.258 389.487 817.88 389.036 818.497 388.582C856.929 360.226 900.426 342.597 949.189 336.485L949.564 336.438C956.102 335.624 961.427 334.959 959.122 326.491C940.387 257.341 985.611 194.043 1047.14 167.313C1047.23 167.27 1047.44 167.23 1047.73 167.174C1048.87 166.954 1051.26 166.497 1052.54 164.742C1053.26 163.782 1053.47 162.889 1053.49 162.013C1053.49 161.756 1053.26 161.555 1052.98 161.555H661.936C661.501 161.555 661.255 162.018 661.519 162.338C665.774 167.48 670.546 174.58 674.502 183.21C681.464 198.476 682.597 212.302 682.513 220.957C682.625 271.416 682.745 308.53 682.865 345.641C682.985 382.476 683.104 419.312 683.216 469.196C683.217 469.62 682.674 469.845 682.345 469.548C677.748 465.415 670.841 458.095 665.928 447.264C660.749 435.853 660.155 425.702 660.267 419.93C660.353 419.248 661.116 412.873 655.824 408.177C651.098 403.955 645.127 404.321 644.22 404.401C635.524 404.409 626.831 404.42 618.139 404.433H617.819H617.725C600.163 404.456 582.607 404.479 565.036 404.479C557.961 404.426 541.773 403.377 525.358 393.592C508.775 383.73 501.387 370.535 498.303 364.868C484.635 339.816 487.182 315.158 503.483 291.523C505.888 288.034 509.058 284.021 512.737 284.23C516.066 284.409 518.297 287.932 519.901 290.467L520.039 290.683C520.039 290.683 521.68 293.255 536.877 312.981C538.009 314.45 546.357 325.047 560.225 331.921C565.687 334.622 577.431 339.424 594.524 338.741C605.357 338.715 616.188 338.715 627.021 338.715H627.043L627.06 338.717C627.466 338.794 631.651 339.585 634.797 336.722C637.918 333.879 637.24 330.049 637.129 329.529C637.121 329.495 637.118 329.464 637.118 329.429C637.048 315.897 636.969 302.372 636.892 288.848L636.89 288.617C636.813 275.151 636.737 261.685 636.664 248.213C636.657 246.856 636.654 245.818 636.65 244.992C636.643 242.864 636.64 242.139 636.58 241.025C636.382 236.357 633.41 188.062 594.638 153.908C583.712 144.28 575.48 140.651 567.218 137.011C558.105 132.995 548.954 128.964 536.113 116.841C522.466 103.968 514.039 90.8094 509.014 81.5178C508.787 81.0981 508.113 81.1924 508.038 81.6564C506.664 90.0459 505.742 102.882 509.369 117.838C514.247 138.058 524.963 152.03 531.443 159.23C531.708 159.526 531.516 159.977 531.104 160.019C518.337 161.332 508.138 159.762 500.794 157.817C453.508 145.307 436.684 93.7081 433.789 83.5439C433.661 83.0956 432.994 83.0642 432.804 83.4922C429.661 90.5404 426.177 100.995 425.91 113.878C425.414 138.634 437.13 156.757 442.621 164.141C442.823 164.413 442.677 164.785 442.333 164.876C434.762 166.879 425.496 168.756 414.817 169.647C406.275 170.362 398.511 170.307 391.837 169.916C391.543 169.899 391.292 170.11 391.284 170.382C391.243 171.847 391.248 173.334 391.3 174.841C392.107 195.134 402.453 211.657 412.396 223.153C412.614 223.408 412.508 223.782 412.181 223.902C403.398 227.124 392.363 230.289 379.413 232.08C372.646 233.024 366.36 233.446 360.659 233.566C360.384 233.572 360.16 233.773 360.149 234.029C359.87 240.966 360.186 249.823 362.318 259.861C364.886 271.915 369.216 281.572 372.999 288.454C373.096 288.628 373.068 288.839 372.927 288.987C370.183 291.891 366.606 295.153 362.065 298.292C353.858 303.945 345.785 306.929 339.937 308.542C339.626 308.629 339.471 308.952 339.618 309.222C343.088 315.623 347.531 322.784 353.235 330.268C360.312 339.577 367.609 347.089 374.119 352.988C374.258 353.116 374.31 353.305 374.248 353.478C372.989 357.064 370.824 361.772 367.13 366.704C362.091 373.394 356.344 377.608 352.337 380.065C352.088 380.219 352.026 380.534 352.204 380.757C356.202 385.742 361.278 391.309 367.64 396.952C375.729 404.136 383.678 409.488 390.465 413.414C390.565 413.472 390.642 413.562 390.681 413.666C420.45 492.329 462.755 528.518 498.672 546.685C537.255 566.218 580.836 571.226 615.347 575.19C649.057 579.063 674.116 581.942 677.418 596.396C679.037 603.491 673.741 611.143 666.739 621.253C662.974 626.688 658.715 632.84 654.778 639.992C643.174 661.084 622.204 668.456 601.628 662.37C599.082 661.615 596.585 659.804 594.164 658.046C590.101 655.097 586.242 652.296 582.695 654.893C578.714 657.816 576.338 663.603 573.963 669.391C572.93 671.912 571.892 674.434 570.725 676.717C569.976 678.183 569.267 679.681 568.56 681.177C567.126 684.207 565.695 687.235 563.931 689.991C556.574 701.508 561.527 702.925 571.008 702.873C602.28 702.658 633.553 702.689 664.825 702.719H664.94C675.938 702.731 686.936 702.741 697.936 702.741H715.691C715.905 702.741 716.1 702.619 716.176 702.432C716.414 701.853 716.646 701.275 716.879 700.692L716.882 700.682L717.05 700.264C717.235 699.806 717.418 699.349 717.604 698.896C717.675 698.726 717.638 698.539 717.51 698.403C715.704 696.502 713.909 694.584 712.116 692.665L711.875 692.408L711.839 692.37C707.355 687.576 702.87 682.781 698.219 678.214C693.775 673.859 693.719 670.265 696.097 663.864C708.719 629.92 728.386 610.141 762.743 617.013C763.406 617.147 764.097 617.097 764.791 617.047L764.806 617.046C765.452 617 766.103 616.953 766.734 617.056C766.771 617.063 766.808 617.065 766.847 617.064C767.334 617.049 770.967 616.914 774.206 616.279C775.703 615.984 775.815 613.899 776.012 610.265C776.303 604.893 776.777 596.132 782.158 584.748C783.497 581.937 785.014 580.556 786.382 579.311C786.657 579.06 786.935 578.808 787.195 578.557C803.978 562.188 856.786 563.578 875.889 590.571C888.06 607.753 882.031 628.713 876.201 648.048C867.117 678.24 847.448 696.131 842.948 700.117C826.59 714.624 805.648 724.435 780.375 729.655C736.974 738.641 693.514 747.386 650.056 756.131L649.25 756.293L649.233 756.297L649.19 756.305C612.485 763.692 575.782 771.077 539.113 778.605ZM637.532 618.641C642.375 611.591 646.338 605.823 645.159 601.55C645.156 601.541 645.155 601.532 645.155 601.524C645.155 601.515 645.154 601.506 645.152 601.498C642.269 591.302 608.728 584.988 594.81 597.234C592.753 599.032 592.173 600.31 591.276 602.292C590.457 604.101 589.373 606.497 586.659 610.402L586.592 610.498C581.802 617.41 573.715 629.073 559.404 633.173C551.225 635.534 542.339 635.377 533.538 632.78C530.99 632.024 528.496 630.214 526.074 628.456C522.008 625.505 518.151 622.707 514.604 625.303C510.624 628.226 508.248 634.011 505.873 639.797C504.839 642.318 503.802 644.845 502.633 647.128C501.886 648.593 501.177 650.091 500.469 651.588L500.45 651.628C499.023 654.644 497.595 657.658 495.842 660.404C492.332 665.885 491.625 669.085 492.871 670.921C494.793 673.781 500.822 673.413 502.917 673.282C514.249 672.577 533.443 672.6 560.221 673.093C560.414 673.096 560.596 673.001 560.689 672.844C563.269 668.547 565.115 664.891 566.281 662.421C567.544 659.761 568.498 657.487 569.323 655.522C571.472 650.397 572.741 647.377 576.3 645.082C579.47 643.037 582.723 642.669 584.451 642.486C591 641.815 595.586 644.445 600.65 647.352C604.693 649.67 609.039 652.164 614.931 653.293C618.755 654.027 624.662 654.443 632.578 652.231C632.962 652.124 633.069 651.669 632.782 651.41C631.992 650.702 631.062 649.785 630.099 648.649C630.039 648.577 629.969 648.497 629.89 648.406L629.775 648.275L629.767 648.267C628.889 647.262 627.249 645.385 626.732 643.508C625.628 639.546 627.185 635.927 627.978 634.301C630.716 628.563 634.315 623.324 637.526 618.65L637.532 618.641ZM575.52 271.445C566.451 271.445 559.1 264.647 559.1 256.261C559.1 247.876 566.451 241.079 575.52 241.079C584.59 241.079 591.942 247.876 591.942 256.261C591.942 264.647 584.59 271.445 575.52 271.445Z" fill="white"/>
</g>
<path d="M1089.26 17.8203H1185.87V32.2502H1089.26V17.8203Z" fill="white"/>
<path d="M1089.26 38.4707H1185.87V42.1407H1089.26V38.4707Z" fill="white"/>
<path d="M1089.26 46.2607H1185.87V49.9308H1089.26V46.2607Z" fill="white"/>
<path d="M1089.26 51.3604H1185.87V60.4104H1089.26V51.3604Z" fill="white"/>
<path d="M1089.26 62.9902H1185.87V64.3702H1089.26V62.9902Z" fill="white"/>
<path d="M1089.26 173.041H1185.87V174.421H1089.26V173.041Z" fill="white"/>
<path d="M1089.26 204.061H1185.87V205.441H1089.26V204.061Z" fill="white"/>
<path d="M1089.26 238.91H1185.87V240.29H1089.26V238.91Z" fill="white"/>
<path d="M1089.26 242.141H1185.87V243.521H1089.26V242.141Z" fill="white"/>
<path d="M1089.26 69.6309H1185.87V73.3009H1089.26V69.6309Z" fill="white"/>
<path d="M1089.26 77.4209H1185.87V79.2509H1089.26V77.4209Z" fill="white"/>
<path d="M1089.26 81.1406H1185.87V82.9706H1089.26V81.1406Z" fill="white"/>
<path d="M1089.26 85.2207H1185.87V88.8907H1089.26V85.2207Z" fill="white"/>
<path d="M1089.26 90.7607H1185.87V98.9308H1089.26V90.7607Z" fill="white"/>
<path d="M1089.26 100.73H1185.87V102.701H1089.26V100.73Z" fill="white"/>
<path d="M1089.26 108.591H1185.87V112.261H1089.26V108.591Z" fill="white"/>
<path d="M1089.26 114.251H1185.87V117.921H1089.26V114.251Z" fill="white"/>
<path d="M1089.26 122.32H1185.87V129.7H1089.26V122.32Z" fill="white"/>
<path d="M1089.26 131.961H1185.87V135.631H1089.26V131.961Z" fill="white"/>
<path d="M1089.26 139.761H1185.87V143.431H1089.26V139.761Z" fill="white"/>
<path d="M1089.26 150.211H1185.87V153.881H1089.26V150.211Z" fill="white"/>
<path d="M1089.26 155.341H1185.87V159.011H1089.26V155.341Z" fill="white"/>
<path d="M1089.26 163.131H1185.87V166.801H1089.26V163.131Z" fill="white"/>
<path d="M1089.26 177.711H1185.87V183.381H1089.26V177.711Z" fill="white"/>
<path d="M1089.26 194.301H1185.87V197.971H1089.26V194.301Z" fill="white"/>
<path d="M1089.26 208.101H1185.87V215.331H1089.26V208.101Z" fill="white"/>
<path d="M1089.26 217.671H1185.87V221.341H1089.26V217.671Z" fill="white"/>
<path d="M1089.26 225.461H1185.87V229.131H1089.26V225.461Z" fill="white"/>
<path d="M1089.26 230.021H1185.87V233.691H1089.26V230.021Z" fill="white"/>
<path d="M1089.26 248.841H1185.87V252.511H1089.26V248.841Z" fill="white"/>
<path d="M1089.26 256.631H1185.87V260.301H1089.26V256.631Z" fill="white"/>
<path d="M1089.26 264.351H1185.87V266.321H1089.26V264.351Z" fill="white"/>
<path d="M1089.26 272.141H1185.87V274.111H1089.26V272.141Z" fill="white"/>
<path d="M1089.26 278.961H1185.87V284.711H1089.26V278.961Z" fill="white"/>
<path d="M1089.26 285.78H1185.87V293.48H1089.26V285.78Z" fill="white"/>
<path d="M1089.26 303.371H1185.87V307.041H1089.26V303.371Z" fill="white"/>
<path d="M1089.26 311.171H1185.87V314.841H1089.26V311.171Z" fill="white"/>
<path d="M1089.26 320.791H1185.87V322.621H1089.26V320.791Z" fill="white"/>
<path d="M1089.26 299.951H1185.87V301.781H1089.26V299.951Z" fill="white"/>
<path d="M1089.26 339.631H1185.87V341.461H1089.26V339.631Z" fill="white"/>
<path d="M1089.26 324.501H1185.87V332.671H1089.26V324.501Z" fill="white"/>
<path d="M1089.26 334.541H1185.87V336.371H1089.26V334.541Z" fill="white"/>
<path d="M1089.26 350.121H1185.87V353.791H1089.26V350.121Z" fill="white"/>
<path d="M1089.26 357.91H1185.87V361.58H1089.26V357.91Z" fill="white"/>
<path d="M1089.26 365.711H1185.87V369.381H1089.26V365.711Z" fill="white"/>
<path d="M1089.26 374.32H1185.87V384.69H1089.26V374.32Z" fill="white"/>
<path d="M1089.26 389.08H1185.87V392.75H1089.26V389.08Z" fill="white"/>
<path d="M1089.26 396.871H1213V400.541H1089.26V396.871Z" fill="white"/>
<path d="M1089.26 404.66H1213V408.33H1089.26V404.66Z" fill="white"/>
<path d="M1194.98 20.6211H1196.48L1198.34 22.5411C1202.74 27.1611 1205.07 29.2411 1207.79 29.2711C1209.63 29.2711 1211.32 28.3812 1211.32 25.6812C1211.27 24.2677 1210.73 22.915 1209.8 21.8511L1211.52 21.0712C1212.71 22.5092 1213.36 24.3166 1213.35 26.1812C1213.35 30.0712 1210.68 31.7111 1208.1 31.7111C1204.76 31.7111 1202.1 29.3011 1198.4 25.4911L1197.07 24.0411H1197.01V32.1411H1195.01L1194.98 20.6211Z" fill="white"/>
<path d="M1197.79 46.3003C1197.07 47.5126 1196.68 48.8908 1196.65 50.3003C1196.65 53.4403 1198.65 54.4102 1200.15 54.3802C1202.68 54.3802 1203.76 52.0702 1203.76 49.7102V48.3502H1205.6V49.7102C1205.6 51.4902 1206.52 53.7102 1208.66 53.7102C1210.1 53.7102 1211.38 52.8003 1211.38 50.5403C1211.34 49.2454 1210.93 47.99 1210.18 46.9303L1211.96 46.2903C1212.88 47.6968 1213.36 49.3415 1213.35 51.0203C1213.35 54.5703 1211.24 56.1903 1209.04 56.1903C1207.18 56.1903 1205.6 55.0702 1204.79 52.8502C1204.62 53.9599 1204.06 54.9722 1203.21 55.7053C1202.36 56.4384 1201.27 56.8443 1200.15 56.8502C1197.26 56.8502 1194.73 54.6003 1194.73 50.2603C1194.71 48.6161 1195.13 46.9969 1195.95 45.5703L1197.79 46.3003Z" fill="white"/>
<path d="M1211.32 81.1408C1211.35 80.5254 1211.31 79.9087 1211.21 79.3009C1210.99 77.691 1210.24 76.201 1209.07 75.0644C1207.91 73.9279 1206.41 73.2091 1204.79 73.0209V73.1108C1205.46 73.6241 1205.99 74.2857 1206.35 75.0428C1206.72 75.7999 1206.9 76.6314 1206.88 77.4708C1206.88 80.6708 1204.57 82.9209 1201.04 82.9209C1197.73 82.9209 1194.68 80.6709 1194.68 76.9209C1194.68 73.1709 1197.68 70.5309 1202.37 70.5309C1203.87 70.4806 1205.35 70.7249 1206.75 71.25C1208.15 71.775 1209.43 72.5704 1210.52 73.5908C1212.03 75.1692 1212.97 77.2019 1213.19 79.3708C1213.28 79.96 1213.32 80.5551 1213.32 81.1509L1211.32 81.1408ZM1200.9 80.4409C1203.49 80.4409 1205.04 78.9708 1205.04 76.7208C1205.03 75.9903 1204.81 75.2779 1204.42 74.6609C1204.03 74.0439 1203.48 73.5458 1202.82 73.2208C1202.49 73.0294 1202.12 72.9326 1201.74 72.9409C1198.74 72.9409 1196.57 74.3609 1196.57 76.9409C1196.57 79.0209 1198.32 80.4309 1200.9 80.4309V80.4409Z" fill="white"/>
<path d="M1199.57 95.6904C1201.85 95.6904 1203.46 97.0504 1204.4 99.2804H1204.49C1204.81 98.4648 1205.35 97.7593 1206.06 97.251C1206.77 96.7427 1207.62 96.4539 1208.49 96.4204C1211.36 96.4204 1213.3 98.8304 1213.3 102C1213.3 105.5 1211.11 107.26 1208.86 107.26C1207.94 107.242 1207.04 106.947 1206.28 106.412C1205.53 105.877 1204.95 105.127 1204.63 104.26H1204.55C1203.66 106.51 1202.07 107.9 1199.88 107.9C1196.74 107.9 1194.63 105.21 1194.63 101.76C1194.68 97.9704 1196.93 95.6904 1199.57 95.6904ZM1199.68 105.42C1201.87 105.42 1202.93 103.89 1203.63 101.42C1203.01 99.3104 1201.63 98.1704 1199.9 98.1704C1199.43 98.1546 1198.96 98.2388 1198.52 98.4176C1198.09 98.5964 1197.69 98.8658 1197.37 99.2078C1197.04 99.5498 1196.79 99.9567 1196.64 100.402C1196.48 100.847 1196.42 101.32 1196.46 101.79C1196.46 104 1197.82 105.42 1199.68 105.42ZM1208.68 98.6904C1206.87 98.6904 1205.9 100.05 1205.35 102.14C1205.52 102.893 1205.94 103.569 1206.53 104.065C1207.12 104.562 1207.86 104.851 1208.63 104.89C1209.03 104.911 1209.43 104.844 1209.81 104.696C1210.18 104.548 1210.52 104.321 1210.8 104.031C1211.08 103.741 1211.29 103.394 1211.42 103.015C1211.56 102.635 1211.61 102.231 1211.57 101.83C1211.61 101.432 1211.56 101.031 1211.44 100.651C1211.31 100.272 1211.11 99.9234 1210.84 99.6278C1210.57 99.3322 1210.24 99.096 1209.87 98.9346C1209.51 98.7731 1209.11 98.69 1208.71 98.6904H1208.68Z" fill="white"/>
<path d="M1194.98 137.74H1196.48L1198.34 139.66C1202.74 144.27 1205.07 146.36 1207.79 146.38C1208.27 146.43 1208.76 146.371 1209.21 146.208C1209.67 146.045 1210.08 145.782 1210.42 145.438C1210.75 145.094 1211.01 144.679 1211.17 144.222C1211.33 143.766 1211.38 143.28 1211.32 142.8C1211.27 141.384 1210.73 140.029 1209.8 138.96L1211.52 138.19C1212.71 139.625 1213.36 141.435 1213.35 143.3C1213.35 147.19 1210.68 148.83 1208.1 148.83C1204.76 148.83 1202.1 146.41 1198.4 142.6L1197.07 141.16H1197.01V149.27H1195.01L1194.98 137.74Z" fill="white"/>
<path d="M1197.79 163.42C1197.07 164.633 1196.68 166.011 1196.65 167.42C1196.65 170.56 1198.65 171.54 1200.15 171.51C1202.68 171.51 1203.76 169.2 1203.76 166.84V165.48H1205.6V166.84C1205.6 168.62 1206.52 170.84 1208.66 170.84C1210.1 170.84 1211.38 169.92 1211.38 167.67C1211.34 166.375 1210.93 165.12 1210.18 164.06L1211.96 163.42C1212.88 164.823 1213.36 166.465 1213.35 168.14C1213.35 171.7 1211.24 173.31 1209.04 173.31C1208.07 173.291 1207.13 172.956 1206.36 172.356C1205.59 171.755 1205.04 170.921 1204.79 169.98C1204.62 171.09 1204.06 172.102 1203.21 172.835C1202.36 173.569 1201.27 173.974 1200.15 173.98C1197.26 173.98 1194.73 171.73 1194.73 167.39C1194.71 165.743 1195.13 164.12 1195.95 162.69L1197.79 163.42Z" fill="white"/>
<path d="M1213.05 199.661H1211.43L1194.98 191.801V189.271L1210.98 197.1H1211.04V188.271H1213.04L1213.05 199.661Z" fill="white"/>
<path d="M1199.57 212.811C1201.85 212.811 1203.46 214.171 1204.4 216.391H1204.49C1204.8 215.572 1205.35 214.864 1206.06 214.354C1206.77 213.843 1207.62 213.554 1208.49 213.521C1211.36 213.521 1213.3 215.94 1213.3 219.11C1213.3 222.61 1211.11 224.36 1208.86 224.36C1207.94 224.344 1207.04 224.049 1206.28 223.513C1205.53 222.978 1204.95 222.228 1204.63 221.36H1204.55C1203.66 223.61 1202.07 225 1199.88 225C1196.74 225 1194.63 222.3 1194.63 218.86C1194.68 215.14 1196.93 212.811 1199.57 212.811ZM1199.68 222.531C1201.87 222.531 1202.93 221.011 1203.63 218.531C1203.01 216.421 1201.63 215.281 1199.9 215.281C1199.43 215.265 1198.96 215.349 1198.53 215.527C1198.09 215.705 1197.7 215.974 1197.37 216.315C1197.05 216.655 1196.8 217.061 1196.64 217.505C1196.48 217.949 1196.42 218.421 1196.46 218.891C1196.46 221.141 1197.82 222.531 1199.68 222.531ZM1208.68 215.811C1206.87 215.811 1205.9 217.17 1205.35 219.26C1205.53 220.013 1205.94 220.687 1206.53 221.183C1207.12 221.679 1207.86 221.97 1208.63 222.01C1209.03 222.031 1209.43 221.964 1209.81 221.816C1210.18 221.668 1210.52 221.441 1210.8 221.151C1211.08 220.861 1211.29 220.514 1211.42 220.135C1211.56 219.755 1211.61 219.351 1211.57 218.951C1211.61 218.552 1211.56 218.151 1211.44 217.771C1211.31 217.392 1211.11 217.044 1210.84 216.748C1210.57 216.452 1210.24 216.216 1209.87 216.055C1209.51 215.893 1209.11 215.81 1208.71 215.811H1208.68Z" fill="white"/>
<path d="M1194.98 245.691H1199.9V237.291H1201.51L1213.05 245.351V247.991H1201.82V250.521H1199.9V247.991H1194.98V245.691ZM1201.82 245.691H1207.82C1208.76 245.691 1209.71 245.691 1210.65 245.771V245.691C1209.6 245.131 1208.82 244.691 1207.99 244.191L1201.84 239.771H1201.79L1201.82 245.691Z" fill="white"/>
<path d="M1210.99 274.011V267.141L1206.35 266.451C1206.42 266.938 1206.46 267.429 1206.46 267.921C1206.48 269.283 1206.13 270.626 1205.46 271.811C1205 272.623 1204.32 273.293 1203.5 273.749C1202.68 274.205 1201.76 274.431 1200.82 274.401C1197.29 274.401 1194.65 271.591 1194.65 267.671C1194.61 266.099 1195 264.545 1195.76 263.171L1197.62 263.781C1196.97 264.965 1196.63 266.291 1196.62 267.641C1196.58 268.183 1196.66 268.726 1196.83 269.239C1197.01 269.752 1197.3 270.223 1197.66 270.623C1198.03 271.024 1198.47 271.345 1198.97 271.568C1199.46 271.791 1200 271.911 1200.54 271.921C1202.87 271.921 1204.54 270.341 1204.54 266.731C1204.53 265.894 1204.47 265.059 1204.35 264.231L1213.02 265.391V274.041L1210.99 274.011Z" fill="white"/>
<path d="M1210.77 360.551V360.501L1209.07 357.361L1210.93 356.881L1213.05 360.881V362.961H1194.98V360.601L1210.77 360.551Z" fill="white"/>
<path d="M1210.77 385.651V385.59L1209.07 382.451L1210.93 381.98L1213.05 385.98V388.061H1194.98V385.701L1210.77 385.651Z" fill="white"/>
<defs>
<clipPath id="clip0_6_3">
<rect width="1251.02" height="468" fill="white"/>
</clipPath>
</defs>
</svg>
