<svg width="1252" height="469" viewBox="0 0 1252 469" fill="none" xmlns="http://www.w3.org/2000/svg">
<path d="M575.521 271.445C566.451 271.445 559.1 264.647 559.1 256.261C559.1 247.876 566.451 241.079 575.521 241.079C584.59 241.079 591.942 247.876 591.942 256.261C591.942 264.647 584.59 271.445 575.521 271.445Z" fill="#161616"/>
<path fill-rule="evenodd" clip-rule="evenodd" d="M951.264 464.509C951.527 464.338 951.785 464.162 952.036 463.98L952.16 464.13C951.847 464.253 951.551 464.379 951.264 464.509ZM938.91 468C945.008 467.618 947.385 466.426 949.719 465.256C950.224 465.003 950.726 464.751 951.264 464.509C951.009 464.674 950.748 464.835 950.483 464.991C947.139 466.949 943.14 468.001 939.04 468H938.91ZM929.887 468H938.91L938.779 468.008C938.779 468.008 935.577 468.005 929.887 468ZM929.887 468C892.072 467.967 744.382 467.851 696.807 468H929.887ZM696.807 468H689.844C691.833 468.005 694.166 468.008 696.807 468ZM689.844 468H683.213C684.262 467.984 685.947 467.989 688.196 467.995C688.203 467.995 688.209 467.995 688.216 467.995C688.729 467.997 689.273 467.999 689.844 468ZM682.284 468C682.346 467.892 682.404 467.809 682.458 467.749C682.438 467.78 682.418 467.815 682.399 467.85C682.378 467.888 682.358 467.924 682.339 467.952C682.32 467.981 682.301 467.999 682.284 468ZM682.643 467.64C682.616 467.649 682.587 467.657 682.558 467.658C682.604 467.627 682.646 467.614 682.686 467.614C682.703 467.615 682.72 467.618 682.736 467.623C682.721 467.622 682.706 467.624 682.691 467.627C682.675 467.631 682.659 467.635 682.643 467.64Z" fill="white"/>
<path fill-rule="evenodd" clip-rule="evenodd" d="M939.04 1.28932e-06H69.7144C69.7144 7.55448 67.9111 15.035 64.4075 22.0143C60.9038 28.9936 55.7687 35.335 49.2949 40.6764C42.8212 46.0177 35.1359 50.2543 26.6779 53.1444C18.2198 56.0345 9.15445 57.5213 0 57.52V410.48C9.15445 410.479 18.2198 411.966 26.6779 414.856C35.1359 417.746 42.8212 421.982 49.2949 427.324C55.7687 432.665 60.9038 439.006 64.4075 445.986C67.9111 452.965 69.7144 460.446 69.7144 468H416.812C407.45 452.6 398.62 434.643 390.681 413.666C390.658 413.603 390.62 413.545 390.571 413.496C390.54 413.464 390.504 413.437 390.465 413.414C383.678 409.488 375.729 404.136 367.64 396.952C361.278 391.309 356.202 385.742 352.204 380.757C352.026 380.534 352.088 380.219 352.337 380.065C356.344 377.608 362.091 373.394 367.13 366.704C370.824 361.772 372.989 357.064 374.248 353.478C374.31 353.305 374.258 353.116 374.119 352.988C367.609 347.089 360.312 339.577 353.235 330.268C347.531 322.784 343.088 315.623 339.618 309.222C339.471 308.952 339.626 308.629 339.937 308.542C345.785 306.929 353.858 303.945 362.065 298.292C366.606 295.153 370.183 291.891 372.927 288.987C373.068 288.839 373.096 288.628 372.999 288.454C369.216 281.572 364.886 271.915 362.318 259.861C360.186 249.823 359.87 240.966 360.149 234.029C360.16 233.773 360.384 233.572 360.659 233.566C366.36 233.446 372.646 233.024 379.413 232.08C392.363 230.289 403.398 227.124 412.181 223.902C412.508 223.782 412.614 223.408 412.396 223.153C402.453 211.657 392.107 195.134 391.3 174.841C391.248 173.334 391.243 171.847 391.284 170.382C391.292 170.11 391.543 169.899 391.837 169.916C398.511 170.307 406.275 170.362 414.817 169.648C425.496 168.756 434.762 166.879 442.333 164.876C442.677 164.785 442.823 164.413 442.621 164.141C437.13 156.757 425.414 138.634 425.91 113.878C426.177 100.995 429.661 90.5404 432.804 83.4922C432.994 83.0642 433.661 83.0956 433.789 83.5439C436.684 93.7081 453.508 145.307 500.794 157.817C508.138 159.762 518.337 161.332 531.104 160.019C531.516 159.977 531.708 159.526 531.443 159.23C524.963 152.03 514.247 138.058 509.369 117.838C505.742 102.882 506.664 90.0459 508.038 81.6564C508.113 81.1924 508.787 81.0981 509.014 81.5178C514.039 90.8094 522.466 103.968 536.113 116.841C548.95 128.96 558.1 132.993 567.21 137.008L567.218 137.011C575.48 140.651 583.712 144.28 594.638 153.908C633.41 188.062 636.382 236.357 636.58 241.025C636.64 242.139 636.643 242.864 636.65 244.992L636.653 245.654L636.655 246.091L636.658 246.955C636.66 247.341 636.662 247.759 636.664 248.213C636.737 261.685 636.813 275.151 636.89 288.617L636.892 288.848L636.917 293.266L636.919 293.567C636.987 305.518 637.056 317.471 637.118 329.429C637.118 329.464 637.121 329.495 637.129 329.529C637.24 330.049 637.918 333.879 634.797 336.722C631.651 339.585 627.466 338.794 627.06 338.717L627.043 338.715H627.021C616.188 338.715 605.357 338.715 594.524 338.741C577.431 339.424 565.687 334.622 560.225 331.921C546.357 325.047 538.009 314.45 536.877 312.981C521.68 293.255 520.039 290.683 520.039 290.683L519.901 290.467C518.297 287.932 516.066 284.409 512.737 284.23C509.058 284.021 505.888 288.034 503.483 291.523C487.182 315.158 484.635 339.816 498.303 364.868C501.387 370.535 508.775 383.73 525.358 393.592C541.773 403.377 557.961 404.426 565.036 404.479C581.934 404.479 598.818 404.457 615.707 404.436L615.719 404.436H615.731H615.743H615.755H615.767L617.725 404.433H618.139C626.831 404.42 635.524 404.409 644.22 404.401C645.127 404.321 651.098 403.955 655.824 408.177C661.116 412.873 660.353 419.248 660.267 419.93C660.155 425.702 660.749 435.853 665.928 447.264C670.676 457.732 677.179 463.569 681.759 467.68L682.115 468H682.2C682.233 467.992 682.265 467.983 682.284 468C682.346 467.892 682.404 467.809 682.458 467.749C682.491 467.698 682.525 467.659 682.558 467.658C682.604 467.627 682.646 467.614 682.686 467.614C682.703 467.615 682.72 467.618 682.736 467.623L682.738 467.623C682.821 467.627 682.884 467.629 682.994 468C683.025 467.999 683.064 468 683.103 468H683.213C683.102 418.722 682.984 382.181 682.865 345.641C682.745 308.53 682.625 271.416 682.513 220.957C682.597 212.302 681.464 198.476 674.502 183.21C670.546 174.58 665.774 167.48 661.519 162.338C661.255 162.018 661.501 161.555 661.936 161.555H992.456V160.49C992.45 160.119 992.536 159.75 992.706 159.407C992.877 159.063 993.129 158.751 993.449 158.49C994.758 157.41 997.181 157.21 999.193 159.14V161.555H1052.98C1053.26 161.555 1053.49 161.756 1053.49 162.013C1053.47 162.889 1053.26 163.782 1052.54 164.742C1051.26 166.495 1048.88 166.953 1047.73 167.173L1047.73 167.174L1047.69 167.18C1047.42 167.233 1047.22 167.272 1047.14 167.313C985.611 194.043 940.387 257.341 959.122 326.491C961.427 334.959 956.102 335.624 949.564 336.438L949.189 336.485C900.426 342.597 856.929 360.226 818.497 388.582C818.303 388.725 818.108 388.868 817.914 389.01C817.611 389.231 817.307 389.451 817.002 389.672L816.63 389.94L816.48 390.048L816.469 390.055C811.56 393.605 806.405 397.334 802.056 404.05C801.849 404.367 802.101 404.767 802.5 404.767H983.628C984.059 404.767 984.304 405.224 984.044 405.543L982.754 407.12C972.556 419.583 962.358 432.047 952.16 444.537C951.424 445.349 947.009 450.334 948.226 456.84C948.763 459.75 950.235 461.849 951.254 463.03C951.819 463.711 951.766 463.649 951.708 463.581L951.707 463.58L951.703 463.575C951.682 463.55 951.663 463.528 951.677 463.545L951.71 463.586C951.757 463.643 951.854 463.76 952.036 463.98C954.61 462.127 956.567 459.749 957.701 457.07C960.453 450.534 965.603 444.867 972.436 440.857C979.269 436.847 987.446 434.692 995.83 434.692C1004.22 434.692 1012.39 436.847 1019.22 440.857C1026.06 444.867 1031.21 450.534 1033.96 457.07C1035.31 460.266 1037.83 463.036 1041.18 464.994C1044.52 466.953 1048.52 468.004 1052.62 468H1251.02V1.28932e-06H1052.62C1048.52 0.00160349 1044.52 1.05535 1041.18 3.01538C1037.83 4.97541 1035.31 7.74483 1033.96 10.9401C1031.2 17.4715 1026.05 23.1329 1019.22 27.139C1012.39 31.1452 1004.21 33.2975 995.83 33.2975C987.449 33.2975 979.276 31.1452 972.443 27.139C965.611 23.1329 960.459 17.4715 957.701 10.9401C956.352 7.7432 953.831 4.97216 950.487 3.01172C947.143 1.05128 943.142 -0.00134475 939.04 1.28932e-06ZM993.449 48.0701C994.758 46.9801 997.181 46.79 999.193 48.71V82.28C999.199 82.6506 999.116 83.0184 998.947 83.3618C998.779 83.7053 998.529 84.0175 998.212 84.28C996.891 85.36 994.479 85.56 992.456 83.64V50.0701C992.449 49.6986 992.533 49.3298 992.704 48.9861C992.875 48.6423 993.128 48.3308 993.449 48.0701ZM993.449 103.28C994.758 102.19 997.181 102.01 999.193 103.92V137.48C999.199 137.851 999.116 138.218 998.947 138.562C998.779 138.905 998.529 139.217 998.212 139.48C996.891 140.57 994.479 140.76 992.456 138.85V105.28C992.449 104.909 992.533 104.54 992.704 104.196C992.875 103.852 993.128 103.541 993.449 103.28ZM993.449 213.71C994.758 212.61 997.181 212.43 999.193 214.34V247.91C999.201 248.281 999.118 248.649 998.949 248.992C998.78 249.336 998.53 249.648 998.212 249.91C996.891 251.01 994.479 251.19 992.456 249.28V215.71C992.448 215.338 992.532 214.969 992.702 214.625C992.873 214.281 993.127 213.97 993.449 213.71ZM993.449 268.92C994.758 267.84 997.181 267.64 999.193 269.57V303.12C999.199 303.491 999.116 303.858 998.947 304.202C998.779 304.545 998.529 304.857 998.212 305.12C996.891 306.21 994.479 306.4 992.456 304.49V270.92C992.449 270.549 992.533 270.18 992.704 269.836C992.875 269.492 993.128 269.181 993.449 268.92ZM998.212 415.51C996.891 416.61 994.479 416.79 992.456 414.88V381.31C992.448 380.938 992.532 380.569 992.702 380.225C992.873 379.881 993.127 379.57 993.449 379.31C994.758 378.21 997.181 378.03 999.193 379.94V413.51C999.201 413.881 999.118 414.249 998.949 414.592C998.78 414.936 998.53 415.248 998.212 415.51ZM998.212 360.31C996.891 361.39 994.479 361.59 992.456 359.66L992.468 326.1L992.466 326.087L992.465 326.075C992.464 326.055 992.463 326.036 992.463 326.016C992.463 325.991 992.465 325.965 992.468 325.94C992.515 325.258 992.864 324.614 993.449 324.13C994.758 323.05 997.181 322.85 999.193 324.78V358.34C999.192 359.037 998.871 359.709 998.296 360.22L998.212 360.31Z" fill="#161616"/>
<path fill-rule="evenodd" clip-rule="evenodd" d="M689.844 468C689.273 467.999 688.729 467.997 688.216 467.995L688.196 467.995C685.947 467.989 684.262 467.984 683.213 468H689.844Z" fill="#454545" fill-opacity="0.2"/>
<path d="M998.212 194.69C996.891 195.78 994.479 195.98 992.456 194.05V161.555H661.936C661.501 161.555 661.255 162.018 661.519 162.338C665.774 167.48 670.546 174.58 674.502 183.21C681.464 198.476 682.597 212.302 682.513 220.957C682.625 271.416 682.745 308.53 682.865 345.641C682.984 382.181 683.102 418.722 683.213 468C684.262 467.984 685.947 467.989 688.196 467.995L688.216 467.995C688.729 467.997 689.273 467.999 689.844 468H696.807C744.382 467.851 892.072 467.967 929.887 468H938.91C945.008 467.618 947.385 466.426 949.719 465.256C950.224 465.003 950.726 464.751 951.264 464.509C951.527 464.338 951.785 464.162 952.036 463.98C951.854 463.76 951.757 463.643 951.71 463.586L951.677 463.545C951.663 463.528 951.682 463.55 951.703 463.575L951.707 463.58L951.708 463.581C951.766 463.649 951.819 463.711 951.254 463.03C950.235 461.849 948.763 459.75 948.226 456.84C947.009 450.334 951.424 445.349 952.16 444.537C962.358 432.047 972.556 419.583 982.754 407.12L984.044 405.543C984.304 405.224 984.059 404.767 983.628 404.767H802.5C802.101 404.767 801.849 404.367 802.056 404.05C806.405 397.334 811.56 393.605 816.469 390.055L816.48 390.048L816.63 389.94L817.002 389.672C817.307 389.451 817.611 389.231 817.914 389.01C818.108 388.868 818.303 388.725 818.497 388.582C856.929 360.226 900.426 342.597 949.189 336.485L949.564 336.438C956.102 335.624 961.427 334.959 959.122 326.491C940.387 257.341 985.611 194.043 1047.14 167.313C1047.22 167.272 1047.42 167.233 1047.69 167.18L1047.73 167.174L1047.73 167.173C1048.88 166.953 1051.26 166.495 1052.54 164.742C1053.26 163.782 1053.47 162.889 1053.49 162.013C1053.49 161.756 1053.26 161.555 1052.98 161.555H999.193V192.69C999.199 193.061 999.116 193.428 998.947 193.772C998.779 194.115 998.529 194.428 998.212 194.69Z" fill="#454545"/>
<path fill-rule="evenodd" clip-rule="evenodd" d="M665.928 447.264C660.749 435.853 660.155 425.702 660.267 419.93C660.353 419.248 661.116 412.873 655.824 408.177C651.098 403.955 645.127 404.321 644.22 404.401C635.524 404.409 626.831 404.42 618.139 404.433H617.725L615.767 404.436H615.755H615.743H615.731H615.719L615.707 404.436C598.818 404.457 581.934 404.479 565.036 404.479C557.961 404.426 541.773 403.377 525.358 393.592C508.775 383.73 501.387 370.535 498.303 364.868C484.635 339.816 487.182 315.158 503.483 291.523C505.888 288.034 509.058 284.021 512.737 284.23C516.066 284.409 518.297 287.932 519.901 290.467L520.039 290.683C520.039 290.683 521.68 293.255 536.877 312.981C538.009 314.45 546.357 325.047 560.225 331.921C565.687 334.622 577.431 339.424 594.524 338.741C605.357 338.715 616.188 338.715 627.021 338.715H627.043L627.06 338.717C627.466 338.794 631.651 339.585 634.797 336.722C637.918 333.879 637.24 330.049 637.129 329.529C637.121 329.495 637.118 329.464 637.118 329.429C637.056 317.471 636.987 305.518 636.919 293.567L636.917 293.266L636.892 288.848L636.89 288.617C636.813 275.151 636.737 261.685 636.664 248.213C636.662 247.759 636.66 247.341 636.658 246.955L636.655 246.091L636.653 245.654L636.65 244.992C636.643 242.864 636.64 242.139 636.58 241.025C636.382 236.357 633.41 188.062 594.638 153.908C583.712 144.28 575.48 140.651 567.218 137.011L567.21 137.008C558.1 132.993 548.95 128.96 536.113 116.841C522.466 103.968 514.039 90.8094 509.014 81.5178C508.787 81.0981 508.113 81.1924 508.038 81.6564C506.664 90.0459 505.742 102.882 509.369 117.838C514.247 138.058 524.963 152.03 531.443 159.23C531.708 159.526 531.516 159.977 531.104 160.019C518.337 161.332 508.138 159.762 500.794 157.817C453.508 145.307 436.684 93.7081 433.789 83.5439C433.661 83.0956 432.994 83.0642 432.804 83.4922C429.661 90.5404 426.177 100.995 425.91 113.878C425.414 138.634 437.13 156.757 442.621 164.141C442.823 164.413 442.677 164.785 442.333 164.876C434.762 166.879 425.496 168.756 414.817 169.648C406.275 170.362 398.511 170.307 391.837 169.916C391.543 169.899 391.292 170.11 391.284 170.382C391.243 171.847 391.248 173.334 391.3 174.841C392.107 195.134 402.453 211.657 412.396 223.153C412.614 223.408 412.508 223.782 412.181 223.902C403.398 227.124 392.363 230.289 379.413 232.08C372.646 233.024 366.36 233.446 360.659 233.566C360.384 233.572 360.16 233.773 360.149 234.029C359.87 240.966 360.186 249.823 362.318 259.861C364.886 271.915 369.216 281.572 372.999 288.454C373.096 288.628 373.068 288.839 372.927 288.987C370.183 291.891 366.606 295.153 362.065 298.292C353.858 303.945 345.785 306.929 339.937 308.542C339.626 308.629 339.471 308.952 339.618 309.222C343.088 315.623 347.531 322.784 353.235 330.268C360.312 339.577 367.609 347.089 374.119 352.988C374.258 353.116 374.31 353.305 374.248 353.478C372.989 357.064 370.824 361.772 367.13 366.704C362.091 373.394 356.344 377.608 352.337 380.065C352.088 380.219 352.026 380.534 352.204 380.757C356.202 385.742 361.278 391.309 367.64 396.952C375.729 404.136 383.678 409.488 390.465 413.414C390.504 413.437 390.54 413.464 390.571 413.496C390.62 413.545 390.658 413.603 390.681 413.666C398.62 434.643 407.45 452.6 416.812 468H682.115L681.759 467.68C677.179 463.569 670.676 457.732 665.928 447.264ZM559.1 256.261C559.1 264.647 566.451 271.445 575.521 271.445C584.59 271.445 591.942 264.647 591.942 256.261C591.942 247.876 584.59 241.079 575.521 241.079C566.451 241.079 559.1 247.876 559.1 256.261Z" fill="#454545"/>
<path d="M1081.33 39.1885H1177.94V53.6184H1081.33V39.1885Z" fill="white"/>
<path d="M1081.33 59.8389H1177.94V63.5089H1081.33V59.8389Z" fill="white"/>
<path d="M1081.33 67.6289H1177.94V71.299H1081.33V67.6289Z" fill="white"/>
<path d="M1081.33 72.7285H1177.94V81.7786H1081.33V72.7285Z" fill="white"/>
<path d="M1081.33 84.3584H1177.94V85.7384H1081.33V84.3584Z" fill="white"/>
<path d="M1081.33 194.409H1177.94V195.789H1081.33V194.409Z" fill="white"/>
<path d="M1081.33 225.429H1177.94V226.809H1081.33V225.429Z" fill="white"/>
<path d="M1081.33 260.278H1177.94V261.658H1081.33V260.278Z" fill="white"/>
<path d="M1081.33 263.509H1177.94V264.889H1081.33V263.509Z" fill="white"/>
<path d="M1081.33 90.999H1177.94V94.6691H1081.33V90.999Z" fill="white"/>
<path d="M1081.33 98.7891H1177.94V100.619H1081.33V98.7891Z" fill="white"/>
<path d="M1081.33 102.509H1177.94V104.339H1081.33V102.509Z" fill="white"/>
<path d="M1081.33 106.589H1177.94V110.259H1081.33V106.589Z" fill="white"/>
<path d="M1081.33 112.129H1177.94V120.299H1081.33V112.129Z" fill="white"/>
<path d="M1081.33 122.099H1177.94V124.069H1081.33V122.099Z" fill="white"/>
<path d="M1081.33 129.959H1177.94V133.629H1081.33V129.959Z" fill="white"/>
<path d="M1081.33 135.619H1177.94V139.289H1081.33V135.619Z" fill="white"/>
<path d="M1081.33 143.688H1177.94V151.068H1081.33V143.688Z" fill="white"/>
<path d="M1081.33 153.329H1177.94V156.999H1081.33V153.329Z" fill="white"/>
<path d="M1081.33 161.129H1177.94V164.799H1081.33V161.129Z" fill="white"/>
<path d="M1081.33 171.579H1177.94V175.249H1081.33V171.579Z" fill="white"/>
<path d="M1081.33 176.709H1177.94V180.379H1081.33V176.709Z" fill="white"/>
<path d="M1081.33 184.499H1177.94V188.169H1081.33V184.499Z" fill="white"/>
<path d="M1081.33 199.079H1177.94V204.749H1081.33V199.079Z" fill="white"/>
<path d="M1081.33 215.669H1177.94V219.339H1081.33V215.669Z" fill="white"/>
<path d="M1081.33 229.469H1177.94V236.699H1081.33V229.469Z" fill="white"/>
<path d="M1081.33 239.039H1177.94V242.709H1081.33V239.039Z" fill="white"/>
<path d="M1081.33 246.829H1177.94V250.499H1081.33V246.829Z" fill="white"/>
<path d="M1081.33 251.389H1177.94V255.059H1081.33V251.389Z" fill="white"/>
<path d="M1081.33 270.209H1177.94V273.879H1081.33V270.209Z" fill="white"/>
<path d="M1081.33 277.999H1177.94V281.669H1081.33V277.999Z" fill="white"/>
<path d="M1081.33 285.719H1177.94V287.689H1081.33V285.719Z" fill="white"/>
<path d="M1081.33 293.509H1177.94V295.479H1081.33V293.509Z" fill="white"/>
<path d="M1081.33 300.329H1177.94V306.079H1081.33V300.329Z" fill="white"/>
<path d="M1081.33 307.148H1177.94V314.848H1081.33V307.148Z" fill="white"/>
<path d="M1081.33 324.739H1177.94V328.409H1081.33V324.739Z" fill="white"/>
<path d="M1081.33 332.539H1177.94V336.209H1081.33V332.539Z" fill="white"/>
<path d="M1081.33 342.159H1177.94V343.989H1081.33V342.159Z" fill="white"/>
<path d="M1081.33 321.319H1177.94V323.149H1081.33V321.319Z" fill="white"/>
<path d="M1081.33 360.999H1177.94V362.829H1081.33V360.999Z" fill="white"/>
<path d="M1081.33 345.869H1177.94V354.039H1081.33V345.869Z" fill="white"/>
<path d="M1081.33 355.909H1177.94V357.739H1081.33V355.909Z" fill="white"/>
<path d="M1081.33 371.489H1177.94V375.159H1081.33V371.489Z" fill="white"/>
<path d="M1081.33 379.278H1177.94V382.948H1081.33V379.278Z" fill="white"/>
<path d="M1081.33 387.079H1177.94V390.749H1081.33V387.079Z" fill="white"/>
<path d="M1081.33 395.688H1177.94V406.058H1081.33V395.688Z" fill="white"/>
<path d="M1081.33 410.448H1177.94V414.118H1081.33V410.448Z" fill="white"/>
<path d="M1081.33 418.239H1205.07V421.909H1081.33V418.239Z" fill="white"/>
<path d="M1081.33 426.028H1205.07V429.698H1081.33V426.028Z" fill="white"/>
<path d="M1187.05 41.9893H1188.55L1190.41 43.9093C1194.81 48.5293 1197.14 50.6093 1199.86 50.6393C1201.7 50.6393 1203.39 49.7493 1203.39 47.0493C1203.34 45.6358 1202.8 44.2831 1201.87 43.2192L1203.59 42.4393C1204.77 43.8774 1205.42 45.6848 1205.42 47.5493C1205.42 51.4393 1202.75 53.0792 1200.17 53.0792C1196.83 53.0792 1194.17 50.6693 1190.47 46.8593L1189.14 45.4093H1189.08V53.5093H1187.08L1187.05 41.9893Z" fill="white"/>
<path d="M1189.86 67.6685C1189.14 68.8808 1188.74 70.259 1188.72 71.6685C1188.72 74.8085 1190.72 75.7784 1192.22 75.7484C1194.75 75.7484 1195.83 73.4384 1195.83 71.0784V69.7184H1197.67V71.0784C1197.67 72.8584 1198.59 75.0784 1200.73 75.0784C1202.17 75.0784 1203.45 74.1684 1203.45 71.9084C1203.41 70.6135 1202.99 69.3582 1202.25 68.2985L1204.03 67.6584C1204.94 69.0649 1205.43 70.7096 1205.42 72.3884C1205.42 75.9384 1203.31 77.5585 1201.11 77.5585C1199.25 77.5585 1197.67 76.4384 1196.86 74.2184C1196.69 75.328 1196.12 76.3404 1195.27 77.0735C1194.42 77.8066 1193.34 78.2125 1192.22 78.2184C1189.33 78.2184 1186.8 75.9684 1186.8 71.6284C1186.78 69.9843 1187.2 68.3651 1188.02 66.9385L1189.86 67.6685Z" fill="white"/>
<path d="M1203.39 102.509C1203.42 101.894 1203.38 101.277 1203.28 100.669C1203.05 99.0592 1202.3 97.5691 1201.14 96.4326C1199.98 95.296 1198.47 94.5773 1196.86 94.389V94.479C1197.52 94.9922 1198.06 95.6539 1198.42 96.411C1198.78 97.1681 1198.96 97.9995 1198.95 98.839C1198.95 102.039 1196.64 104.289 1193.11 104.289C1189.8 104.289 1186.75 102.039 1186.75 98.289C1186.75 94.539 1189.75 91.899 1194.44 91.899C1195.93 91.8487 1197.42 92.0931 1198.82 92.6181C1200.22 93.1432 1201.5 93.9386 1202.59 94.959C1204.09 96.5374 1205.03 98.5701 1205.26 100.739C1205.35 101.328 1205.39 101.923 1205.39 102.519L1203.39 102.509ZM1192.97 101.809C1195.56 101.809 1197.11 100.339 1197.11 98.089C1197.09 97.3585 1196.88 96.646 1196.49 96.029C1196.1 95.412 1195.54 94.914 1194.89 94.589C1194.56 94.3976 1194.19 94.3007 1193.81 94.3091C1190.81 94.3091 1188.64 95.7291 1188.64 98.3091C1188.64 100.389 1190.39 101.799 1192.97 101.799V101.809Z" fill="white"/>
<path d="M1191.64 117.059C1193.92 117.059 1195.53 118.419 1196.47 120.649H1196.56C1196.87 119.833 1197.42 119.127 1198.13 118.619C1198.84 118.111 1199.68 117.822 1200.56 117.789C1203.43 117.789 1205.37 120.199 1205.37 123.369C1205.37 126.869 1203.18 128.629 1200.93 128.629C1200 128.61 1199.1 128.315 1198.35 127.78C1197.6 127.245 1197.02 126.495 1196.7 125.629H1196.62C1195.73 127.879 1194.14 129.269 1191.95 129.269C1188.81 129.269 1186.7 126.579 1186.7 123.129C1186.75 119.339 1189 117.059 1191.64 117.059ZM1191.75 126.789C1193.94 126.789 1195 125.259 1195.7 122.789C1195.08 120.679 1193.7 119.539 1191.97 119.539C1191.5 119.523 1191.03 119.607 1190.59 119.786C1190.15 119.965 1189.76 120.234 1189.43 120.576C1189.11 120.918 1188.86 121.325 1188.7 121.77C1188.55 122.215 1188.49 122.688 1188.53 123.159C1188.53 125.369 1189.89 126.789 1191.75 126.789ZM1200.75 120.059C1198.94 120.059 1197.97 121.419 1197.42 123.509C1197.59 124.261 1198 124.937 1198.6 125.433C1199.19 125.93 1199.93 126.219 1200.7 126.259C1201.1 126.279 1201.5 126.213 1201.87 126.064C1202.25 125.916 1202.59 125.689 1202.86 125.399C1203.14 125.109 1203.36 124.762 1203.49 124.383C1203.62 124.003 1203.67 123.599 1203.64 123.198C1203.67 122.8 1203.63 122.399 1203.5 122.02C1203.38 121.64 1203.17 121.292 1202.9 120.996C1202.63 120.7 1202.3 120.464 1201.94 120.303C1201.57 120.141 1201.18 120.058 1200.78 120.059H1200.75Z" fill="white"/>
<path d="M1187.05 159.108H1188.55L1190.41 161.028C1194.81 165.638 1197.14 167.728 1199.86 167.748C1200.34 167.798 1200.82 167.739 1201.28 167.576C1201.73 167.413 1202.14 167.15 1202.48 166.806C1202.82 166.463 1203.08 166.047 1203.23 165.59C1203.39 165.134 1203.44 164.648 1203.39 164.168C1203.33 162.752 1202.8 161.397 1201.87 160.328L1203.59 159.558C1204.78 160.994 1205.43 162.803 1205.42 164.668C1205.42 168.558 1202.75 170.198 1200.17 170.198C1196.83 170.198 1194.17 167.778 1190.47 163.968L1189.14 162.528H1189.08V170.638H1187.08L1187.05 159.108Z" fill="white"/>
<path d="M1189.86 184.789C1189.14 186.001 1188.74 187.379 1188.72 188.789C1188.72 191.929 1190.72 192.909 1192.22 192.879C1194.75 192.879 1195.83 190.568 1195.83 188.208V186.849H1197.67V188.208C1197.67 189.988 1198.59 192.208 1200.73 192.208C1202.17 192.208 1203.45 191.289 1203.45 189.039C1203.41 187.744 1202.99 186.488 1202.25 185.429L1204.03 184.789C1204.94 186.191 1205.43 187.833 1205.42 189.509C1205.42 193.069 1203.31 194.679 1201.11 194.679C1200.13 194.66 1199.19 194.324 1198.43 193.724C1197.66 193.123 1197.11 192.289 1196.86 191.349C1196.69 192.458 1196.12 193.47 1195.27 194.204C1194.42 194.937 1193.34 195.343 1192.22 195.349C1189.33 195.349 1186.8 193.099 1186.8 188.759C1186.78 187.111 1187.2 185.488 1188.02 184.059L1189.86 184.789Z" fill="white"/>
<path d="M1205.12 221.029H1203.5L1187.05 213.169V210.639L1203.05 218.469H1203.11V209.639H1205.11L1205.12 221.029Z" fill="white"/>
<path d="M1191.64 234.179C1193.92 234.179 1195.53 235.539 1196.47 237.759H1196.56C1196.87 236.941 1197.41 236.232 1198.13 235.722C1198.84 235.211 1199.68 234.922 1200.56 234.889C1203.43 234.889 1205.37 237.309 1205.37 240.479C1205.37 243.979 1203.18 245.729 1200.93 245.729C1200 245.712 1199.1 245.417 1198.35 244.882C1197.59 244.346 1197.02 243.596 1196.7 242.729H1196.62C1195.73 244.979 1194.14 246.369 1191.95 246.369C1188.81 246.369 1186.7 243.669 1186.7 240.229C1186.75 236.509 1189 234.179 1191.64 234.179ZM1191.75 243.899C1193.94 243.899 1195 242.379 1195.7 239.899C1195.08 237.789 1193.7 236.649 1191.97 236.649C1191.5 236.633 1191.03 236.717 1190.59 236.895C1190.16 237.073 1189.76 237.342 1189.44 237.683C1189.11 238.024 1188.86 238.429 1188.71 238.873C1188.55 239.317 1188.49 239.789 1188.53 240.259C1188.53 242.509 1189.89 243.899 1191.75 243.899ZM1200.75 237.179C1198.94 237.179 1197.97 238.539 1197.42 240.629C1197.59 241.381 1198.01 242.056 1198.6 242.552C1199.19 243.048 1199.93 243.338 1200.7 243.379C1201.1 243.399 1201.5 243.333 1201.87 243.184C1202.25 243.036 1202.59 242.809 1202.86 242.519C1203.14 242.229 1203.36 241.882 1203.49 241.503C1203.62 241.123 1203.67 240.719 1203.64 240.319C1203.67 239.921 1203.63 239.519 1203.5 239.14C1203.38 238.76 1203.17 238.412 1202.9 238.116C1202.63 237.82 1202.3 237.584 1201.94 237.423C1201.57 237.261 1201.18 237.178 1200.78 237.179H1200.75Z" fill="white"/>
<path d="M1187.05 267.059H1191.97V258.659H1193.58L1205.12 266.719V269.359H1193.89V271.889H1191.97V269.359H1187.05V267.059ZM1193.89 267.059H1199.89C1200.83 267.059 1201.78 267.059 1202.72 267.139V267.059C1201.67 266.499 1200.89 266.059 1200.06 265.559L1193.91 261.139H1193.86L1193.89 267.059Z" fill="white"/>
<path d="M1203.06 295.379V288.509L1198.42 287.819C1198.49 288.306 1198.53 288.797 1198.53 289.289C1198.54 290.651 1198.2 291.994 1197.53 293.179C1197.06 293.991 1196.38 294.661 1195.57 295.117C1194.75 295.573 1193.82 295.799 1192.89 295.769C1189.36 295.769 1186.72 292.959 1186.72 289.039C1186.68 287.467 1187.06 285.913 1187.83 284.539L1189.69 285.149C1189.04 286.333 1188.7 287.659 1188.69 289.009C1188.65 289.551 1188.72 290.094 1188.9 290.607C1189.08 291.12 1189.36 291.591 1189.73 291.991C1190.09 292.392 1190.54 292.713 1191.03 292.936C1191.53 293.16 1192.06 293.28 1192.61 293.289C1194.94 293.289 1196.61 291.709 1196.61 288.099C1196.6 287.262 1196.53 286.427 1196.42 285.599L1205.09 286.759V295.409L1203.06 295.379Z" fill="white"/>
<path d="M1202.84 381.919V381.869L1201.14 378.729L1203 378.249L1205.12 382.249V384.329H1187.05V381.969L1202.84 381.919Z" fill="white"/>
<path d="M1202.84 407.019V406.959L1201.14 403.819L1203 403.349L1205.12 407.349V409.429H1187.05V407.069L1202.84 407.019Z" fill="white"/>
</svg>
