<svg width="66" height="67" viewBox="0 0 66 67" fill="none" xmlns="http://www.w3.org/2000/svg">
<path d="M32.6777 66.0081C50.4866 66.0081 64.9355 51.3322 64.9355 33.2141C64.9354 15.0963 50.4865 0.420197 32.6777 0.420197C14.8691 0.420347 0.421085 15.0964 0.420898 33.2141C0.420898 51.3321 14.869 66.0079 32.6777 66.0081Z" fill="#F6060A" stroke="#F6060A" stroke-width="0.841228"/>
<path d="M37.9274 17.8154C37.1363 18.0274 36.6668 18.8406 36.8788 19.6317L39.9382 31.0495C40.2801 32.3257 38.9084 33.3783 37.7642 32.7177L21.4707 23.3106C20.7614 22.9011 19.8544 23.1441 19.4449 23.8534L17.9562 26.4319C17.5467 27.1412 17.7897 28.0481 18.499 28.4577L43.8889 43.1165C44.5982 43.526 45.5051 43.283 45.9147 42.5737L48.1413 38.717C48.1433 38.7136 48.1421 38.7094 48.1388 38.7074L48.1345 38.705C48.1307 38.7028 48.1314 38.697 48.1357 38.6959C48.1383 38.6952 48.1399 38.6925 48.1392 38.6898L42.6203 18.0933C42.4084 17.3021 41.5952 16.8326 40.804 17.0446L37.9274 17.8154ZM24.5555 49.3825C23.7644 49.5945 22.9512 49.125 22.7392 48.3339L21.9684 45.4572C21.7564 44.6661 22.2259 43.8529 23.017 43.6409L36.3811 40.06C37.1722 39.848 37.9854 40.3175 38.1974 41.1087L38.9682 43.9853C39.1801 44.7764 38.7107 45.5896 37.9195 45.8016L24.5555 49.3825Z" fill="white"/>
</svg>
