<svg width="66" height="67" viewBox="0 0 66 67" fill="none" xmlns="http://www.w3.org/2000/svg">
<path d="M32.6777 65.9912C50.4867 65.9912 64.9355 51.3193 64.9355 33.2061C64.9355 15.0929 50.4866 0.420898 32.6777 0.420898C14.869 0.421049 0.420961 15.093 0.420898 33.2061C0.420898 51.3192 14.8689 65.9911 32.6777 65.9912Z" fill="#161616" stroke="#161616" stroke-width="0.841228"/>
<path d="M39.3649 17.4237C37.7796 17.8485 36.8389 19.478 37.2636 21.0633L37.7743 22.9689C38.9144 27.2239 34.3409 30.7333 30.5259 28.5307L22.7613 24.0478C21.3401 23.2273 19.5229 23.7142 18.7024 25.1354C17.8819 26.5565 18.3688 28.3737 19.79 29.1942L42.5984 42.3627C44.0196 43.1832 45.8368 42.6962 46.6573 41.2751L48.1394 38.708C48.1413 38.7046 48.1402 38.7003 48.1368 38.6984L48.1326 38.6959C48.1287 38.6937 48.1295 38.688 48.1338 38.6869C48.1364 38.6862 48.138 38.6835 48.1373 38.6808L43.0045 19.525C42.5797 17.9397 40.9502 16.999 39.3649 17.4237ZM25.9947 48.9867C24.4095 49.4115 22.78 48.4707 22.3552 46.8854C21.9304 45.3002 22.8712 43.6707 24.4565 43.2459L34.9425 40.4362C36.5278 40.0114 38.1573 40.9522 38.5821 42.5375C39.0069 44.1228 38.0661 45.7522 36.4808 46.177L25.9947 48.9867Z" fill="white"/>
</svg>
