<svg width="61" height="61" viewBox="0 0 61 61" fill="none" xmlns="http://www.w3.org/2000/svg">
<path fill-rule="evenodd" clip-rule="evenodd" d="M30.0238 60.8188C46.6054 60.8188 60.0475 47.2041 60.0475 30.4094C60.0475 13.6148 46.6054 0 30.0238 0C13.4421 0 0 13.6148 0 30.4094C0 47.2041 13.4421 60.8188 30.0238 60.8188ZM39.3901 14.166C39.846 12.5257 38.2744 11.5558 36.8391 12.5915L16.803 27.0485C15.2464 28.1717 15.4912 30.4094 17.1707 30.4094H22.4468V30.368H32.7296L24.3511 33.3623L20.6574 46.6529C20.2015 48.2932 21.7729 49.2631 23.2084 48.2274L43.2446 33.7704C44.8011 32.6472 44.5561 30.4094 42.8768 30.4094H34.8757L39.3901 14.166Z" fill="#161616"/>
</svg>
