<svg width="62" height="61" viewBox="0 0 62 61" fill="none" xmlns="http://www.w3.org/2000/svg">
<path fill-rule="evenodd" clip-rule="evenodd" d="M30.7924 0C47.7985 0 61.5846 13.5506 61.5846 30.2662C61.5846 46.9819 47.7985 60.5325 30.7924 60.5325C13.7862 60.5325 0 46.9819 0 30.2662C0 13.5506 13.7862 0 30.7924 0ZM60.4027 30.2662C60.4027 14.1923 47.1457 1.16162 30.7924 1.16162C29.4732 1.16162 28.1744 1.2464 26.9008 1.41073C27.7236 1.34002 28.5562 1.30392 29.3977 1.30392C45.0242 1.30392 57.692 13.7553 57.692 29.1148C57.692 44.4742 45.0242 56.9256 29.3977 56.9256C14.6036 56.9256 2.4614 45.7655 1.20981 31.5431C1.88972 47.0246 14.8741 59.3708 30.7924 59.3708C47.1457 59.3708 60.4027 46.3402 60.4027 30.2662ZM56.5101 29.1148C56.5101 14.3968 44.3715 2.46555 29.3977 2.46555C28.1819 2.46555 26.9847 2.54422 25.8112 2.69664C26.5338 2.63688 27.2648 2.6064 28.0031 2.6064C42.25 2.6064 53.7993 13.9585 53.7993 27.9618C53.7993 41.9653 42.25 53.3173 28.0031 53.3173C14.5324 53.3173 3.47319 43.1683 2.30837 30.2252C2.90061 44.4282 14.8024 55.764 29.3977 55.764C44.3715 55.764 56.5101 43.8327 56.5101 29.1148ZM28.0031 3.76803C41.5972 3.76803 52.6175 14.6 52.6175 27.9618C52.6175 41.3237 41.5972 52.1556 28.0031 52.1556C14.724 52.1556 3.90077 41.8197 3.40645 28.8862C4.47369 40.56 14.4542 49.7089 26.6087 49.7089C39.475 49.7089 49.9053 39.4569 49.9053 26.8103C49.9053 14.1638 39.475 3.91177 26.6087 3.91177C25.9431 3.91177 25.2839 3.93921 24.6325 3.99299C25.7345 3.84466 26.8597 3.76803 28.0031 3.76803ZM48.7234 26.8103C48.7234 14.8054 38.8223 5.0734 26.6087 5.0734C25.5767 5.0734 24.5612 5.14286 23.567 5.27731C24.1098 5.23554 24.6586 5.21427 25.2125 5.21427C36.6993 5.21427 46.0111 14.367 46.0111 25.6575C46.0111 36.9479 36.6993 46.1007 25.2125 46.1007C14.401 46.1007 5.51615 37.9922 4.50907 27.6248C4.94477 39.2524 14.6724 48.5473 26.6087 48.5473C38.8223 48.5473 48.7234 38.8154 48.7234 26.8103ZM25.2125 6.37589C36.0465 6.37589 44.8292 15.0086 44.8292 25.6575C44.8292 36.3064 36.0465 44.9391 25.2125 44.9391C14.5919 44.9391 5.94266 36.6432 5.606 26.2845C6.51526 35.3833 14.322 42.4924 23.818 42.4924C33.9252 42.4924 42.1185 34.4389 42.1185 24.5045C42.1185 14.5701 33.9252 6.51674 23.818 6.51674C23.3545 6.51674 22.895 6.53367 22.4402 6.56695C23.3459 6.44102 24.2714 6.37589 25.2125 6.37589ZM40.9367 24.5045C40.9367 15.2116 33.2723 7.67837 23.818 7.67837C22.9549 7.67837 22.1069 7.74114 21.2782 7.86229C21.6564 7.83566 22.0383 7.82211 22.4236 7.82211C31.1501 7.82211 38.2245 14.7756 38.2245 23.353C38.2245 31.9306 31.1501 38.884 22.4236 38.884C14.2462 38.884 7.51973 32.7784 6.7053 24.9522C6.94675 34.0381 14.5159 41.3308 23.818 41.3308C33.2723 41.3308 40.9367 33.7974 40.9367 24.5045ZM22.4236 8.98374C30.4974 8.98374 37.0425 15.4171 37.0425 23.353C37.0425 31.2891 30.4974 37.7224 22.4236 37.7224C14.4523 37.7224 7.97122 31.4518 7.80755 23.6554C8.5439 30.1919 14.1824 35.2757 21.029 35.2757C28.3759 35.2757 34.3318 29.4216 34.3318 22.2002C34.3318 14.9788 28.3759 9.12458 21.029 9.12458C20.748 9.12458 20.4691 9.13315 20.1924 9.15002C20.9198 9.04053 21.6649 8.98374 22.4236 8.98374ZM33.15 22.2002C33.15 15.6203 27.7233 10.2862 21.029 10.2862C20.3567 10.2862 19.6973 10.34 19.0547 10.4434C19.2462 10.4335 19.4389 10.4285 19.6329 10.4285C25.6001 10.4285 30.4376 15.1833 30.4376 21.0487C30.4376 26.9141 25.6001 31.6689 19.6329 31.6689C14.1152 31.6689 9.5635 27.6035 8.90892 22.354C8.99273 28.8631 14.387 34.1141 21.029 34.1141C27.7233 34.1141 33.15 28.7801 33.15 22.2002ZM19.6329 11.5901C24.9475 11.5901 29.2559 15.8248 29.2559 21.0487C29.2559 26.2726 24.9475 30.5072 19.6329 30.5072C14.3183 30.5072 10.0099 26.2726 10.0099 21.0487C10.0099 21.0362 10.01 21.0236 10.01 21.0111C10.5633 24.992 14.0364 28.0592 18.2384 28.0592C22.8252 28.0592 26.5436 24.4043 26.5436 19.8959C26.5436 15.3872 22.8252 11.7325 18.2384 11.7325C18.1347 11.7325 18.0314 11.7343 17.9285 11.738C18.4817 11.6409 19.0513 11.5901 19.6329 11.5901ZM25.3617 19.8959C25.3617 16.0289 22.1726 12.8941 18.2384 12.8941C14.3042 12.8941 11.1149 16.0289 11.1149 19.8959C11.1149 23.7627 14.3042 26.8975 18.2384 26.8975C22.1726 26.8975 25.3617 23.7627 25.3617 19.8959Z" fill="#161616"/>
</svg>
