<svg width="61" height="61" viewBox="0 0 61 61" fill="none" xmlns="http://www.w3.org/2000/svg">
<path fill-rule="evenodd" clip-rule="evenodd" d="M30.2529 60.8188C46.9612 60.8188 60.5058 47.2041 60.5058 30.4094C60.5058 13.6148 46.9612 0 30.2529 0C13.5447 0 0 13.6148 0 30.4094C0 47.2041 13.5447 60.8188 30.2529 60.8188ZM34.9224 23.4952C37.5012 20.9029 37.5012 16.7002 34.9224 14.1079C32.3435 11.5157 28.1624 11.5157 25.5835 14.1079C23.0047 16.7002 23.0047 20.9029 25.5835 23.4952L30.2529 28.1887L34.9224 23.4952ZM37.1316 35.1031C39.7105 37.6953 43.8916 37.6953 46.4705 35.1031C49.0493 32.5108 49.0493 28.3081 46.4705 25.7158C43.8916 23.1237 39.7105 23.1237 37.1316 25.7158L32.4622 30.4095L37.1316 35.1031ZM34.9224 46.711C37.5012 44.1187 37.5012 39.916 34.9224 37.3237L30.2529 32.6302L25.5835 37.3237C23.0047 39.916 23.0047 44.1187 25.5835 46.711C28.1624 49.3032 32.3435 49.3032 34.9224 46.711ZM14.0353 35.1031C11.4565 32.5108 11.4565 28.3081 14.0353 25.7158C16.6142 23.1237 20.7953 23.1237 23.3743 25.7158L28.0436 30.4095L23.3743 35.1031C20.7953 37.6953 16.6142 37.6953 14.0353 35.1031Z" fill="#161616"/>
</svg>
