<svg width="472" height="34" viewBox="0 0 472 34" fill="none" xmlns="http://www.w3.org/2000/svg">
<path d="M350.466 33.0901C350.331 33.0242 339.475 32.6951 326.326 32.4318C313.177 32.1685 300.298 31.9052 297.669 31.8394C295.106 31.7736 275.821 31.5103 254.851 31.1812C220.529 30.7204 209.336 30.6546 185.061 30.7204C181.015 30.7862 173.531 30.7862 168.541 30.7862C163.551 30.7204 154.583 30.7204 148.649 30.7204C142.716 30.7204 137.254 30.7204 136.512 30.7204C135.77 30.7204 111.631 30.7204 82.9056 30.7862C40.2227 30.8521 29.5688 30.6546 24.5791 29.9305C21.275 29.4039 16.4201 28.8773 13.7903 28.8115C8.86798 28.6799 5.36165 27.9558 4.75478 27.0343C4.55249 26.7051 3.67591 26.0469 2.79932 25.652C1.24845 24.8621 1.24845 24.7962 2.39475 23.5456C3.13647 22.7557 3.27133 22.2949 2.73189 22.2949C2.25989 22.2949 2.12503 22.0316 2.32732 21.6367C2.52961 21.2417 3.54105 20.9784 4.55249 20.9784C6.30566 20.9784 6.30566 20.9784 3.81077 19.3328C2.32732 18.3455 1.18102 16.8974 0.911299 15.8442C0.70901 14.8568 0.371863 13.5403 0.169574 12.9479C0.0347152 12.2897 0.237004 11.7631 0.70901 11.7631C1.24845 11.7631 1.24845 11.4998 0.641581 10.7757C0.169574 10.1833 -0.100144 9.6567 0.0347152 9.59088C0.169574 9.45923 1.58559 8.60352 3.13647 7.61616C4.75478 6.6288 6.03594 5.44396 6.03594 4.91737C6.03594 4.39078 7.11481 3.86419 8.93541 3.66671C10.4863 3.40342 13.116 2.94265 14.8018 2.54771C21.4773 1.03375 28.2202 0.572983 50.8766 0.178039C71.5774 -0.151081 75.286 -0.0852574 80.8827 0.902104C87.0188 2.02111 120.531 2.41606 221.001 2.54771C224.508 2.54771 225.789 2.74518 225.721 3.40342C225.586 3.93001 226.53 4.25913 228.553 4.32496C230.239 4.4566 233.138 4.85155 235.027 5.24649C237.993 5.90473 238.735 5.83891 240.084 4.91737C240.96 4.32496 241.297 3.86419 240.825 3.86419C240.421 3.86419 240.016 3.60089 240.016 3.20595C240.016 2.87683 240.758 2.54771 241.702 2.54771C242.646 2.54771 243.388 2.94265 243.388 3.40342C243.388 4.4566 246.355 4.58825 271.101 4.7199C285.262 4.85155 289.24 5.04902 290.184 5.77309C290.926 6.3655 292.207 6.56297 294.297 6.29968C295.983 6.03638 297.466 6.16803 297.669 6.49715C298.208 7.35286 301.175 7.35286 301.512 6.49715C301.647 6.10221 303.67 5.70726 306.097 5.70726C308.794 5.64144 310.817 5.24649 311.424 4.65408C312.098 3.99584 313.11 3.86419 314.796 4.25913C316.144 4.52243 318.572 4.78572 320.257 4.85155C321.943 4.91737 323.899 5.24649 324.573 5.50979C325.449 5.90473 325.989 5.77309 326.191 5.31232C326.461 4.39078 333.069 4.19331 333.069 5.04902C333.069 5.37814 334.283 5.57561 335.766 5.57561C337.25 5.50979 338.531 5.77308 338.666 6.10221C338.801 6.43133 340.689 6.6288 342.914 6.56297C348.376 6.29968 349.454 6.16803 350.466 5.57561C351.68 4.85155 372.92 4.85155 373.459 5.64144C373.999 6.43133 382.967 6.56297 382.967 5.77309C382.967 5.44396 384.248 5.18067 385.866 5.18067C387.957 5.18067 388.429 5.37814 387.687 5.83891C386.945 6.29968 387.282 6.49715 389.17 6.49715C390.856 6.49715 391.868 6.89209 392.34 7.68198C392.879 8.5377 393.149 8.60352 393.823 8.0111C394.497 7.35286 394.902 7.35286 395.644 7.94528C396.25 8.47187 396.722 8.47187 396.992 8.0111C397.666 7.02374 401.105 6.56297 403.263 7.15539C404.275 7.48451 405.286 7.55033 405.488 7.35286C406.028 6.76045 412.029 6.76045 412.366 7.28704C412.568 7.55033 415.738 7.81363 419.446 7.81363C423.087 7.81363 426.122 6.7413 426.122 7.07042C426.122 7.39954 425.582 7.86031 424.975 7.99196C423.829 8.25525 423.829 8.32108 424.975 8.3869C425.582 8.3869 428.386 8.93109 428.386 8.93109C428.386 8.93109 431.921 8.91349 432.19 9.44009C432.19 8.32108 433.944 8.05778 434.348 9.17679C434.55 9.70338 435.292 9.70338 436.978 9.24261C438.461 8.84767 439.81 8.84767 440.484 9.17679C441.091 9.50591 446.688 11.039 452.891 10.9074C459.095 10.8415 465.163 10.9074 466.242 11.1048C468.198 11.4998 468.13 11.4998 465.298 11.9605C462.399 12.4871 462.331 12.4871 463.815 13.4745C464.759 14.1327 466.377 14.4619 468.4 14.2644C470.288 14.1327 471.637 14.3302 471.771 14.791C472.041 15.5809 469.951 16.3708 467.254 16.3708C465.905 16.3708 465.77 16.5024 466.579 17.029C467.389 17.5556 467.321 17.6872 466.107 17.6872C463.815 17.6872 462.601 18.3455 463.006 19.3987C463.208 19.9911 462.871 20.3202 461.927 20.3202C460.983 20.3202 460.646 19.9911 460.915 19.3328C461.185 18.7404 460.915 18.3455 460.241 18.3455C459.634 18.3455 459.162 18.6088 459.162 18.9379C459.162 19.267 458.218 19.3987 457.072 19.2012C455.791 19.0037 455.116 19.1354 455.386 19.5303C456.195 20.8468 460.241 23.8747 454.038 24.2696C442.44 24.9937 453.768 23.7782 453.094 24.5022C452.621 24.963 445.676 24.4671 454.038 24.2696C454.779 24.0064 460.511 24.0722 454.038 24.2696C453.296 24.5988 456.06 26.7051 453.094 26.8368C447.295 27.0343 446.351 27.6267 446.351 27.6267C446.351 27.6267 450.059 26.1785 453.094 26.8368C455.184 27.2976 456.33 27.2976 456.937 26.771C457.611 26.2444 458.083 26.376 458.825 27.2976C459.364 27.9558 459.836 28.7457 459.836 29.009C459.836 29.2723 460.511 29.6014 461.387 29.733C462.466 29.9305 462.331 30.0622 460.713 30.128C459.567 30.128 458.42 29.9305 458.218 29.6014C457.746 28.9432 455.251 29.4039 453.903 30.3913C453.498 30.7204 452.217 30.8521 451.071 30.6546C449.992 30.3913 448.913 30.5229 448.711 30.7862C448.239 31.5761 435.832 31.9052 429.695 31.3786C428.145 31.247 426.998 31.3786 427.201 31.6419C427.403 31.9052 426.863 32.1685 425.987 32.1685C419.176 32.3002 402.319 32.8926 400.026 33.1559C398.408 33.3534 397.127 33.2217 397.127 32.9584C397.127 32.6951 394.767 32.6293 391.935 32.8926C389.035 33.1559 386.406 33.1559 386.001 32.8926C385.664 32.6293 383.843 32.5635 381.955 32.6293C377.235 32.9584 350.668 33.2875 350.466 33.0901ZM357.344 27.5609C357.344 27.2317 356.939 26.9026 356.4 26.9026C355.86 26.9026 355.186 27.2317 354.984 27.5609C354.781 27.9558 355.186 28.2191 355.928 28.2191C356.737 28.2191 357.344 27.9558 357.344 27.5609ZM360.715 27.5609C360.715 27.2317 360.243 26.9026 359.704 26.9026C359.164 26.9026 358.692 27.2317 358.692 27.5609C358.692 27.9558 359.164 28.2191 359.704 28.2191C360.243 28.2191 360.715 27.9558 360.715 27.5609ZM363.412 27.5609C363.412 27.2317 363.075 26.9026 362.671 26.9026C362.333 26.9026 362.199 27.2317 362.401 27.5609C362.603 27.9558 362.94 28.2191 363.143 28.2191C363.277 28.2191 363.412 27.9558 363.412 27.5609ZM368.469 27.5609C368.267 27.2317 367.795 26.9026 367.391 26.9026C367.053 26.9026 366.784 27.2317 366.784 27.5609C366.784 27.9558 367.256 28.2191 367.863 28.2191C368.402 28.2191 368.672 27.9558 368.469 27.5609ZM415.67 27.5609C415.266 27.7583 410.461 27.9804 410.259 27.6513L405.623 27.8241C410.411 27.6267 414.928 27.495 415.67 27.5609ZM331.046 26.9026C331.046 26.5735 330.035 26.2444 328.888 26.2444C327.203 26.2444 326.933 26.4418 327.675 26.9026C329.023 27.7583 331.046 27.7583 331.046 26.9026ZM433.809 26.8368C434.483 27.4292 437.315 27.2317 437.315 27.2317C438.664 27.0343 439.608 26.7051 439.473 26.5735C438.933 25.9811 446.351 27.6267 446.351 27.6267C446.351 27.6267 431.786 27.5609 432.258 26.771C432.662 26.1785 433.809 26.8368 433.809 26.8368ZM292.948 26.2444C294.23 25.7178 294.23 25.652 292.814 25.652C291.937 25.5861 291.06 25.5861 290.791 25.5203C290.521 25.5203 290.184 25.7836 290.049 26.1785C289.779 27.0343 291.06 27.0343 292.948 26.2444ZM285.194 25.652C285.194 25.3228 284.385 25.1254 283.441 25.1254C282.227 25.1254 281.957 25.257 282.564 25.652C283.778 26.376 285.194 26.376 285.194 25.652ZM287.554 25.5861C287.352 25.257 286.88 24.9279 286.475 24.9279C286.138 24.9279 285.868 25.257 285.868 25.5861C285.868 25.9811 286.34 26.2444 286.947 26.2444C287.487 26.2444 287.756 25.9811 287.554 25.5861ZM330.372 24.9937C330.372 24.2696 327.675 23.5456 326.731 24.0722C326.393 24.3355 326.663 24.7304 327.405 24.9937C329.226 25.7178 330.372 25.7178 330.372 24.9937ZM422.683 24.5329L427.875 23.4798C427.875 23.4798 426.189 24.2696 422.683 24.5329C419.446 24.7304 402.987 24.904 398.476 24.6646L422.683 24.5329ZM322.955 24.2696C322.415 23.9405 321.067 23.6114 319.92 23.6114C318.369 23.6114 318.1 23.8089 318.909 24.2696C319.448 24.5988 320.864 24.9279 321.943 24.9279C323.494 24.9279 323.764 24.7304 322.955 24.2696ZM340.958 24.5329C340.756 24.3355 340.149 24.2696 339.677 24.4671C339.138 24.6646 339.34 24.8621 340.082 24.8621C340.823 24.9279 341.228 24.7304 340.958 24.5329ZM285.868 23.2165C285.868 23.0848 284.722 22.9532 283.373 23.019C281.148 23.0848 281.013 23.1506 282.497 23.5456C284.048 24.0064 285.868 23.8089 285.868 23.2165ZM267.325 22.9532C267.595 22.5582 266.853 22.2949 265.505 22.2949C263.819 22.2949 263.549 22.4924 264.291 22.9532C265.572 23.8089 266.786 23.8089 267.325 22.9532ZM223.631 22.5582C223.429 22.3608 222.822 22.2949 222.35 22.4924C221.81 22.6899 222.013 22.8873 222.754 22.8873C223.496 22.9532 223.901 22.7557 223.631 22.5582ZM230.913 22.2949C230.711 21.9658 230.104 21.6367 229.565 21.6367C229.025 21.6367 228.418 21.9658 228.216 22.2949C227.946 22.6899 228.553 22.9532 229.565 22.9532C230.576 22.9532 231.183 22.6899 230.913 22.2949ZM241.365 22.6899C241.365 22.0975 239.342 21.7683 239.005 22.2949C238.735 22.6899 239.207 22.9532 239.949 22.9532C240.758 22.9532 241.365 22.8215 241.365 22.6899ZM453.97 19.2012C453.498 19.0695 452.689 19.0695 452.284 19.2012C451.812 19.3987 452.15 19.5303 453.094 19.5303C454.038 19.5303 454.375 19.3987 453.97 19.2012ZM251.479 6.23385C251.479 6.03638 251.21 5.70726 250.805 5.50979C250.468 5.31232 250.131 5.44396 250.131 5.77309C250.131 6.16803 250.468 6.49715 250.805 6.49715C251.21 6.49715 251.479 6.3655 251.479 6.23385ZM385.462 6.10221C385.259 5.90473 384.653 5.83891 384.181 6.03638C383.641 6.23385 383.843 6.43133 384.585 6.43133C385.327 6.49715 385.731 6.29968 385.462 6.10221ZM207.38 3.99583C206.706 3.40342 194.839 3.33759 194.839 3.93001C194.839 4.19331 197.738 4.4566 201.379 4.4566C204.953 4.52243 207.65 4.32496 207.38 3.99583ZM213.045 3.99583C213.045 3.20595 209.134 3.0743 208.662 3.86419C208.392 4.25913 209.201 4.52243 210.617 4.52243C211.966 4.52243 213.045 4.25913 213.045 3.99583ZM216.079 3.86419C216.281 3.53507 215.877 3.20595 215.135 3.20595C214.326 3.20595 213.719 3.53507 213.719 3.86419C213.719 4.25913 214.123 4.52243 214.663 4.52243C215.202 4.52243 215.877 4.25913 216.079 3.86419ZM219.787 3.86419C219.787 3.53507 219.315 3.20595 218.776 3.20595C218.237 3.20595 217.765 3.53507 217.765 3.86419C217.765 4.25913 218.237 4.52243 218.776 4.52243C219.315 4.52243 219.787 4.25913 219.787 3.86419ZM224.508 3.86419C224.508 3.53507 223.833 3.20595 223.024 3.20595C221.743 3.20595 221.675 3.33759 222.485 3.86419C223.766 4.7199 224.508 4.7199 224.508 3.86419Z" fill="#F6060A"/>
</svg>
