<svg width="647" height="100" viewBox="0 0 647 100" fill="none" xmlns="http://www.w3.org/2000/svg">
<path d="M480.398 99.0997C480.213 98.9025 465.332 97.9169 447.309 97.1283C429.285 96.3398 411.631 95.5513 408.027 95.3541C404.514 95.157 378.08 94.3685 349.335 93.3828C302.289 92.0029 286.945 91.8057 253.671 92.0029C248.125 92.2 237.866 92.2 231.026 92.2C224.187 92.0029 211.894 92.0029 203.76 92.0029C195.626 92.0029 188.139 92.0029 187.123 92.0029C186.106 92.0029 153.017 92.0029 113.642 92.2C55.1349 92.3971 40.5312 91.8057 33.6915 89.6373C29.1625 88.0602 22.5077 86.4832 18.903 86.286C12.1557 85.8918 7.34943 83.7233 6.51758 80.9634C6.24029 79.9778 5.03872 78.0064 3.83715 76.8236C1.7113 74.4581 1.7113 74.2609 3.28258 70.5154C4.29929 68.1498 4.48415 66.7699 3.74472 66.7699C3.09772 66.7699 2.91287 65.9813 3.19015 64.7985C3.46744 63.6157 4.85386 62.8272 6.24029 62.8272C8.64343 62.8272 8.64343 62.8272 5.22358 57.8989C3.19015 54.9419 1.61887 50.605 1.24916 47.4508C0.97187 44.4938 0.509728 40.5512 0.232442 38.777C0.0475856 36.8057 0.324871 35.2286 0.97187 35.2286C1.7113 35.2286 1.7113 34.4401 0.879441 32.2716C0.232442 30.4974 -0.137271 28.9203 0.0475856 28.7232C0.232442 28.3289 2.17344 25.7662 4.29929 22.8092C6.51757 19.8522 8.27372 16.3038 8.27372 14.7268C8.27372 13.1497 9.75257 11.5726 12.2481 10.9812C14.374 10.1927 17.9787 8.81278 20.2894 7.62998C29.4398 3.09593 38.6827 1.716 69.7386 0.533199C98.1141 -0.452465 103.198 -0.255333 110.869 2.70166C119.28 6.05292 165.217 7.23572 302.936 7.62998C307.742 7.62998 309.498 8.22138 309.406 10.1927C309.221 11.7698 310.515 12.7554 313.288 12.9526C315.598 13.3468 319.573 14.5296 322.161 15.7124C326.227 17.6838 327.244 17.4866 329.093 14.7268C330.294 12.9526 330.756 11.5726 330.109 11.5726C329.555 11.5726 329 10.7841 329 9.60131C329 8.61565 330.017 7.62998 331.311 7.62998C332.605 7.62998 333.622 8.81278 333.622 10.1927C333.622 13.3468 337.689 13.7411 371.61 14.1354C391.02 14.5296 396.473 15.121 397.767 17.2895C398.784 19.0637 400.54 19.6551 403.405 18.8666C405.716 18.078 407.749 18.4723 408.027 19.458C408.766 22.0207 412.833 22.0207 413.295 19.458C413.48 18.2752 416.253 17.0924 419.58 17.0924C423.277 16.8952 426.05 15.7124 426.882 13.9382C427.806 11.9669 429.193 11.5726 431.503 12.7554C433.352 13.544 436.679 14.3325 438.99 14.5296C441.301 14.7268 443.981 15.7124 444.906 16.501C446.107 17.6838 446.847 17.2895 447.124 15.9096C447.494 13.1497 456.552 12.5583 456.552 15.121C456.552 16.1067 458.215 16.6981 460.249 16.6981C462.282 16.501 464.038 17.2895 464.223 18.2752C464.408 19.2608 466.996 19.8522 470.046 19.6551C477.533 18.8666 479.012 18.4723 480.398 16.6981C482.062 14.5296 511.177 14.5296 511.916 16.8952C512.656 19.2608 524.949 19.6551 524.949 17.2895C524.949 16.3038 526.705 15.5153 528.923 15.5153C531.788 15.5153 532.435 16.1067 531.419 17.4866C530.402 18.8666 530.864 19.458 533.452 19.458C535.763 19.458 537.149 20.6408 537.796 23.0064C538.536 25.5691 538.905 25.7662 539.83 23.992C540.754 22.0207 541.308 22.0207 542.325 23.7949C543.157 25.3719 543.804 25.3719 544.174 23.992C545.098 21.035 549.812 19.6551 552.77 21.4293C554.156 22.415 555.542 22.6121 555.82 22.0207C556.559 20.2465 564.785 20.2465 565.247 21.8236C565.525 22.6121 569.869 23.4006 574.952 23.4006C579.944 23.4006 584.103 20.1892 584.103 21.1748C584.103 22.1605 583.363 23.5404 582.531 23.9347C580.96 24.7232 580.96 24.9203 582.531 25.1175C583.363 25.1175 587.207 26.7472 587.207 26.7472C587.207 26.7472 592.052 26.6945 592.421 28.2716C592.421 24.9203 594.824 24.1318 595.379 27.4831C595.656 29.0601 596.673 29.0601 598.984 27.6802C601.017 26.4974 602.866 26.4974 603.79 27.4831C604.622 28.4687 612.293 33.0601 620.797 32.6659C629.3 32.4687 637.619 32.6659 639.098 33.2573C641.778 34.4401 641.686 34.4401 637.804 35.82C633.829 37.3971 633.737 37.3971 635.77 40.3541C637.064 42.3254 639.283 43.311 642.055 42.7196C644.643 42.3254 646.492 42.9168 646.677 44.2967C647.047 46.6623 644.181 49.0279 640.484 49.0279C638.635 49.0279 638.451 49.4222 639.56 50.9992C640.669 52.5763 640.577 52.9706 638.913 52.9706C635.77 52.9706 634.107 54.9419 634.661 58.096C634.938 59.8702 634.476 60.8559 633.182 60.8559C631.888 60.8559 631.426 59.8702 631.796 57.8989C632.166 56.1247 631.796 54.9419 630.872 54.9419C630.04 54.9419 629.393 55.7304 629.393 56.7161C629.393 57.7017 628.099 58.096 626.527 57.5046C624.771 56.9132 623.847 57.3075 624.217 58.4903C625.326 62.4329 630.872 71.5011 622.368 72.6839C606.47 74.8523 621.998 71.2119 621.074 73.3804C620.427 74.7603 610.907 73.2753 622.368 72.6839C623.385 71.8953 631.241 72.0925 622.368 72.6839C621.351 73.6695 625.141 79.9778 621.074 80.372C613.125 80.9634 611.831 82.7376 611.831 82.7376C611.831 82.7376 616.915 78.4007 621.074 80.372C623.939 81.752 625.511 81.752 626.343 80.1749C627.267 78.5978 627.914 78.9921 628.931 81.752C629.67 83.7233 630.317 86.0889 630.317 86.8774C630.317 87.666 631.241 88.6516 632.443 89.0459C633.922 89.6373 633.737 90.0315 631.519 90.2287C629.947 90.2287 628.376 89.6373 628.099 88.6516C627.452 86.6803 624.032 88.0602 622.183 91.0172C621.629 92.0029 619.873 92.3971 618.301 91.8057C616.822 91.0172 615.344 91.4115 615.066 92.2C614.419 94.5656 597.412 95.5513 589.002 93.9742C586.876 93.5799 585.304 93.9742 585.582 94.7627C585.859 95.5513 585.119 96.3398 583.918 96.3398C574.583 96.7341 551.476 98.5083 548.333 99.2968C546.115 99.8882 544.359 99.4939 544.359 98.7054C544.359 97.9169 541.124 97.7197 537.242 98.5083C533.267 99.2968 529.662 99.2968 529.108 98.5083C528.646 97.7197 526.15 97.5226 523.562 97.7197C517.092 98.7054 480.675 99.6911 480.398 99.0997ZM489.826 82.5405C489.826 81.5548 489.271 80.5692 488.532 80.5692C487.792 80.5692 486.868 81.5548 486.591 82.5405C486.313 83.7233 486.868 84.5118 487.885 84.5118C488.994 84.5118 489.826 83.7233 489.826 82.5405ZM494.447 82.5405C494.447 81.5548 493.8 80.5692 493.061 80.5692C492.321 80.5692 491.674 81.5548 491.674 82.5405C491.674 83.7233 492.321 84.5118 493.061 84.5118C493.8 84.5118 494.447 83.7233 494.447 82.5405ZM498.144 82.5405C498.144 81.5548 497.682 80.5692 497.128 80.5692C496.665 80.5692 496.481 81.5548 496.758 82.5405C497.035 83.7233 497.497 84.5118 497.775 84.5118C497.959 84.5118 498.144 83.7233 498.144 82.5405ZM505.076 82.5405C504.799 81.5548 504.152 80.5692 503.598 80.5692C503.135 80.5692 502.766 81.5548 502.766 82.5405C502.766 83.7233 503.413 84.5118 504.245 84.5118C504.984 84.5118 505.354 83.7233 505.076 82.5405ZM569.776 82.5405C569.222 83.1319 562.636 83.7969 562.359 82.8113L556.005 83.329C562.567 82.7376 568.76 82.3434 569.776 82.5405ZM453.779 80.5692C453.779 79.5835 452.392 78.5978 450.821 78.5978C448.51 78.5978 448.141 79.1892 449.157 80.5692C451.006 83.1319 453.779 83.1319 453.779 80.5692ZM594.64 80.372C595.564 82.1462 599.446 81.5548 599.446 81.5548C601.294 80.9634 602.589 79.9778 602.404 79.5835C601.664 77.8093 611.831 82.7376 611.831 82.7376C611.831 82.7376 591.867 82.5405 592.514 80.1749C593.068 78.4007 594.64 80.372 594.64 80.372ZM401.557 78.5978C403.313 77.0208 403.313 76.8236 401.372 76.8236C400.17 76.6265 398.969 76.6265 398.599 76.4294C398.229 76.4294 397.767 77.2179 397.582 78.4007C397.212 80.9634 398.969 80.9634 401.557 78.5978ZM390.927 76.8236C390.927 75.838 389.818 75.2466 388.524 75.2466C386.861 75.2466 386.491 75.6408 387.323 76.8236C388.986 78.9921 390.927 78.9921 390.927 76.8236ZM394.162 76.6265C393.885 75.6408 393.238 74.6552 392.684 74.6552C392.221 74.6552 391.852 75.6408 391.852 76.6265C391.852 77.8093 392.499 78.5978 393.331 78.5978C394.07 78.5978 394.44 77.8093 394.162 76.6265ZM452.854 74.8523C452.854 72.6839 449.157 70.5154 447.863 72.0925C447.401 72.881 447.771 74.0638 448.788 74.8523C451.283 77.0208 452.854 77.0208 452.854 74.8523ZM579.389 73.4724L586.506 70.3183C586.506 70.3183 584.195 72.6839 579.389 73.4724C574.952 74.0638 552.39 74.5835 546.207 73.8667L579.389 73.4724ZM442.687 72.6839C441.948 71.6982 440.099 70.7125 438.528 70.7125C436.402 70.7125 436.032 71.3039 437.142 72.6839C437.881 73.6695 439.822 74.6552 441.301 74.6552C443.427 74.6552 443.796 74.0638 442.687 72.6839ZM467.366 73.4724C467.088 72.881 466.257 72.6839 465.609 73.2753C464.87 73.8667 465.147 74.458 466.164 74.458C467.181 74.6552 467.735 74.0638 467.366 73.4724ZM391.852 69.5297C391.852 69.1355 390.28 68.7412 388.432 68.9383C385.382 69.1355 385.197 69.3326 387.23 70.5154C389.356 71.8953 391.852 71.3039 391.852 69.5297ZM366.434 68.7412C366.804 67.5584 365.787 66.7699 363.938 66.7699C361.628 66.7699 361.258 67.3613 362.275 68.7412C364.031 71.3039 365.694 71.3039 366.434 68.7412ZM306.54 67.5584C306.263 66.967 305.431 66.7699 304.784 67.3613C304.045 67.9527 304.322 68.5441 305.339 68.5441C306.355 68.7412 306.91 68.1498 306.54 67.5584ZM316.522 66.7699C316.245 65.7842 315.413 64.7985 314.674 64.7985C313.935 64.7985 313.103 65.7842 312.825 66.7699C312.456 67.9527 313.288 68.7412 314.674 68.7412C316.06 68.7412 316.892 67.9527 316.522 66.7699ZM330.849 67.9527C330.849 66.1785 328.076 65.1928 327.614 66.7699C327.244 67.9527 327.891 68.7412 328.908 68.7412C330.017 68.7412 330.849 68.3469 330.849 67.9527ZM622.276 57.5046C621.629 57.1104 620.52 57.1104 619.965 57.5046C619.318 58.096 619.78 58.4903 621.074 58.4903C622.368 58.4903 622.83 58.096 622.276 57.5046ZM344.713 18.6694C344.713 18.078 344.343 17.0924 343.789 16.501C343.327 15.9096 342.865 16.3038 342.865 17.2895C342.865 18.4723 343.327 19.458 343.789 19.458C344.343 19.458 344.713 19.0637 344.713 18.6694ZM528.368 18.2752C528.091 17.6838 527.259 17.4866 526.612 18.078C525.873 18.6694 526.15 19.2608 527.167 19.2608C528.184 19.458 528.738 18.8666 528.368 18.2752ZM284.265 11.9669C283.341 10.1927 267.073 9.99558 267.073 11.7698C267.073 12.5583 271.048 13.3468 276.039 13.3468C280.938 13.544 284.635 12.9526 284.265 11.9669ZM292.029 11.9669C292.029 9.60131 286.668 9.20705 286.021 11.5726C285.651 12.7554 286.761 13.544 288.702 13.544C290.55 13.544 292.029 12.7554 292.029 11.9669ZM296.188 11.5726C296.466 10.587 295.911 9.60131 294.894 9.60131C293.785 9.60131 292.953 10.587 292.953 11.5726C292.953 12.7554 293.508 13.544 294.247 13.544C294.987 13.544 295.911 12.7554 296.188 11.5726ZM301.272 11.5726C301.272 10.587 300.625 9.60131 299.885 9.60131C299.146 9.60131 298.499 10.587 298.499 11.5726C298.499 12.7554 299.146 13.544 299.885 13.544C300.625 13.544 301.272 12.7554 301.272 11.5726ZM307.742 11.5726C307.742 10.587 306.818 9.60131 305.708 9.60131C303.952 9.60131 303.86 9.99558 304.969 11.5726C306.725 14.1354 307.742 14.1354 307.742 11.5726Z" fill="#F6060A"/>
</svg>
