<svg width="265" height="265" viewBox="0 0 265 265" fill="none" xmlns="http://www.w3.org/2000/svg">
<path opacity="0.3" fill-rule="evenodd" clip-rule="evenodd" d="M71.3599 298.402C67.5603 299.187 66.1544 298.459 66.3219 294.795C66.3228 294.794 66.327 294.792 66.3279 294.793C66.3292 294.794 66.3262 294.794 66.3279 294.793C66.3279 294.793 66.3338 294.793 66.3347 294.791C66.4666 291.873 66.4407 288.943 66.4106 285.637V285.622C66.397 284.102 66.3826 282.504 66.3826 280.79L58.3802 284.395L58.0308 284.552L56.9608 285.034C35.6153 294.651 14.8797 303.992 -5.8653 313.342L-5.71985 314.318C-5.09259 314.349 -4.46619 314.389 -3.84106 314.429L-3.81177 314.431C-2.5755 314.51 -1.34052 314.588 -0.100891 314.588C20.2077 314.588 40.5154 314.59 60.8226 314.591C101.435 314.593 142.047 314.596 182.662 314.588C214.694 314.577 242.365 295.674 251.338 267.275C251.348 267.244 251.359 267.207 251.37 267.166C251.383 267.121 251.396 267.072 251.411 267.017C251.652 266.134 252.237 263.987 254.196 262.673C255.952 261.483 258.095 261.438 259.525 261.55C262.085 261.562 264.658 261.573 267.231 261.573C267.244 261.573 267.255 261.574 267.268 261.575C267.634 261.629 270.568 261.941 272.567 259.957C274.323 258.216 274.613 255.432 273.185 253.153L261.959 214.428C261.91 214.304 261.341 212.801 262.395 211.465C263.418 210.156 265.094 210.171 265.299 210.173H265.313C267.722 210.185 270.127 210.199 272.532 210.213H272.573C274.992 210.227 277.411 210.241 279.833 210.252C281.25 210.376 282.57 209.68 283.114 208.558C283.805 207.121 282.86 205.762 282.8 205.684C275.331 196.682 267.867 187.677 260.402 178.669C256.174 173.568 251.947 168.467 247.717 163.366C247.281 162.86 246.651 161.962 246.422 160.717C245.901 157.933 247.79 155.8 248.105 155.453C252.652 149.883 257.201 144.325 261.748 138.766C261.859 138.63 261.755 138.435 261.57 138.435H184.065C183.894 138.435 183.786 138.263 183.875 138.128C185.737 135.252 187.945 133.656 190.047 132.136L190.111 132.09C190.379 131.896 190.646 131.703 190.91 131.509C207.355 119.375 225.968 111.832 246.833 109.216L246.994 109.196C249.791 108.848 252.07 108.563 251.084 104.94C243.067 75.3502 262.419 48.2647 288.746 36.8266C288.785 36.8084 288.875 36.7914 288.998 36.7673C289.488 36.6732 290.509 36.4778 291.059 35.7266C291.368 35.3157 291.458 34.9336 291.463 34.559C291.464 34.4491 291.365 34.3628 291.246 34.3628H123.916C123.731 34.3628 123.625 34.561 123.738 34.6978C125.559 36.8982 127.601 39.9363 129.293 43.629C132.273 50.1617 132.758 56.0777 132.721 59.7815C132.769 81.373 132.821 97.2542 132.872 113.134C132.923 128.896 132.974 144.658 133.022 166.004C133.023 166.185 132.79 166.282 132.649 166.155C130.682 164.386 127.727 161.254 125.625 156.619C123.409 151.736 123.154 147.393 123.202 144.923C123.239 144.631 123.566 141.903 121.301 139.894C119.279 138.087 116.724 138.244 116.336 138.278C112.615 138.282 108.895 138.286 105.176 138.292H105.039H104.998C97.4837 138.301 89.9712 138.311 82.4523 138.311C79.425 138.289 72.4981 137.84 65.4742 133.653C58.3781 129.433 55.2168 123.787 53.897 121.362C48.0482 110.642 49.1382 100.091 56.1138 89.9767C57.1427 88.484 58.499 86.7666 60.0732 86.8563C61.4978 86.9327 62.4525 88.4405 63.1391 89.525L63.198 89.6176C63.198 89.6176 63.9003 90.718 70.4031 99.1587C70.8874 99.7876 74.4596 104.322 80.3936 107.264C82.7309 108.419 87.7565 110.474 95.0706 110.182C99.706 110.171 104.341 110.171 108.976 110.171H108.986L108.993 110.172C109.166 110.204 110.957 110.543 112.304 109.318C113.639 108.101 113.349 106.462 113.301 106.24C113.298 106.225 113.297 106.212 113.297 106.197C113.267 100.407 113.233 94.6191 113.2 88.832L113.199 88.7336C113.166 82.9714 113.133 77.2092 113.103 71.4443C113.1 70.8637 113.098 70.4195 113.097 70.0659C113.094 69.1553 113.092 68.8452 113.066 68.3686C112.982 66.3712 111.71 45.7056 95.1193 31.0906C90.444 26.9707 86.9214 25.4182 83.3861 23.8606C79.4865 22.142 75.5708 20.417 70.0761 15.2296C64.2366 9.72135 60.6305 4.09051 58.4803 0.114581C58.3832 -0.064992 58.0948 -0.0246498 58.0626 0.173909C57.4748 3.76379 57.0804 9.2566 58.6321 15.6564C60.7196 24.3083 65.3049 30.2872 68.0777 33.3681C68.1914 33.4946 68.1091 33.6877 67.9327 33.7055C62.4698 34.2675 58.1054 33.5955 54.9628 32.7633C34.7289 27.4105 27.5298 5.3309 26.2914 0.981592C26.2362 0.789757 25.9508 0.776309 25.8698 0.959442C24.5246 3.9754 23.0339 8.44891 22.9198 13.9615C22.7073 24.5547 27.721 32.31 30.0706 35.4695C30.1571 35.5858 30.0943 35.7452 29.9471 35.784C26.7074 36.6411 22.7425 37.4444 18.1728 37.8257C14.5179 38.1315 11.1955 38.1078 8.33957 37.9405C8.21405 37.9333 8.10632 38.0235 8.10294 38.1402C8.08554 38.7671 8.08768 39.4031 8.10971 40.0483C8.45535 48.7315 12.8821 55.8017 17.1371 60.7209C17.2305 60.8301 17.1851 60.9903 17.0451 61.0417C13.2867 62.4202 8.56476 63.7745 3.02344 64.541C0.127686 64.9449 -2.56198 65.1256 -5.0014 65.1766C-5.11929 65.1794 -5.21515 65.2652 -5.21982 65.3748C-5.33899 68.3433 -5.20413 72.1333 -4.29144 76.4285C-3.1926 81.5866 -1.34012 85.7188 0.278687 88.6636C0.320251 88.7383 0.30838 88.8285 0.248138 88.8918C-0.926208 90.1342 -2.45676 91.53 -4.39999 92.8732C-7.91156 95.2923 -11.3663 96.5691 -13.8685 97.2593C-14.0017 97.2965 -14.0678 97.4349 -14.0051 97.5504C-12.5203 100.29 -10.619 103.354 -8.17834 106.556C-5.14984 110.539 -2.02759 113.754 0.757935 116.278C0.817719 116.333 0.839752 116.414 0.813477 116.488C0.274445 118.022 -0.651794 120.037 -2.23242 122.147C-4.38855 125.01 -6.84793 126.813 -8.56256 127.865C-8.66904 127.93 -8.69574 128.065 -8.61942 128.161C-6.90857 130.294 -4.73676 132.676 -2.01443 135.09C1.44708 138.164 4.84839 140.455 7.75266 142.135C7.79547 142.159 7.82852 142.198 7.84506 142.242C20.5834 175.903 38.6858 191.388 54.0548 199.162C70.5647 207.52 89.2133 209.663 103.981 211.36C118.406 213.017 129.128 214.249 130.541 220.433C131.234 223.47 128.968 226.744 125.972 231.07C124.361 233.396 122.538 236.028 120.853 239.089C115.888 248.114 106.915 251.269 98.1105 248.664C97.021 248.341 95.9523 247.566 94.9166 246.814C93.1778 245.552 91.5268 244.354 90.0089 245.465C88.3053 246.716 87.2887 249.192 86.2726 251.669C85.8302 252.747 85.3862 253.827 84.8866 254.804C84.5664 255.431 84.2628 256.072 83.9604 256.712C83.3467 258.009 82.7343 259.304 81.9798 260.483C78.8317 265.411 80.9509 266.018 85.0079 265.996C98.3892 265.904 111.771 265.917 125.153 265.93H125.202C129.908 265.935 134.614 265.939 139.321 265.939H146.918C147.01 265.939 147.093 265.887 147.126 265.807C147.228 265.559 147.327 265.312 147.427 265.063L147.428 265.058L147.5 264.879C147.579 264.683 147.658 264.488 147.737 264.294C147.767 264.221 147.752 264.141 147.697 264.083C146.924 263.27 146.156 262.449 145.389 261.628L145.286 261.518L145.27 261.502C143.352 259.45 141.433 257.398 139.442 255.444C137.541 253.581 137.516 252.043 138.534 249.304C143.935 234.779 152.351 226.315 167.052 229.256C167.336 229.313 167.632 229.292 167.929 229.27L167.935 229.27C168.212 229.25 168.49 229.23 168.76 229.274C168.776 229.277 168.792 229.278 168.808 229.278C169.017 229.271 170.571 229.213 171.957 228.942C172.598 228.815 172.646 227.923 172.73 226.368C172.855 224.07 173.057 220.321 175.36 215.449C175.933 214.247 176.582 213.656 177.167 213.123C177.285 213.016 177.404 212.908 177.516 212.8C184.697 205.796 207.294 206.391 215.468 217.941C220.676 225.293 218.096 234.262 215.602 242.536C211.714 255.455 203.298 263.111 201.373 264.817C194.373 271.024 185.411 275.222 174.597 277.456C156.025 281.301 137.429 285.043 118.833 288.785L118.488 288.854L118.481 288.856L118.462 288.86C102.756 292.02 87.0508 295.181 71.3599 298.402ZM113.474 229.952C115.546 226.936 117.242 224.468 116.738 222.639C116.736 222.635 116.736 222.631 116.736 222.628C116.736 222.624 116.735 222.62 116.735 222.617C115.501 218.254 101.148 215.552 95.1927 220.792C94.3127 221.562 94.0646 222.109 93.6808 222.957C93.33 223.731 92.8665 224.756 91.7049 226.427L91.6765 226.468C89.6268 229.426 86.1661 234.416 80.0425 236.171C76.5428 237.181 72.7403 237.114 68.9743 236.003C67.8839 235.679 66.8168 234.905 65.7803 234.152C64.0407 232.89 62.3901 231.692 60.8722 232.803C59.1695 234.054 58.1525 236.529 57.1363 239.005C56.694 240.084 56.25 241.165 55.7499 242.142C55.4302 242.769 55.1269 243.41 54.8237 244.051L54.8156 244.068C54.2049 245.358 53.5942 246.648 52.844 247.823C51.3418 250.168 51.0394 251.538 51.5725 252.323C52.3953 253.547 54.9751 253.39 55.8712 253.333C60.7204 253.032 68.9336 253.042 80.392 253.253C80.4747 253.254 80.5527 253.213 80.5926 253.146C81.6965 251.307 82.4862 249.743 82.9853 248.686C83.5257 247.548 83.934 246.575 84.2869 245.734C85.2063 243.541 85.7496 242.248 87.2722 241.267C88.6289 240.391 90.0208 240.234 90.7604 240.156C93.5625 239.869 95.5248 240.994 97.6919 242.238C99.4218 243.23 101.282 244.297 103.803 244.78C105.439 245.094 107.967 245.272 111.354 244.326C111.519 244.28 111.564 244.085 111.441 243.975C111.103 243.672 110.706 243.279 110.293 242.793C110.267 242.762 110.238 242.728 110.204 242.689L110.155 242.633L110.151 242.629C109.775 242.199 109.074 241.396 108.853 240.593C108.38 238.898 109.046 237.349 109.386 236.653C110.557 234.198 112.097 231.956 113.471 229.956L113.474 229.952ZM86.9388 81.3853C83.0579 81.3853 79.9123 78.4765 79.9123 74.8882C79.9123 71.2999 83.0579 68.3916 86.9388 68.3916C90.8198 68.3916 93.9658 71.2999 93.9658 74.8882C93.9658 78.4765 90.8198 81.3853 86.9388 81.3853Z" fill="white"/>
</svg>
