<svg width="215" height="46" viewBox="0 0 215 46" fill="none" xmlns="http://www.w3.org/2000/svg">
<path d="M159.17 45.5578C159.109 45.4671 154.178 45.014 148.206 44.6515C142.235 44.289 136.385 43.9265 135.191 43.8359C134.027 43.7453 125.269 43.3828 115.745 42.9296C100.157 42.2953 95.0733 42.2046 84.0486 42.2953C82.2112 42.3859 78.8119 42.3859 76.5457 42.3859C74.2795 42.2953 70.2065 42.2953 67.5115 42.2953C64.8166 42.2953 62.3361 42.2953 61.9992 42.2953C61.6623 42.2953 50.6988 42.2953 37.6529 42.3859C18.2678 42.4765 13.4292 42.2046 11.163 41.2078C9.6624 40.4828 7.45745 39.7578 6.26311 39.6671C4.02754 39.4859 2.43508 38.489 2.15946 37.2202C2.06759 36.7671 1.66947 35.8609 1.27136 35.3171C0.567002 34.2296 0.567002 34.139 1.08761 32.4171C1.42448 31.3296 1.48573 30.6952 1.24074 30.6952C1.02637 30.6952 0.965117 30.3327 1.05699 29.789C1.14886 29.2452 1.60823 28.8827 2.06759 28.8827C2.86382 28.8827 2.86382 28.8827 1.73072 26.6171C1.05699 25.2577 0.536378 23.2639 0.413881 21.8139C0.322009 20.4546 0.168888 18.6421 0.0770149 17.8264C0.0157665 16.9202 0.107639 16.1952 0.322009 16.1952C0.567002 16.1952 0.567002 15.8327 0.291384 14.8358C0.0770149 14.0202 -0.045482 13.2952 0.0157665 13.2045C0.0770149 13.0233 0.720124 11.8452 1.42448 10.4858C2.15946 9.1264 2.74132 7.49514 2.74132 6.77014C2.74132 6.04514 3.23131 5.32014 4.05816 5.04826C4.76252 4.68576 5.95686 4.05138 6.72247 3.50763C9.75427 1.42325 12.8167 0.788872 23.1064 0.245121C32.5081 -0.208006 34.1924 -0.117381 36.7342 1.242C39.521 2.78263 54.7412 3.32638 100.371 3.50763C101.964 3.50763 102.546 3.77951 102.515 4.68576C102.454 5.41076 102.883 5.86389 103.801 5.95451C104.567 6.13577 105.884 6.67952 106.741 7.22327C108.089 8.12952 108.425 8.0389 109.038 6.77014C109.436 5.95451 109.589 5.32014 109.375 5.32014C109.191 5.32014 109.007 4.95764 109.007 4.41388C109.007 3.96076 109.344 3.50763 109.773 3.50763C110.202 3.50763 110.539 4.05138 110.539 4.68576C110.539 6.13577 111.886 6.31702 123.125 6.49827C129.556 6.67952 131.363 6.95139 131.792 7.94827C132.129 8.7639 132.71 9.03577 133.66 8.67327C134.425 8.31077 135.099 8.49202 135.191 8.94515C135.436 10.1233 136.784 10.1233 136.937 8.94515C136.998 8.4014 137.917 7.85765 139.019 7.85765C140.244 7.76702 141.163 7.22327 141.438 6.40764C141.745 5.50139 142.204 5.32014 142.97 5.86389C143.582 6.22639 144.685 6.58889 145.45 6.67952C146.216 6.77014 147.104 7.22327 147.41 7.58577C147.808 8.12952 148.053 7.94827 148.145 7.31389C148.268 6.04514 151.269 5.77326 151.269 6.95139C151.269 7.40452 151.82 4.67639 152.494 4.67639C153.167 4.58577 153.749 4.94827 153.811 5.4014C153.872 5.85453 154.729 6.1264 155.74 6.03578C158.22 5.67327 158.71 5.49202 159.17 4.67639C159.721 3.67952 169.368 3.67952 169.613 4.76702C169.858 5.85452 173.931 6.03578 173.931 4.94827C173.931 4.49515 174.513 4.13264 175.248 4.13264C176.197 4.13264 176.411 4.40452 176.074 5.0389C175.738 5.67327 175.891 5.94515 176.748 5.94515C177.514 5.94515 177.973 6.4889 178.187 7.5764C178.432 8.75453 178.555 8.84516 178.861 8.02953C179.167 7.12328 179.351 7.12328 179.688 7.93891C179.964 8.66391 180.178 8.66391 180.301 8.02953C180.607 6.67015 182.169 6.03578 183.149 6.8514C183.608 7.30453 184.067 7.39515 184.159 7.12328C184.404 6.30765 187.13 6.30765 187.283 7.03265C187.375 7.39515 188.814 7.75766 190.498 7.75766C192.152 7.75766 193.53 8.12016 193.53 8.57328C193.53 9.02641 193.285 9.66079 193.01 9.84204C192.489 10.2045 192.489 10.2952 193.01 10.3858C193.285 10.3858 193.53 11.1108 193.53 11.8358C193.53 13.3764 194.173 13.6483 194.663 12.1983C194.908 11.4733 195.061 11.4733 195.184 12.1983C195.49 13.6483 196.286 13.3764 196.286 11.8358C196.286 10.2952 197.083 9.93266 197.266 11.4733C197.358 12.1983 197.695 12.1983 198.461 11.5639C199.134 11.0202 199.747 11.0202 200.053 11.4733C200.329 11.9264 202.871 12.1983 205.688 12.017C208.505 11.9264 211.262 12.017 211.752 12.2889C212.64 12.8327 212.609 12.8327 211.323 13.4671C210.006 14.1921 209.975 14.1921 210.649 15.5514C211.078 16.4577 211.813 19.9108 212.732 19.6389C213.589 19.4577 214.202 19.7296 214.263 20.3639C214.385 21.4514 213.436 22.5389 212.211 22.5389C211.598 22.5389 211.537 22.7202 211.905 23.4452C212.272 24.1702 212.242 24.3515 211.69 24.3515C210.649 24.3515 210.098 25.2577 210.282 26.7077C210.374 27.5233 210.22 27.9765 209.792 27.9765C209.363 27.9765 209.21 27.5233 209.332 26.6171C209.455 25.8015 209.332 25.2577 209.026 25.2577C208.75 25.2577 208.536 25.6202 208.536 26.0733C208.536 26.5265 208.107 26.7077 207.587 26.4358C207.005 26.164 206.699 26.3452 206.821 26.889C207.189 28.7015 206.147 29.6983 203.33 30.2421C198.063 31.239 196.746 31.6921 196.439 32.689C196.225 33.3234 197.695 33.5046 201.493 33.2327C204.432 32.9609 206.545 33.0515 206.209 33.414C205.872 33.8671 204.494 34.2296 203.146 34.4109C200.513 34.6827 199.961 34.9546 199.961 36.2234C199.961 36.6765 200.543 37.039 201.278 37.039C202.227 37.039 202.442 37.3109 202.105 37.9452C201.707 38.6702 201.737 38.8515 202.197 38.8515C202.472 38.8515 202.717 38.489 202.717 38.0359C202.717 36.5859 204.402 36.0421 205.78 36.9484C206.729 37.5827 207.25 37.5827 207.525 36.8577C207.832 36.1327 208.046 36.314 208.383 37.5827C208.628 38.489 208.842 39.5765 208.842 39.939C208.842 40.3015 209.149 40.7546 209.547 40.9359C210.037 41.2078 209.975 41.389 209.24 41.4796C208.72 41.4796 208.199 41.2078 208.107 40.7546C207.893 39.8484 206.76 40.4828 206.147 41.8421C205.964 42.2953 205.382 42.4765 204.861 42.2046C204.371 41.8421 203.881 42.0234 203.789 42.3859C203.575 43.4734 197.94 43.9265 195.153 43.2015C194.449 43.0203 193.928 43.2015 194.02 43.564C194.112 43.9265 193.867 44.289 193.469 44.289C190.376 44.4703 182.72 45.2859 181.679 45.6484C180.944 45.9203 180.362 45.739 180.362 45.3765C180.362 45.014 179.29 44.9234 178.004 45.2859C176.687 45.6484 175.493 45.6484 175.309 45.2859C175.156 44.9234 174.329 44.8328 173.471 44.9234C171.328 45.3765 159.262 45.8296 159.17 45.5578ZM162.294 37.9452C162.294 37.4921 162.11 37.039 161.865 37.039C161.62 37.039 161.314 37.4921 161.222 37.9452C161.13 38.489 161.314 38.8515 161.65 38.8515C162.018 38.8515 162.294 38.489 162.294 37.9452ZM163.825 37.9452C163.825 37.4921 163.61 37.039 163.365 37.039C163.12 37.039 162.906 37.4921 162.906 37.9452C162.906 38.489 163.12 38.8515 163.365 38.8515C163.61 38.8515 163.825 38.489 163.825 37.9452ZM165.05 37.9452C165.05 37.4921 164.897 37.039 164.713 37.039C164.56 37.039 164.498 37.4921 164.59 37.9452C164.682 38.489 164.835 38.8515 164.927 38.8515C164.988 38.8515 165.05 38.489 165.05 37.9452ZM167.346 37.9452C167.255 37.4921 167.04 37.039 166.857 37.039C166.703 37.039 166.581 37.4921 166.581 37.9452C166.581 38.489 166.795 38.8515 167.071 38.8515C167.316 38.8515 167.438 38.489 167.346 37.9452ZM188.783 37.9452C188.6 38.2171 186.418 38.5228 186.326 38.0697L184.22 38.3077C186.395 38.0359 188.447 37.8546 188.783 37.9452ZM150.35 37.039C150.35 36.5859 149.891 36.1327 149.37 36.1327C148.604 36.1327 148.482 36.4046 148.819 37.039C149.431 38.2171 150.35 38.2171 150.35 37.039ZM197.021 36.9484C197.328 37.764 197.879 37.9452 198.614 37.4921C199.226 37.2202 199.655 36.7671 199.594 36.5859C199.349 35.7702 195.674 35.2265 195.674 35.9515C195.674 37.4015 196.103 37.9452 196.317 36.8577C196.501 36.0421 196.654 36.0421 197.021 36.9484ZM133.047 36.1327C133.629 35.4077 133.629 35.3171 132.986 35.3171C132.588 35.2265 132.19 35.2265 132.067 35.1359C131.945 35.1359 131.792 35.4984 131.731 36.0421C131.608 37.2202 132.19 37.2202 133.047 36.1327ZM129.526 35.3171C129.526 34.864 129.158 34.5921 128.729 34.5921C128.178 34.5921 128.056 34.7734 128.331 35.3171C128.882 36.314 129.526 36.314 129.526 35.3171ZM130.597 35.2265C130.506 34.7734 130.291 34.3202 130.107 34.3202C129.954 34.3202 129.832 34.7734 129.832 35.2265C129.832 35.7702 130.046 36.1327 130.322 36.1327C130.567 36.1327 130.689 35.7702 130.597 35.2265ZM150.044 34.4109C150.044 33.414 148.819 32.4171 148.39 33.1421C148.237 33.5046 148.359 34.0484 148.696 34.4109C149.523 35.4077 150.044 35.4077 150.044 34.4109ZM191.968 33.7765L194.326 32.3265C194.326 32.3265 193.561 33.414 191.968 33.7765C190.498 34.0484 183.023 34.2873 180.974 33.9577L191.968 33.7765ZM146.675 33.414C146.43 32.9609 145.818 32.5077 145.297 32.5077C144.593 32.5077 144.47 32.7796 144.838 33.414C145.083 33.8671 145.726 34.3202 146.216 34.3202C146.92 34.3202 147.043 34.0484 146.675 33.414ZM154.852 33.7765C154.76 33.5046 154.484 33.414 154.27 33.6859C154.025 33.9577 154.117 34.2296 154.454 34.2296C154.791 34.3202 154.974 34.0484 154.852 33.7765ZM129.832 31.964C129.832 31.7827 129.311 31.6015 128.699 31.6921C127.688 31.7827 127.627 31.8734 128.301 32.4171C129.005 33.0515 129.832 32.7796 129.832 31.964ZM121.41 31.6015C121.533 31.0577 121.196 30.6952 120.583 30.6952C119.818 30.6952 119.695 30.9671 120.032 31.6015C120.614 32.7796 121.165 32.7796 121.41 31.6015ZM101.566 31.0577C101.474 30.7858 101.198 30.6952 100.984 30.9671C100.739 31.239 100.831 31.5108 101.168 31.5108C101.504 31.6015 101.688 31.3296 101.566 31.0577ZM104.873 30.6952C104.781 30.2421 104.506 29.789 104.261 29.789C104.016 29.789 103.74 30.2421 103.648 30.6952C103.526 31.239 103.801 31.6015 104.261 31.6015C104.72 31.6015 104.996 31.239 104.873 30.6952ZM109.62 31.239C109.62 30.4233 108.701 29.9702 108.548 30.6952C108.425 31.239 108.64 31.6015 108.977 31.6015C109.344 31.6015 109.62 31.4202 109.62 31.239ZM206.178 26.4358C205.964 26.2546 205.596 26.2546 205.412 26.4358C205.198 26.7077 205.351 26.889 205.78 26.889C206.209 26.889 206.362 26.7077 206.178 26.4358ZM114.213 8.58265C114.213 8.31077 114.091 7.85765 113.907 7.58577C113.754 7.31389 113.601 7.49515 113.601 7.94827C113.601 8.49202 113.754 8.94515 113.907 8.94515C114.091 8.94515 114.213 8.7639 114.213 8.58265ZM175.064 5.4014C174.972 5.12952 174.696 5.0389 174.482 5.31077C174.237 5.58265 174.329 5.85452 174.666 5.85452C175.003 5.94515 175.186 5.67327 175.064 5.4014ZM94.1852 5.50139C93.879 4.68576 88.4891 4.59514 88.4891 5.41076C88.4891 5.77326 89.806 6.13577 91.4597 6.13577C93.0828 6.22639 94.3077 5.95451 94.1852 5.50139ZM96.7577 5.50139C96.7577 4.41388 94.9815 4.23263 94.7671 5.32014C94.6446 5.86389 95.0121 6.22639 95.6552 6.22639C96.2677 6.22639 96.7577 5.86389 96.7577 5.50139ZM98.1358 5.32014C98.2276 4.86701 98.0439 4.41388 97.707 4.41388C97.3395 4.41388 97.0639 4.86701 97.0639 5.32014C97.0639 5.86389 97.2477 6.22639 97.4927 6.22639C97.7377 6.22639 98.0439 5.86389 98.1358 5.32014ZM99.8201 5.32014C99.8201 4.86701 99.6057 4.41388 99.3607 4.41388C99.1157 4.41388 98.9014 4.86701 98.9014 5.32014C98.9014 5.86389 99.1157 6.22639 99.3607 6.22639C99.6057 6.22639 99.8201 5.86389 99.8201 5.32014ZM101.964 5.32014C101.964 4.86701 101.658 4.41388 101.29 4.41388C100.708 4.41388 100.678 4.59514 101.045 5.32014C101.627 6.49827 101.964 6.49827 101.964 5.32014Z" fill="#F6060A"/>
</svg>
