<svg width="793" height="100" viewBox="0 0 793 100" fill="none" xmlns="http://www.w3.org/2000/svg">
<path d="M588.501 99.0997C588.274 98.9025 570.045 97.9169 547.966 97.1283C525.886 96.3398 504.26 95.5513 499.844 95.3541C495.541 95.157 463.158 94.3685 427.945 93.3828C370.312 92.0029 351.516 91.8057 310.754 92.0029C303.961 92.2 291.392 92.2 283.013 92.2C274.635 92.0029 259.575 92.0029 249.611 92.0029C239.647 92.0029 230.476 92.0029 229.23 92.0029C227.985 92.0029 187.45 92.0029 139.215 92.2C67.5418 92.3971 49.6519 91.8057 41.2731 89.6373C35.7249 88.0602 27.5725 86.4832 23.1567 86.286C14.8911 85.8918 9.00326 83.7233 7.98421 80.9634C7.64453 79.9778 6.17257 78.0064 4.70062 76.8236C2.09639 74.4581 2.09639 74.2609 4.02125 70.5154C5.26675 68.1498 5.49321 66.7699 4.58739 66.7699C3.7948 66.7699 3.56834 65.9813 3.90802 64.7985C4.24771 63.6157 5.94612 62.8272 7.64453 62.8272C10.5884 62.8272 10.5884 62.8272 6.39903 57.8989C3.90802 54.9419 1.98316 50.605 1.53025 47.4508C1.19057 44.4938 0.624431 40.5512 0.284748 38.777C0.0582937 36.8057 0.397976 35.2286 1.19057 35.2286C2.09639 35.2286 2.09639 34.4401 1.07734 32.2716C0.284748 30.4974 -0.168161 28.9203 0.0582937 28.7232C0.284748 28.3289 2.66252 25.7662 5.26675 22.8092C7.98421 19.8522 10.1355 16.3038 10.1355 14.7268C10.1355 13.1497 11.9472 11.5726 15.0043 10.9812C17.6085 10.1927 22.0244 8.81278 24.8551 7.62998C36.0646 3.09593 47.3873 1.716 85.4317 0.533199C120.193 -0.452465 126.42 -0.255333 135.818 2.70166C146.122 6.05292 202.396 7.23572 371.104 7.62998C376.992 7.62998 379.144 8.22138 379.03 10.1927C378.804 11.7698 380.389 12.7554 383.786 12.9526C386.617 13.3468 391.485 14.5296 394.656 15.7124C399.638 17.6838 400.883 17.4866 403.148 14.7268C404.62 12.9526 405.186 11.5726 404.393 11.5726C403.714 11.5726 403.035 10.7841 403.035 9.60131C403.035 8.61565 404.28 7.62998 405.865 7.62998C407.45 7.62998 408.696 8.81278 408.696 10.1927C408.696 13.3468 413.678 13.7411 455.232 14.1354C479.01 14.5296 485.69 15.121 487.276 17.2895C488.521 19.0637 490.672 19.6551 494.183 18.8666C497.013 18.078 499.504 18.4723 499.844 19.458C500.75 22.0207 505.732 22.0207 506.298 19.458C506.524 18.2752 509.921 17.0924 513.997 17.0924C518.526 16.8952 521.923 15.7124 522.942 13.9382C524.075 11.9669 525.773 11.5726 528.604 12.7554C530.868 13.544 534.944 14.3325 537.775 14.5296C540.606 14.7268 543.889 15.7124 545.022 16.501C546.494 17.6838 547.399 17.2895 547.739 15.9096C548.192 13.1497 559.288 12.5583 559.288 15.121C559.288 16.1067 561.326 16.6981 563.817 16.6981C566.308 16.501 568.46 17.2895 568.686 18.2752C568.913 19.2608 572.083 19.8522 575.819 19.6551C584.991 18.8666 586.802 18.4723 588.501 16.6981C590.539 14.5296 626.206 14.5296 627.112 16.8952C628.017 19.2608 643.077 19.6551 643.077 17.2895C643.077 16.3038 645.228 15.5153 647.945 15.5153C651.455 15.5153 652.248 16.1067 651.002 17.4866C649.757 18.8666 650.323 19.458 653.493 19.458C656.324 19.458 658.023 20.6408 658.815 23.0064C659.721 25.5691 660.174 25.7662 661.306 23.992C662.438 22.0207 663.118 22.0207 664.363 23.7949C665.382 25.3719 666.175 25.3719 666.628 23.992C667.76 21.035 673.535 19.6551 677.158 21.4293C678.856 22.415 680.555 22.6121 680.894 22.0207C681.8 20.2465 691.878 20.2465 692.444 21.8236C692.783 22.6121 698.105 23.4006 704.333 23.4006C710.447 23.4006 715.542 24.1892 715.542 25.1748C715.542 26.1605 714.636 27.5404 713.617 27.9347C711.692 28.7232 711.692 28.9203 713.617 29.1175C714.636 29.1175 715.542 30.6945 715.542 32.2716C715.542 35.6229 717.92 36.2143 719.731 33.0601C720.637 31.4831 721.203 31.4831 721.656 33.0601C722.789 36.2143 725.733 35.6229 725.733 32.2716C725.733 28.9203 728.676 28.1318 729.356 31.4831C729.695 33.0601 730.941 33.0601 733.772 31.6802C736.263 30.4974 738.527 30.4974 739.659 31.4831C740.679 32.4687 750.076 33.0601 760.493 32.6659C770.91 32.4687 781.101 32.6659 782.912 33.2573C786.196 34.4401 786.083 34.4401 781.327 35.82C776.458 37.3971 776.345 37.3971 778.836 40.3541C780.421 42.3254 783.139 43.311 786.536 42.7196C789.706 42.3254 791.971 42.9168 792.197 44.2967C792.65 46.6623 789.14 49.0279 784.611 49.0279C782.346 49.0279 782.12 49.4222 783.479 50.9992C784.837 52.5763 784.724 52.9706 782.686 52.9706C778.836 52.9706 776.798 54.9419 777.477 58.096C777.817 59.8702 777.251 60.8559 775.666 60.8559C774.081 60.8559 773.514 59.8702 773.967 57.8989C774.42 56.1247 773.967 54.9419 772.835 54.9419C771.816 54.9419 771.023 55.7304 771.023 56.7161C771.023 57.7017 769.438 58.096 767.513 57.5046C765.362 56.9132 764.23 57.3075 764.683 58.4903C766.041 62.4329 762.192 64.6014 751.775 65.7842C732.3 67.9527 727.431 68.9383 726.299 71.1068C725.506 72.4867 730.941 72.881 744.981 72.2896C755.851 71.6982 763.664 71.8953 762.418 72.6839C761.173 73.6695 756.077 74.4581 751.095 74.8523C741.358 75.4437 739.32 76.0351 739.32 78.795C739.32 79.7806 741.471 80.5692 744.189 80.5692C747.699 80.5692 748.491 81.1606 747.246 82.5405C745.774 84.1176 745.887 84.5118 747.585 84.5118C748.604 84.5118 749.51 83.7233 749.51 82.7376C749.51 79.5835 755.738 78.4007 760.833 80.372C764.343 81.752 766.268 81.752 767.287 80.1749C768.419 78.5978 769.212 78.9921 770.457 81.752C771.363 83.7233 772.156 86.0889 772.156 86.8774C772.156 87.666 773.288 88.6516 774.76 89.0459C776.572 89.6373 776.345 90.0315 773.628 90.2287C771.703 90.2287 769.778 89.6373 769.438 88.6516C768.646 86.6803 764.456 88.0602 762.192 91.0172C761.512 92.0029 759.361 92.3971 757.436 91.8057C755.625 91.0172 753.813 91.4115 753.473 92.2C752.681 94.5656 731.847 95.5513 721.543 93.9742C718.939 93.5799 717.014 93.9742 717.354 94.7627C717.693 95.5513 716.788 96.3398 715.316 96.3398C703.88 96.7341 675.573 98.5083 671.723 99.2968C669.006 99.8882 666.854 99.4939 666.854 98.7054C666.854 97.9169 662.891 97.7197 658.136 98.5083C653.267 99.2968 648.851 99.2968 648.172 98.5083C647.606 97.7197 644.548 97.5226 641.378 97.7197C633.452 98.7054 588.841 99.6911 588.501 99.0997ZM600.05 82.5405C600.05 81.5548 599.371 80.5692 598.465 80.5692C597.559 80.5692 596.427 81.5548 596.087 82.5405C595.747 83.7233 596.427 84.5118 597.672 84.5118C599.031 84.5118 600.05 83.7233 600.05 82.5405ZM605.711 82.5405C605.711 81.5548 604.919 80.5692 604.013 80.5692C603.107 80.5692 602.315 81.5548 602.315 82.5405C602.315 83.7233 603.107 84.5118 604.013 84.5118C604.919 84.5118 605.711 83.7233 605.711 82.5405ZM610.241 82.5405C610.241 81.5548 609.674 80.5692 608.995 80.5692C608.429 80.5692 608.203 81.5548 608.542 82.5405C608.882 83.7233 609.448 84.5118 609.788 84.5118C610.014 84.5118 610.241 83.7233 610.241 82.5405ZM618.733 82.5405C618.393 81.5548 617.6 80.5692 616.921 80.5692C616.355 80.5692 615.902 81.5548 615.902 82.5405C615.902 83.7233 616.695 84.5118 617.714 84.5118C618.619 84.5118 619.072 83.7233 618.733 82.5405ZM697.992 82.5405C697.312 83.1319 689.245 83.7969 688.905 82.8113L681.121 83.329C689.16 82.7376 696.746 82.3434 697.992 82.5405ZM555.891 80.5692C555.891 79.5835 554.193 78.5978 552.268 78.5978C549.437 78.5978 548.985 79.1892 550.23 80.5692C552.495 83.1319 555.891 83.1319 555.891 80.5692ZM728.45 80.372C729.582 82.1462 731.62 82.5405 734.338 81.5548C736.602 80.9634 738.188 79.9778 737.961 79.5835C737.055 77.8093 723.468 76.6265 723.468 78.2036C723.468 81.3577 725.053 82.5405 725.846 80.1749C726.525 78.4007 727.091 78.4007 728.45 80.372ZM491.918 78.5978C494.069 77.0208 494.069 76.8236 491.692 76.8236C490.22 76.6265 488.748 76.6265 488.295 76.4294C487.842 76.4294 487.276 77.2179 487.049 78.4007C486.596 80.9634 488.748 80.9634 491.918 78.5978ZM478.897 76.8236C478.897 75.838 477.538 75.2466 475.953 75.2466C473.915 75.2466 473.462 75.6408 474.481 76.8236C476.519 78.9921 478.897 78.9921 478.897 76.8236ZM482.86 76.6265C482.52 75.6408 481.728 74.6552 481.048 74.6552C480.482 74.6552 480.029 75.6408 480.029 76.6265C480.029 77.8093 480.822 78.5978 481.841 78.5978C482.747 78.5978 483.199 77.8093 482.86 76.6265ZM554.759 74.8523C554.759 72.6839 550.23 70.5154 548.645 72.0925C548.079 72.881 548.532 74.0638 549.777 74.8523C552.834 77.0208 554.759 77.0208 554.759 74.8523ZM709.767 73.4724L718.486 70.3183C718.486 70.3183 715.655 72.6839 709.767 73.4724C704.333 74.0638 676.694 74.5835 669.119 73.8667L709.767 73.4724ZM542.304 72.6839C541.398 71.6982 539.134 70.7125 537.209 70.7125C534.605 70.7125 534.152 71.3039 535.51 72.6839C536.416 73.6695 538.794 74.6552 540.606 74.6552C543.21 74.6552 543.663 74.0638 542.304 72.6839ZM572.536 73.4724C572.196 72.881 571.177 72.6839 570.385 73.2753C569.479 73.8667 569.818 74.458 571.064 74.458C572.309 74.6552 572.989 74.0638 572.536 73.4724ZM480.029 69.5297C480.029 69.1355 478.104 68.7412 475.84 68.9383C472.103 69.1355 471.877 69.3326 474.368 70.5154C476.972 71.8953 480.029 71.3039 480.029 69.5297ZM448.892 68.7412C449.345 67.5584 448.099 66.7699 445.834 66.7699C443.004 66.7699 442.551 67.3613 443.796 68.7412C445.948 71.3039 447.986 71.3039 448.892 68.7412ZM375.52 67.5584C375.181 66.967 374.162 66.7699 373.369 67.3613C372.463 67.9527 372.803 68.5441 374.048 68.5441C375.294 68.7412 375.973 68.1498 375.52 67.5584ZM387.749 66.7699C387.409 65.7842 386.39 64.7985 385.484 64.7985C384.578 64.7985 383.559 65.7842 383.22 66.7699C382.767 67.9527 383.786 68.7412 385.484 68.7412C387.183 68.7412 388.202 67.9527 387.749 66.7699ZM405.299 67.9527C405.299 66.1785 401.902 65.1928 401.336 66.7699C400.883 67.9527 401.676 68.7412 402.921 68.7412C404.28 68.7412 405.299 68.3469 405.299 67.9527ZM762.305 57.5046C761.512 57.1104 760.154 57.1104 759.474 57.5046C758.682 58.096 759.248 58.4903 760.833 58.4903C762.418 58.4903 762.984 58.096 762.305 57.5046ZM422.283 18.6694C422.283 18.078 421.83 17.0924 421.151 16.501C420.585 15.9096 420.019 16.3038 420.019 17.2895C420.019 18.4723 420.585 19.458 421.151 19.458C421.83 19.458 422.283 19.0637 422.283 18.6694ZM647.266 18.2752C646.926 17.6838 645.907 17.4866 645.115 18.078C644.209 18.6694 644.548 19.2608 645.794 19.2608C647.039 19.458 647.719 18.8666 647.266 18.2752ZM348.232 11.9669C347.1 10.1927 327.172 9.99558 327.172 11.7698C327.172 12.5583 332.041 13.3468 338.155 13.3468C344.156 13.544 348.685 12.9526 348.232 11.9669ZM357.744 11.9669C357.744 9.60131 351.176 9.20705 350.384 11.5726C349.931 12.7554 351.29 13.544 353.667 13.544C355.932 13.544 357.744 12.7554 357.744 11.9669ZM362.839 11.5726C363.178 10.587 362.499 9.60131 361.254 9.60131C359.895 9.60131 358.876 10.587 358.876 11.5726C358.876 12.7554 359.555 13.544 360.461 13.544C361.367 13.544 362.499 12.7554 362.839 11.5726ZM369.066 11.5726C369.066 10.587 368.274 9.60131 367.368 9.60131C366.462 9.60131 365.669 10.587 365.669 11.5726C365.669 12.7554 366.462 13.544 367.368 13.544C368.274 13.544 369.066 12.7554 369.066 11.5726ZM376.992 11.5726C376.992 10.587 375.86 9.60131 374.501 9.60131C372.35 9.60131 372.237 9.99558 373.595 11.5726C375.747 14.1354 376.992 14.1354 376.992 11.5726Z" fill="#F6060A"/>
</svg>
